<svg width="68" height="68" viewBox="0 0 68 68" fill="none" xmlns="http://www.w3.org/2000/svg">
<circle cx="34" cy="34" r="34" fill="white"/>
<path d="M25.2729 25.4609C25.2729 26.1034 25.8056 26.6363 26.448 26.6363L39.7033 26.6363L19.7733 46.5694C19.5383 46.8045 19.4286 47.1022 19.4286 47.4C19.4286 47.6977 19.5383 47.9955 19.7733 48.2305C20.2277 48.685 20.9798 48.685 21.4342 48.2305L41.3641 28.2974L41.3641 41.5548C41.3641 42.1973 41.8968 42.7301 42.5392 42.7301C43.1816 42.7301 43.7144 42.1973 43.7144 41.5548L43.7144 25.4609C43.7144 25.3042 43.683 25.1632 43.6203 25.0065C43.5107 24.7244 43.2756 24.4894 42.9936 24.3797C42.8369 24.317 42.6959 24.2856 42.5392 24.2856L26.448 24.2856C25.8056 24.2856 25.2729 24.8184 25.2729 25.4609Z" fill="#181818"/>
</svg>
