<svg width="154" height="154" viewBox="0 0 154 154" fill="none" xmlns="http://www.w3.org/2000/svg">
<circle cx="76.9998" cy="77.2816" r="76.5389" fill="#FE5723"/>
<ellipse cx="76.9455" cy="77.3103" rx="11.1379" ry="11.1379" fill="#FE5723"/>
<path d="M92.7207 63.5304L86.8013 69.577C88.1598 71.3324 89.0332 73.478 89.3243 75.8186H97.8638C98.5431 71.43 102.425 68.1141 106.888 68.1141C111.935 68.1141 116.01 72.2102 116.01 77.2815C116.01 82.3528 111.935 86.5463 106.888 86.5463C102.425 86.5463 98.5431 83.2305 97.8638 78.7443H89.3243C89.0332 81.0849 88.1598 83.2305 86.8013 84.9859L92.7207 91.0325C94.3704 89.8622 96.2141 89.277 98.1549 89.277C103.201 89.277 107.277 93.4706 107.277 98.5419C107.277 103.613 103.201 107.709 98.1549 107.709C93.1088 107.709 88.9361 103.613 88.9361 98.5419C88.9361 96.5914 89.5184 94.7384 90.6828 93.0805L84.6664 87.1315C82.9197 88.4968 80.7848 89.3746 78.4558 89.6671V98.2493C82.9197 98.932 86.219 102.833 86.219 107.319C86.219 112.39 82.0463 116.487 77.0002 116.487C71.9542 116.487 67.8785 112.39 67.8785 107.319C67.8785 102.833 71.1778 98.932 75.5446 98.2493V89.6671C73.2157 89.3746 71.0808 88.4968 69.3341 87.1315L63.3176 93.0805C64.4821 94.7384 65.0643 96.5914 65.0643 98.5419C65.0643 103.613 60.9887 107.709 55.9426 107.709C50.7995 107.709 46.7238 103.613 46.7238 98.5419C46.7238 93.4706 50.7995 89.277 55.9426 89.277C57.7864 89.277 59.6301 89.8622 61.2798 91.0325L67.2963 84.9859C65.8407 83.2305 64.9673 81.0849 64.6762 78.7443H56.2337C55.4574 83.2305 51.6728 86.5463 47.112 86.5463C42.0659 86.5463 37.9902 82.3528 37.9902 77.2815C37.9902 72.2102 42.0659 68.1141 47.112 68.1141C51.6728 68.1141 55.4574 71.43 56.2337 75.8186H64.6762C64.9673 73.478 65.8407 71.3324 67.2963 69.577L61.2798 63.5304C59.6301 64.7007 57.7864 65.2859 55.9426 65.2859C50.7995 65.2859 46.7238 61.1898 46.7238 56.1185C46.7238 50.9497 50.7995 46.8537 55.9426 46.8537C60.9887 46.8537 65.0643 50.9497 65.0643 56.1185C65.0643 57.9715 64.4821 59.8245 63.3176 61.4824L69.3341 67.529C71.0808 66.0661 73.2157 65.1884 75.5446 64.8958V56.4111C71.1778 55.6309 67.8785 51.8274 67.8785 47.2438C67.8785 42.1725 71.9542 38.0764 77.0002 38.0764C82.0463 38.0764 86.219 42.1725 86.219 47.2438C86.219 51.8274 82.9197 55.6309 78.4558 56.4111V64.8958C80.7848 65.1884 82.9197 66.0661 84.6664 67.529L90.6828 61.4824C89.5184 59.8245 88.9361 57.9715 88.9361 56.1185C88.9361 50.9497 93.1088 46.8537 98.1549 46.8537C103.201 46.8537 107.277 50.9497 107.277 56.1185C107.277 61.1898 103.201 65.2859 98.1549 65.2859C96.2141 65.2859 94.3704 64.7007 92.7207 63.5304ZM77.0002 67.724C71.7601 67.724 67.4903 72.0151 67.4903 77.2815C67.4903 82.5478 71.7601 86.8389 77.0002 86.8389C82.2404 86.8389 86.5101 82.5478 86.5101 77.2815C86.5101 72.0151 82.2404 67.724 77.0002 67.724ZM77.0002 41.0022C73.5068 41.0022 70.7897 43.8304 70.7897 47.2438C70.7897 50.7547 73.5068 53.5829 77.0002 53.5829C80.4937 53.5829 83.3078 50.7547 83.3078 47.2438C83.3078 43.8304 80.4937 41.0022 77.0002 41.0022ZM55.9426 49.7794C52.4492 49.7794 49.635 52.6076 49.635 56.1185C49.635 59.5319 52.4492 62.3601 55.9426 62.3601C59.339 62.3601 62.1531 59.5319 62.1531 56.1185C62.1531 52.6076 59.339 49.7794 55.9426 49.7794ZM40.9014 77.2815C40.9014 80.7924 43.7156 83.6206 47.112 83.6206C50.6054 83.6206 53.4196 80.7924 53.4196 77.2815C53.4196 73.7706 50.6054 71.0399 47.112 71.0399C43.7156 71.0399 40.9014 73.7706 40.9014 77.2815ZM49.635 98.5419C49.635 102.053 52.4492 104.784 55.9426 104.784C59.339 104.784 62.1531 101.955 62.1531 98.5419C62.1531 95.031 59.339 92.2028 55.9426 92.2028C52.4492 92.2028 49.635 95.031 49.635 98.5419ZM77.0002 113.658C80.4937 113.658 83.3078 110.83 83.3078 107.319C83.3078 103.808 80.4937 100.98 77.0002 100.98C73.5068 100.98 70.7897 103.808 70.7897 107.319C70.7897 110.83 73.5068 113.658 77.0002 113.658ZM98.1549 104.784C101.648 104.784 104.365 102.053 104.365 98.5419C104.365 95.031 101.551 92.2028 98.1549 92.2028C94.6615 92.2028 91.8473 95.031 91.8473 98.5419C91.8473 102.053 94.6615 104.784 98.1549 104.784ZM113.196 77.2815C113.196 73.7706 110.382 71.0399 106.888 71.0399C103.395 71.0399 100.581 73.7706 100.581 77.2815C100.581 80.7924 103.395 83.6206 106.888 83.6206C110.382 83.6206 113.196 80.7924 113.196 77.2815ZM104.365 56.1185C104.365 52.6076 101.648 49.7794 98.1549 49.7794C94.6615 49.7794 91.8473 52.6076 91.8473 56.1185C91.8473 59.5319 94.6615 62.3601 98.1549 62.3601C101.648 62.3601 104.365 59.5319 104.365 56.1185Z" fill="white"/>
</svg>
