<svg width="67" height="83" viewBox="0 0 67 83" fill="none" xmlns="http://www.w3.org/2000/svg">
<path d="M32.941 3.50666C29.1513 3.64185 25.4969 4.94935 22.4816 7.24889C19.4663 9.54844 17.2387 12.7268 16.1057 16.3457C14.9728 19.9646 14.9905 23.8458 16.1562 27.4542C17.322 31.0627 19.5785 34.2206 22.6146 36.4927C23.4586 37.0987 24.1616 37.88 24.6756 38.783C25.1896 39.686 25.5023 40.6895 25.5925 41.7246H24.8045C24.5615 41.7246 24.3284 41.8211 24.1566 41.993C23.9847 42.1648 23.8882 42.3979 23.8882 42.6409V49.6321C23.8882 49.8751 23.9847 50.1082 24.1566 50.28C24.3284 50.4518 24.5615 50.5484 24.8045 50.5484H27.3701V51.0157C27.3701 51.8152 27.6877 52.5819 28.253 53.1473C28.8183 53.7126 29.5851 54.0302 30.3846 54.0302H36.6153C37.4148 54.0302 38.1816 53.7126 38.7469 53.1473C39.3122 52.5819 39.6298 51.8152 39.6298 51.0157V50.5484H42.1954C42.4384 50.5484 42.6715 50.4518 42.8433 50.28C43.0152 50.1082 43.1117 49.8751 43.1117 49.6321V42.6775C43.1117 42.4345 43.0152 42.2015 42.8433 42.0296C42.6715 41.8578 42.4384 41.7613 42.1954 41.7613H41.4074C41.4936 40.7419 41.7965 39.7528 42.2959 38.86C42.7952 37.9672 43.4795 37.1913 44.3029 36.5843C46.6304 34.8857 48.5246 32.6621 49.8317 30.0941C51.1388 27.5262 51.8218 24.6862 51.8255 21.8047C51.8266 19.352 51.3353 16.924 50.3807 14.6647C49.4261 12.4053 48.0277 10.3606 46.2684 8.65166C44.509 6.94271 42.4245 5.60433 40.1384 4.71584C37.8522 3.82734 35.411 3.40681 32.9593 3.47917L32.941 3.50666ZM37.7973 51.0157C37.7973 51.3291 37.6728 51.6298 37.4511 51.8515C37.2294 52.0731 36.9288 52.1977 36.6153 52.1977H30.3846C30.0711 52.1977 29.7705 52.0731 29.5488 51.8515C29.3271 51.6298 29.2026 51.3291 29.2026 51.0157V50.5484H37.7973V51.0157ZM41.2792 48.7158H25.7024V47.0757H41.2792V48.7158ZM41.2792 45.2431H25.7024V43.5938H41.2792V45.2431ZM43.2217 35.1091C42.1636 35.8845 41.2875 36.8815 40.6545 38.0304C40.0215 39.1793 39.6468 40.4526 39.5565 41.7613H27.4434C27.3511 40.4373 26.9683 39.15 26.3222 37.9907C25.676 36.8315 24.7825 35.8289 23.7049 35.0541C20.9083 32.9895 18.8355 30.094 17.7826 26.7811C16.7296 23.4682 16.7504 19.9073 17.8418 16.6068C18.9333 13.3064 21.0396 10.4353 23.8601 8.40333C26.6806 6.37138 30.071 5.28257 33.5472 5.29236C37.0234 5.30216 40.4076 6.41005 43.2166 8.45785C46.0256 10.5057 48.1158 13.3886 49.1886 16.6952C50.2615 20.0017 50.2621 23.5626 49.1905 26.8695C48.119 30.1764 46.0299 33.0602 43.2217 35.1091Z" fill="white"/>
<path d="M4.52734 76.818C13.7184 80.6107 23.5573 82.5865 33.5 82.6364C43.4428 82.5865 53.2817 80.6107 62.4728 76.818C62.6432 76.7501 62.7894 76.6326 62.8923 76.4807C62.9953 76.3287 63.0502 76.1494 63.05 75.9659V71.5128C63.05 65.8135 59.953 60.38 54.5653 56.6141C51.3772 54.4242 47.7659 52.926 43.9639 52.216C43.7627 52.1764 43.5541 52.2054 43.3714 52.2985C43.1886 52.3915 43.0424 52.5431 42.956 52.7291L33.5 73.4736L24.0441 52.7291C23.9577 52.5431 23.8114 52.3915 23.6287 52.2985C23.446 52.2054 23.2373 52.1764 23.0361 52.216C19.2309 52.9248 15.6165 54.423 12.4257 56.6141C7.03794 60.38 3.94092 65.7769 3.94092 71.5128V75.9659C3.94146 76.1505 3.99774 76.3306 4.10238 76.4826C4.20701 76.6347 4.35513 76.7516 4.52734 76.818ZM44.3121 54.1585C47.392 54.8169 50.3262 56.031 52.9709 57.7411L51.2942 63.4495L45.7507 63.2021C45.5953 63.1947 45.4406 63.227 45.3011 63.296C45.1616 63.3649 45.042 63.4682 44.9535 63.5961C44.8602 63.728 44.8034 63.8823 44.7889 64.0432C44.7745 64.2041 44.8028 64.366 44.871 64.5124L47.0518 69.4237L35.2685 74.0051L44.3121 54.1585ZM22.688 54.1585L31.7316 74.0051L19.9483 69.4237L22.129 64.5124C22.1932 64.3669 22.2184 64.2072 22.2022 64.0489C22.1859 63.8907 22.1288 63.7394 22.0363 63.61C21.9439 63.4806 21.8193 63.3774 21.6749 63.3107C21.5305 63.244 21.3712 63.2161 21.2128 63.2296L15.6601 63.477L13.9925 57.7686C16.6455 56.043 19.5929 54.8194 22.688 54.1585ZM5.78264 71.5128C5.78264 66.7848 8.20161 62.2492 12.4531 58.8773L14.1391 64.6499C14.1962 64.8463 14.3175 65.018 14.4835 65.1376C14.6496 65.2572 14.8509 65.3177 15.0554 65.3096L19.8383 65.0988L17.9233 69.5336C17.8754 69.6467 17.8508 69.7682 17.8508 69.891C17.8508 70.0137 17.8754 70.1353 17.9233 70.2483C17.9704 70.3626 18.0402 70.4661 18.1284 70.5527C18.2165 70.6393 18.3213 70.7072 18.4364 70.7523L33.216 76.534C33.32 76.5794 33.4323 76.6028 33.5459 76.6028C33.6594 76.6028 33.7717 76.5794 33.8757 76.534L48.6553 70.7523C48.7704 70.7072 48.8752 70.6393 48.9633 70.5527C49.0515 70.4661 49.1213 70.3626 49.1684 70.2483C49.2163 70.1353 49.2409 70.0137 49.2409 69.891C49.2409 69.7682 49.2163 69.6467 49.1684 69.5336L47.1526 65.0988L51.9264 65.3096C52.1309 65.3177 52.3322 65.2572 52.4982 65.1376C52.6643 65.018 52.7855 64.8463 52.8427 64.6499L54.5744 58.8773C58.826 62.2492 61.2449 66.7848 61.2449 71.5128V75.3428C43.4827 82.618 23.5723 82.618 5.81013 75.3428L5.78264 71.5128Z" fill="white"/>
<path d="M44.5872 76.5982H51.9724C52.2154 76.5982 52.4484 76.5016 52.6203 76.3298C52.7921 76.158 52.8887 75.9249 52.8887 75.6819C52.8887 75.4389 52.7921 75.2058 52.6203 75.034C52.4484 74.8622 52.2154 74.7656 51.9724 74.7656H44.5872C44.3442 74.7656 44.1111 74.8622 43.9393 75.034C43.7674 75.2058 43.6709 75.4389 43.6709 75.6819C43.6709 75.9249 43.7674 76.158 43.9393 76.3298C44.1111 76.5016 44.3442 76.5982 44.5872 76.5982Z" fill="white"/>
<path d="M42.2872 19.5232C42.1382 19.1039 41.9575 18.6965 41.7466 18.3046L43.3776 16.6736C43.5469 16.4866 43.6407 16.2433 43.6407 15.991C43.6407 15.7387 43.5469 15.4954 43.3776 15.3083L40.6288 12.5595C40.4369 12.3926 40.1912 12.3006 39.937 12.3006C39.6827 12.3006 39.437 12.3926 39.2452 12.5595L37.6508 14.1722C37.2537 13.976 36.8434 13.8076 36.423 13.6682V11.3775C36.4139 11.1228 36.3087 10.881 36.1285 10.7008C35.9483 10.5206 35.7065 10.4154 35.4518 10.4062H31.5484C31.2937 10.4154 31.052 10.5206 30.8718 10.7008C30.6915 10.881 30.5863 11.1228 30.5772 11.3775V13.6682C30.1574 13.8093 29.7472 13.9776 29.3494 14.1722L27.7367 12.5595C27.5449 12.3926 27.2992 12.3006 27.0449 12.3006C26.7907 12.3006 26.545 12.3926 26.3531 12.5595L23.6043 15.3083C23.4343 15.4969 23.3402 15.7417 23.3402 15.9955C23.3402 16.2494 23.4343 16.4942 23.6043 16.6828L25.2536 18.3046C25.0552 18.6975 24.8868 19.1049 24.7497 19.5232H22.4132C22.1592 19.5344 21.9186 19.6403 21.7388 19.8201C21.559 19.9999 21.4531 20.2405 21.4419 20.4945V24.3978C21.451 24.6525 21.5562 24.8943 21.7365 25.0745C21.9167 25.2547 22.1585 25.36 22.4132 25.3691H24.713C24.8603 25.7921 25.0411 26.2026 25.2536 26.5969L23.6226 28.2279C23.4533 28.4149 23.3595 28.6582 23.3595 28.9105C23.3595 29.1628 23.4533 29.4061 23.6226 29.5931L26.3715 32.3419C26.5624 32.5107 26.8084 32.6039 27.0633 32.6039C27.3181 32.6039 27.5641 32.5107 27.755 32.3419L29.3769 30.7201C29.7738 30.9193 30.1841 31.0907 30.6047 31.2332V33.5239C30.6159 33.7779 30.7218 34.0185 30.9016 34.1983C31.0813 34.3781 31.3219 34.484 31.5759 34.4952H35.4793C35.7333 34.484 35.9738 34.3781 36.1536 34.1983C36.3334 34.0185 36.4393 33.7779 36.4505 33.5239V31.2332C36.8705 31.089 37.2806 30.9176 37.6783 30.7201L39.291 32.3419C39.4819 32.5107 39.728 32.6039 39.9828 32.6039C40.2376 32.6039 40.4836 32.5107 40.6746 32.3419L43.4234 29.5931C43.5927 29.4061 43.6865 29.1628 43.6865 28.9105C43.6865 28.6582 43.5927 28.4149 43.4234 28.2279L41.7466 26.5969C41.9466 26.2015 42.1151 25.7909 42.2506 25.3691H44.5871C44.8418 25.36 45.0836 25.2547 45.2638 25.0745C45.444 24.8943 45.5492 24.6525 45.5583 24.3978V20.4945C45.5471 20.2405 45.4412 19.9999 45.2614 19.8201C45.0816 19.6403 44.8411 19.5344 44.5871 19.5232H42.2872ZM43.7258 23.5365H41.6458C41.4361 23.5491 41.2354 23.6263 41.0713 23.7576C40.9072 23.8888 40.7878 24.0677 40.7295 24.2695C40.5592 24.9638 40.2842 25.628 39.9141 26.2395C39.8083 26.4294 39.7654 26.6479 39.7918 26.8636C39.8181 27.0793 39.9123 27.2811 40.0607 27.4399L41.5267 28.9059L39.9874 30.4544L38.5122 28.9792C38.3527 28.8288 38.1492 28.7334 37.9315 28.707C37.7139 28.6806 37.4935 28.7246 37.3027 28.8326C36.6864 29.1998 36.0196 29.4746 35.3235 29.6481C35.1223 29.7076 34.9442 29.8273 34.8131 29.9911C34.6821 30.155 34.6043 30.355 34.5905 30.5644V32.6443H32.4097V30.5919C32.3985 30.3817 32.3218 30.1804 32.1903 30.016C32.0589 29.8517 31.8793 29.7327 31.6767 29.6756C30.9816 29.4947 30.3154 29.2171 29.6976 28.8509C29.5105 28.7466 29.2951 28.7046 29.0826 28.731C28.8701 28.7573 28.6714 28.8507 28.5156 28.9975L27.0862 30.4544L25.5468 28.9059L27.0129 27.4399C27.1618 27.2833 27.2564 27.0829 27.2828 26.8685C27.3092 26.654 27.266 26.4367 27.1595 26.2487C26.7731 25.6302 26.4827 24.9567 26.2982 24.2512C26.2399 24.0493 26.1205 23.8705 25.9564 23.7392C25.7923 23.608 25.5916 23.5308 25.3819 23.5182H23.2745V21.3558H25.3544C25.5645 21.3445 25.7659 21.2678 25.9302 21.1363C26.0945 21.0049 26.2136 20.8253 26.2707 20.6227C26.4443 19.9296 26.7191 19.2658 27.0862 18.6528C27.1912 18.4643 27.2336 18.2474 27.2073 18.0332C27.1809 17.8191 27.0872 17.6189 26.9396 17.4616L25.501 16.0047L27.0862 14.447L28.5614 15.9222C28.7187 16.0666 28.9171 16.1583 29.1289 16.1846C29.3408 16.2108 29.5556 16.1704 29.7434 16.0688C30.3591 15.6984 31.026 15.4206 31.7225 15.2442C31.9244 15.1859 32.1032 15.0665 32.2345 14.9024C32.3658 14.7384 32.443 14.5377 32.4556 14.3279V12.2296H34.6363V14.3096C34.6489 14.5193 34.7261 14.72 34.8573 14.8841C34.9886 15.0482 35.1675 15.1676 35.3693 15.2259C36.064 15.4035 36.7303 15.678 37.3485 16.0414C37.5346 16.1469 37.7494 16.1904 37.9619 16.1657C38.1744 16.141 38.3735 16.0493 38.5305 15.9039L40.0057 14.4287L41.4992 16.0047L40.0423 17.4616C39.8907 17.6164 39.7934 17.8163 39.7653 18.0311C39.7372 18.246 39.7798 18.4642 39.8866 18.6528C40.2538 19.2723 40.5285 19.9421 40.7021 20.6411C40.7619 20.8412 40.882 21.0181 41.046 21.1476C41.2099 21.2771 41.4097 21.353 41.6183 21.3649H43.6983L43.7258 23.5365Z" fill="#FE5723"/>
<path d="M33.5001 17.8372C32.594 17.8372 31.7082 18.1059 30.9548 18.6093C30.2014 19.1127 29.6142 19.8282 29.2674 20.6653C28.9207 21.5025 28.83 22.4236 29.0067 23.3123C29.1835 24.201 29.6198 25.0174 30.2606 25.6581C30.9013 26.2988 31.7176 26.7351 32.6063 26.9119C33.495 27.0887 34.4162 26.998 35.2533 26.6512C36.0905 26.3044 36.806 25.7172 37.3094 24.9638C37.8128 24.2104 38.0815 23.3247 38.0815 22.4185C38.0815 21.2035 37.5988 20.0382 36.7396 19.179C35.8804 18.3198 34.7152 17.8372 33.5001 17.8372ZM33.5001 25.1674C32.9564 25.1674 32.425 25.0062 31.9729 24.7041C31.5209 24.4021 31.1686 23.9728 30.9605 23.4705C30.7525 22.9682 30.698 22.4155 30.8041 21.8823C30.9101 21.3491 31.1719 20.8593 31.5564 20.4748C31.9408 20.0904 32.4306 19.8286 32.9638 19.7225C33.497 19.6165 34.0497 19.6709 34.552 19.879C35.0543 20.087 35.4836 20.4393 35.7857 20.8914C36.0877 21.3434 36.2489 21.8749 36.2489 22.4185C36.255 22.7834 36.1884 23.1457 36.053 23.4846C35.9176 23.8234 35.716 24.1318 35.4602 24.392C35.2043 24.6521 34.8992 24.8587 34.5627 24.9997C34.2262 25.1407 33.865 25.2132 33.5001 25.2132V25.1674Z" fill="#FE5723"/>
<path d="M9.21867 0.876931C9.13161 0.778542 9.0244 0.700028 8.90433 0.646712C8.78425 0.593396 8.65412 0.566526 8.52274 0.567923C8.39137 0.56932 8.26184 0.598953 8.14292 0.654811C8.02401 0.710669 7.91849 0.791446 7.83354 0.891664C7.74859 0.991882 7.68618 1.1092 7.65055 1.23565C7.61492 1.36211 7.6069 1.49475 7.62704 1.62458C7.64717 1.75441 7.69499 1.87839 7.76725 1.98811C7.83951 2.09783 7.93452 2.19073 8.04584 2.26051L14.2582 7.50162C14.4231 7.63822 14.6305 7.71278 14.8446 7.71236C15.0319 7.71238 15.2148 7.65498 15.3684 7.54791C15.5221 7.44084 15.6393 7.28924 15.7042 7.11353C15.7691 6.93781 15.7786 6.74643 15.7314 6.56517C15.6842 6.3839 15.5826 6.22145 15.4402 6.09971L9.21867 0.876931Z" fill="#FE5723"/>
<path d="M2.13596 11.0294C2.09347 11.1424 2.07375 11.2628 2.07795 11.3835C2.08214 11.5042 2.11017 11.6229 2.16041 11.7328C2.21065 11.8427 2.28212 11.9415 2.3707 12.0236C2.45929 12.1057 2.56324 12.1696 2.67657 12.2114L10.3092 14.9602C10.394 15.0221 10.4907 15.0658 10.5932 15.0885C10.8362 15.1334 11.0871 15.08 11.2908 14.94C11.4944 14.7999 11.634 14.5847 11.679 14.3417C11.724 14.0987 11.6705 13.8478 11.5305 13.6441C11.3904 13.4405 11.1752 13.3009 10.9322 13.2559L3.3088 10.5071C3.08386 10.4231 2.83495 10.4308 2.61562 10.5285C2.39628 10.6261 2.22405 10.806 2.13596 11.0294Z" fill="#FE5723"/>
<path d="M0.120117 22.4187C0.120117 22.6617 0.216654 22.8948 0.388489 23.0666C0.560324 23.2385 0.793383 23.335 1.0364 23.335H9.15462C9.39763 23.335 9.63069 23.2385 9.80252 23.0666C9.97436 22.8948 10.0709 22.6617 10.0709 22.4187C10.0709 22.1757 9.97436 21.9426 9.80252 21.7708C9.63069 21.599 9.39763 21.5024 9.15462 21.5024H1.0364C0.793383 21.5024 0.560324 21.599 0.388489 21.7708C0.216654 21.9426 0.120117 22.1757 0.120117 22.4187Z" fill="#FE5723"/>
<path d="M2.99722 34.4676C3.10347 34.4675 3.20888 34.4489 3.30875 34.4127L10.9322 31.6638C11.0485 31.6254 11.156 31.5641 11.2482 31.4835C11.3404 31.4028 11.4155 31.3045 11.4691 31.1943C11.5227 31.0841 11.5536 30.9643 11.56 30.842C11.5665 30.7197 11.5483 30.5973 11.5067 30.4821C11.465 30.3669 11.4007 30.2612 11.3174 30.1713C11.2342 30.0814 11.1338 30.0091 11.0222 29.9586C10.9105 29.9082 10.7899 29.8807 10.6674 29.8777C10.5449 29.8747 10.4231 29.8963 10.3091 29.9412L2.67652 32.6901C2.47328 32.7638 2.30267 32.907 2.19484 33.0944C2.08701 33.2818 2.04893 33.5013 2.08731 33.7141C2.1257 33.9269 2.23808 34.1192 2.4046 34.2571C2.57111 34.395 2.78103 34.4696 2.99722 34.4676Z" fill="#FE5723"/>
<path d="M14.2582 37.3997L8.04583 42.5766C7.95305 42.6535 7.87635 42.748 7.82014 42.8546C7.76392 42.9612 7.72929 43.0779 7.71823 43.1979C7.70716 43.3179 7.71988 43.4389 7.75566 43.554C7.79143 43.6691 7.84956 43.776 7.92671 43.8686C8.00428 43.9607 8.09924 44.0366 8.20618 44.092C8.31311 44.1474 8.42991 44.1812 8.5499 44.1914C8.66989 44.2016 8.79071 44.188 8.90546 44.1515C9.02022 44.115 9.12665 44.0562 9.21866 43.9785L15.4402 38.7649C15.5545 38.696 15.6524 38.6029 15.727 38.4921C15.8016 38.3814 15.8511 38.2557 15.872 38.1238C15.8929 37.9919 15.8848 37.8571 15.8481 37.7287C15.8115 37.6003 15.7472 37.4814 15.6598 37.3805C15.5724 37.2795 15.464 37.1989 15.3422 37.1443C15.2203 37.0896 15.088 37.0622 14.9545 37.0641C14.821 37.0659 14.6895 37.0969 14.5692 37.1548C14.449 37.2128 14.3428 37.2964 14.2582 37.3997Z" fill="#FE5723"/>
<path d="M57.7815 0.876931L51.56 6.09971C51.3982 6.21589 51.2787 6.3816 51.2196 6.57177C51.1604 6.76193 51.1648 6.96619 51.2321 7.15362C51.2995 7.34106 51.426 7.50146 51.5926 7.61054C51.7592 7.71962 51.9569 7.77145 52.1556 7.75818C52.3697 7.7586 52.5771 7.68403 52.742 7.54743L58.9544 2.26051C59.0657 2.19073 59.1607 2.09783 59.2329 1.98811C59.3052 1.87839 59.353 1.75441 59.3732 1.62458C59.3933 1.49475 59.3853 1.36211 59.3496 1.23565C59.314 1.1092 59.2516 0.991882 59.1667 0.891664C59.0817 0.791446 58.9762 0.710669 58.8573 0.654811C58.7384 0.598953 58.6088 0.56932 58.4775 0.567923C58.3461 0.566526 58.2159 0.593396 58.0959 0.646712C57.9758 0.700028 57.8686 0.778542 57.7815 0.876931Z" fill="#FE5723"/>
<path d="M55.4907 14.4379C55.5495 14.6327 55.6715 14.8024 55.8374 14.9202C56.0033 15.0379 56.2037 15.0972 56.407 15.0885C56.5142 15.0893 56.6203 15.0674 56.7185 15.0243L64.3511 12.2755C64.4672 12.2352 64.5742 12.1724 64.6661 12.0907C64.7579 12.0091 64.8328 11.9101 64.8864 11.7995C64.94 11.6889 64.9713 11.5688 64.9785 11.4461C64.9857 11.3234 64.9687 11.2005 64.9284 11.0843C64.888 10.9682 64.8253 10.8612 64.7436 10.7693C64.6619 10.6775 64.5629 10.6026 64.4523 10.549C64.3417 10.4954 64.2216 10.4641 64.0989 10.4569C63.9762 10.4497 63.8533 10.4668 63.7372 10.5071L56.1138 13.2559C55.993 13.2892 55.8804 13.3468 55.7828 13.4252C55.6852 13.5037 55.6048 13.6013 55.5464 13.7121C55.488 13.8228 55.4529 13.9444 55.4434 14.0692C55.4338 14.1941 55.4499 14.3195 55.4907 14.4379Z" fill="#FE5723"/>
<path d="M66.8802 22.4187C66.8802 22.1757 66.7837 21.9426 66.6118 21.7708C66.44 21.599 66.207 21.5024 65.9639 21.5024H57.8457C57.6027 21.5024 57.3696 21.599 57.1978 21.7708C57.026 21.9426 56.9294 22.1757 56.9294 22.4187C56.9294 22.6617 57.026 22.8948 57.1978 23.0666C57.3696 23.2385 57.6027 23.335 57.8457 23.335H65.9639C66.0843 23.335 66.2034 23.3113 66.3146 23.2652C66.4258 23.2192 66.5268 23.1517 66.6118 23.0666C66.6969 22.9815 66.7644 22.8805 66.8105 22.7694C66.8565 22.6582 66.8802 22.539 66.8802 22.4187Z" fill="#FE5723"/>
<path d="M64.0028 34.4676C64.219 34.4696 64.4289 34.395 64.5954 34.2571C64.7619 34.1192 64.8743 33.9269 64.9127 33.7141C64.9511 33.5013 64.913 33.2818 64.8052 33.0944C64.6974 32.907 64.5267 32.7638 64.3235 32.6901L56.6909 29.9412C56.5769 29.8963 56.4551 29.8747 56.3326 29.8777C56.2101 29.8807 56.0895 29.9082 55.9779 29.9586C55.8662 30.0091 55.7658 30.0814 55.6826 30.1713C55.5994 30.2612 55.535 30.3669 55.4934 30.4821C55.4517 30.5973 55.4335 30.7197 55.44 30.842C55.4464 30.9643 55.4774 31.0841 55.5309 31.1943C55.5845 31.3045 55.6596 31.4028 55.7518 31.4835C55.844 31.5641 55.9515 31.6254 56.0678 31.6638L63.6913 34.4127C63.7911 34.4489 63.8966 34.4675 64.0028 34.4676Z" fill="#FE5723"/>
<path d="M51.4498 37.5097C51.3721 37.6017 51.3133 37.7081 51.2768 37.8229C51.2403 37.9376 51.2267 38.0585 51.2369 38.1784C51.2472 38.2984 51.2809 38.4152 51.3363 38.5222C51.3917 38.6291 51.4676 38.7241 51.5597 38.8016L57.7813 44.0153C57.8733 44.0929 57.9797 44.1517 58.0945 44.1882C58.2092 44.2248 58.33 44.2383 58.45 44.2281C58.57 44.2179 58.6868 44.1841 58.7937 44.1287C58.9007 44.0733 58.9956 43.9974 59.0732 43.9053C59.1561 43.8119 59.2191 43.7024 59.2582 43.5838C59.2973 43.4651 59.3117 43.3397 59.3005 43.2153C59.2893 43.0908 59.2529 42.97 59.1933 42.8602C59.1337 42.7504 59.0523 42.6539 58.9541 42.5767L52.7417 37.3997C52.6497 37.322 52.5433 37.2633 52.4285 37.2267C52.3138 37.1902 52.193 37.1767 52.073 37.1869C51.953 37.1971 51.8362 37.2309 51.7292 37.2863C51.6223 37.3416 51.5273 37.4176 51.4498 37.5097Z" fill="#FE5723"/>
</svg>
