<svg width="68" height="67" viewBox="0 0 68 67" fill="none" xmlns="http://www.w3.org/2000/svg">
<path d="M26.0535 12.4948C25.863 12.3063 25.6101 12.1941 25.3426 12.1794C25.0751 12.1647 24.8114 12.2485 24.6014 12.4149L1.02671 31.4228C0.915863 31.5122 0.82377 31.6227 0.755718 31.7478C0.687667 31.8729 0.644997 32.0103 0.630156 32.1519C0.615315 32.2936 0.628596 32.4368 0.669237 32.5733C0.709877 32.7098 0.777078 32.837 0.866981 32.9475L5.26681 38.4218C5.44727 38.6448 5.70792 38.7882 5.99286 38.8212H6.09451C6.35938 38.8276 6.6175 38.7372 6.82055 38.567L23.8536 24.3656L35.5792 36.0912C35.7812 36.2881 36.0522 36.3983 36.3343 36.3983C36.6164 36.3983 36.8874 36.2881 37.0894 36.0912L60.8456 13.9323L64.3016 16.9672C64.4551 17.1017 64.6432 17.1906 64.8446 17.2239C65.046 17.2573 65.2527 17.2337 65.4415 17.156C65.6307 17.0779 65.7939 16.9478 65.9121 16.7808C66.0303 16.6137 66.0988 16.4165 66.1094 16.2121L66.9298 1.97436C66.9383 1.81518 66.9119 1.65608 66.8525 1.50814C66.7932 1.3602 66.7022 1.22698 66.5861 1.11777C66.47 1.00856 66.3315 0.925992 66.1802 0.87581C66.0289 0.825628 65.8684 0.809044 65.7101 0.827213L50.1437 2.70767C49.9427 2.73566 49.7536 2.81924 49.5976 2.94898C49.4416 3.07871 49.3249 3.24944 49.2608 3.44193C49.1966 3.63441 49.1875 3.841 49.2344 4.03838C49.2814 4.23577 49.3826 4.41612 49.5265 4.55909L53.2802 8.10219L36.6247 23.0805L26.0535 12.4948ZM55.6181 8.95166C55.726 8.85489 55.8136 8.73769 55.8759 8.60684C55.9382 8.47598 55.974 8.33407 55.9811 8.18931C55.9813 8.03894 55.9512 7.89006 55.8926 7.75158C55.834 7.61311 55.748 7.48788 55.6398 7.3834L52.7139 4.55909L64.6791 3.107L64.0402 13.8597L61.5135 11.638C61.3132 11.4609 61.0549 11.3632 60.7875 11.3632C60.5201 11.3632 60.2618 11.4609 60.0615 11.638L36.3706 33.8042L24.6885 22.1221C24.4978 21.9328 24.2435 21.8213 23.9751 21.8092C23.7067 21.7972 23.4434 21.8854 23.2364 22.0568L6.26876 36.2219L3.24115 32.461L25.204 14.7237L35.8115 25.353C36.0081 25.55 36.2726 25.6642 36.5507 25.6723C36.8288 25.6804 37.0995 25.5818 37.3072 25.3966L55.6181 8.95166Z" fill="#FE5723"/>
<path d="M0.620117 65.547C0.620117 65.8358 0.734858 66.1128 0.939098 66.3171C1.14334 66.5213 1.42035 66.636 1.70919 66.636H12.2005C12.4894 66.636 12.7664 66.5213 12.9706 66.3171C13.1749 66.1128 13.2896 65.8358 13.2896 65.547V55.0556C13.2896 54.7668 13.1749 54.4898 12.9706 54.2855C12.7664 54.0813 12.4894 53.9666 12.2005 53.9666H1.70919C1.42093 53.9685 1.14503 54.0838 0.9412 54.2876C0.737371 54.4915 0.62202 54.7674 0.620117 55.0556V65.547ZM2.79825 56.1084H11.1115V64.4579H2.79825V56.1084Z" fill="white"/>
<path d="M30.3517 66.636C30.6405 66.636 30.9175 66.5212 31.1218 66.317C31.326 66.1128 31.4407 65.8358 31.4407 65.5469V47.2941C31.4407 47.0053 31.326 46.7283 31.1218 46.5241C30.9175 46.3198 30.6405 46.2051 30.3517 46.2051H19.8603C19.5715 46.2051 19.2945 46.3198 19.0902 46.5241C18.886 46.7283 18.7712 47.0053 18.7712 47.2941V65.5469C18.7712 65.8358 18.886 66.1128 19.0902 66.317C19.2945 66.5212 19.5715 66.636 19.8603 66.636H30.3517ZM20.9131 48.3832H29.2626V64.4579H20.9494L20.9131 48.3832Z" fill="white"/>
<path d="M48.1036 66.6361C48.2497 66.641 48.3952 66.6164 48.5315 66.5639C48.6679 66.5113 48.7923 66.4319 48.8973 66.3302C49.0023 66.2286 49.0858 66.1069 49.1428 65.9724C49.1997 65.8378 49.2291 65.6932 49.229 65.547V40.1355C49.229 39.8466 49.1142 39.5696 48.91 39.3654C48.7058 39.1611 48.4288 39.0464 48.1399 39.0464H37.6123C37.3234 39.0464 37.0464 39.1611 36.8422 39.3654C36.6379 39.5696 36.5232 39.8466 36.5232 40.1355V65.547C36.5232 65.8359 36.6379 66.1129 36.8422 66.3171C37.0464 66.5214 37.3234 66.6361 37.6123 66.6361H48.1036ZM38.665 41.2245H47.0508V64.458H38.7013L38.665 41.2245Z" fill="white"/>
<path d="M67.3801 65.547V32.875C67.3801 32.5861 67.2654 32.3091 67.0611 32.1049C66.8569 31.9006 66.5799 31.7859 66.291 31.7859H55.7634C55.4745 31.7859 55.1975 31.9006 54.9933 32.1049C54.7891 32.3091 54.6743 32.5861 54.6743 32.875V65.547C54.6743 65.8358 54.7891 66.1128 54.9933 66.3171C55.1975 66.5213 55.4745 66.6361 55.7634 66.6361H66.2547C66.4008 66.6409 66.5463 66.6164 66.6827 66.5638C66.819 66.5113 66.9434 66.4318 67.0484 66.3302C67.1534 66.2286 67.2369 66.1069 67.2939 65.9723C67.3509 65.8378 67.3802 65.6931 67.3801 65.547ZM65.202 64.4579H56.8525V33.964H65.202V64.4579Z" fill="white"/>
<path d="M62.2978 57.5967C62.5866 57.5967 62.8637 57.4819 63.0679 57.2777C63.2721 57.0734 63.3869 56.7964 63.3869 56.5076V41.5874C63.3869 41.2985 63.2721 41.0215 63.0679 40.8173C62.8637 40.613 62.5866 40.4983 62.2978 40.4983C62.009 40.4983 61.732 40.613 61.5277 40.8173C61.3235 41.0215 61.2087 41.2985 61.2087 41.5874V56.5076C61.2087 56.7964 61.3235 57.0734 61.5277 57.2777C61.732 57.4819 62.009 57.5967 62.2978 57.5967Z" fill="#FE5723"/>
</svg>
