<svg width="36" height="36" viewBox="0 0 36 36" fill="none" xmlns="http://www.w3.org/2000/svg">
<g opacity="0.6">
<path d="M14.1798 0.903809C11.4804 0.903809 8.84156 1.70428 6.59707 3.204C4.35258 4.70372 2.60321 6.83533 1.57019 9.32928C0.537164 11.8232 0.266877 14.5675 0.793509 17.215C1.32014 19.8626 2.62004 22.2945 4.52882 24.2033C6.4376 26.1121 8.86954 27.412 11.5171 27.9386C14.1647 28.4653 16.9089 28.195 19.4029 27.162C21.8968 26.1289 24.0284 24.3796 25.5281 22.1351C27.0279 19.8906 27.8283 17.2518 27.8283 14.5523C27.8243 10.9338 26.385 7.46459 23.8263 4.90587C21.2676 2.34715 17.7984 0.90788 14.1798 0.903809ZM14.6086 2.00657C17.7219 2.11093 20.6843 3.373 22.9164 5.54591C22.9041 5.63585 22.9146 5.72745 22.9471 5.81222C22.9839 5.92965 22.9983 6.05295 22.9895 6.17569C22.9734 6.53525 22.8418 6.88003 22.6142 7.15884C22.3866 7.43766 22.0751 7.63565 21.7261 7.72341C20.2814 8.13287 19.8245 8.91046 19.777 8.99777C19.7263 9.09145 19.704 9.19794 19.713 9.3041C19.722 9.41027 19.7619 9.51149 19.8277 9.5953C20.1029 9.96967 20.4875 10.2495 20.9284 10.3962C21.3693 10.5429 21.8448 10.5494 22.2895 10.4146C22.675 10.3086 23.0405 10.14 23.3714 9.91545C23.4369 9.90734 23.5028 9.9028 23.5688 9.90185C23.2964 10.3916 22.9378 10.828 22.5101 11.1901C21.918 11.6626 21.9963 13.1059 22.7427 15.4799C22.7598 15.5346 22.7855 15.5862 22.8188 15.6329C22.9114 15.7631 22.971 15.8919 22.7593 16.151C22.5568 16.3831 22.2762 16.5331 21.9707 16.5726C21.6651 16.6122 21.3556 16.5385 21.1007 16.3654C20.7238 16.1171 20.3236 15.8772 20.0789 15.7335C19.8758 14.4941 19.4213 14.1788 18.9329 13.9475C18.7255 13.8493 18.6698 13.8229 18.5917 13.5687C18.5365 13.3428 18.4315 13.1321 18.2844 12.9521C18.1373 12.772 17.9517 12.6272 17.7414 12.5281C17.525 12.4458 17.2944 12.4077 17.0631 12.4162C16.8318 12.4246 16.6046 12.4795 16.3949 12.5774C16.3761 12.5864 16.3579 12.5965 16.3404 12.6076C15.6314 13.055 15.0195 13.2006 14.5225 13.0406C14.0824 12.8637 13.7294 12.521 13.5395 12.0864C13.2841 11.3116 13.3181 10.6814 13.6431 10.1602C14.3519 9.02349 16.2152 8.76264 16.2329 8.76024C16.3141 8.74849 16.3916 8.71869 16.4598 8.67305C16.528 8.6274 16.585 8.56706 16.6268 8.49647C16.7019 8.3702 16.724 8.21939 16.6884 8.07688C16.9375 7.81418 18.1688 7.49216 19.3613 7.38526C19.4987 7.37294 19.6263 7.3091 19.7185 7.20657C19.8107 7.10404 19.8607 6.97041 19.8585 6.83252C19.8228 4.64821 17.5894 4.0319 16.4135 4.01125L16.4038 4.01111C16.2869 4.01115 16.173 4.04875 16.0791 4.11836C15.9851 4.18797 15.9159 4.28592 15.8818 4.39777C15.8477 4.50963 15.8504 4.62949 15.8895 4.7397C15.9286 4.84992 16.0021 4.94465 16.0991 5.00996C16.1083 5.10782 16.0912 5.20635 16.0494 5.29533C16.0209 5.36628 15.9778 5.43042 15.9228 5.48353C15.8888 5.47127 15.8578 5.45212 15.8316 5.42728C15.3968 5.06341 14.6078 4.85642 13.3194 5.93657C13.2779 5.97153 13.2294 5.99733 13.1772 6.01229C13.125 6.02724 13.0702 6.031 13.0165 6.02334C12.9568 6.01393 12.8999 5.99155 12.8498 5.95777C12.7997 5.92398 12.7577 5.87962 12.7266 5.82781C12.7002 5.78825 12.6819 5.74388 12.6726 5.69724C12.6634 5.65059 12.6635 5.60259 12.6728 5.55597C12.6822 5.50935 12.7006 5.46503 12.7271 5.42554C12.7536 5.38605 12.7876 5.35218 12.8272 5.32585C14.8948 3.89138 14.7479 2.50121 14.6086 2.00657ZM8.94203 25.5777C8.84941 25.6513 8.74088 25.7023 8.62508 25.7266C8.58404 25.7289 8.54341 25.7359 8.50395 25.7474C6.10493 24.5246 4.15921 22.5674 2.95044 20.1613C3.50638 19.9476 4.32234 19.3385 4.65074 17.6037C4.66455 17.5319 4.70578 17.4683 4.76567 17.4265C4.82556 17.3846 4.89942 17.3677 4.97156 17.3794C5.01002 17.3858 5.04668 17.4003 5.07917 17.4219C5.11166 17.4434 5.13925 17.4716 5.16016 17.5045C5.18106 17.5374 5.1948 17.5744 5.2005 17.613C5.20619 17.6515 5.20371 17.6909 5.19321 17.7284C4.77923 19.1942 5.25399 19.7745 5.72516 20.0034C5.73569 20.0084 5.74449 20.0132 5.75169 20.0175C5.69997 20.1122 5.6206 20.189 5.52416 20.2374C5.42308 20.1822 5.30712 20.1604 5.19288 20.1751C5.07864 20.1897 4.97197 20.2402 4.88813 20.3192C4.80429 20.3981 4.74757 20.5016 4.7261 20.6148C4.70462 20.7279 4.71949 20.845 4.76856 20.9492C5.21867 21.9047 6.5482 23.5053 8.35864 22.7271C8.48538 22.6726 8.58679 22.5721 8.64248 22.4459C8.69816 22.3196 8.70399 22.177 8.6588 22.0466C8.33611 21.1158 8.14951 20.0661 8.23921 19.7339C8.31151 19.7165 8.3795 19.6845 8.43901 19.64C8.49853 19.5954 8.54831 19.5391 8.58531 19.4746C8.62231 19.4102 8.64576 19.3388 8.6542 19.2649C8.66264 19.191 8.6559 19.1162 8.6344 19.045C8.62974 19.0294 8.18269 17.4661 8.81327 16.5218C9.10464 16.0857 9.58793 15.8394 10.264 15.7711C10.6612 15.7656 11.0449 15.9154 11.3333 16.1886C11.6308 16.5142 11.7305 17.0408 11.6296 17.754C11.6267 17.7746 11.625 17.7953 11.6244 17.8161C11.6215 18.0291 11.6614 18.2404 11.7417 18.4376C11.8221 18.6348 11.9412 18.8139 12.0921 18.9641C12.2546 19.1032 12.446 19.2044 12.6524 19.2603C12.8588 19.3163 13.0751 19.3255 13.2856 19.2874C13.3532 19.2683 13.425 19.2697 13.4919 19.2914C13.5588 19.313 13.6177 19.354 13.6613 19.4092C14.0335 19.7263 14.4606 19.9852 15.5365 19.7056C15.7413 19.8506 16.0625 20.0735 16.383 20.2774C16.6012 20.4105 16.7632 20.6188 16.8384 20.8631C16.9137 21.1073 16.8969 21.3707 16.7914 21.6035C16.6882 21.8102 16.604 21.8113 16.5586 21.8118L16.4935 21.8126C16.3048 21.8107 16.1161 21.8219 15.9289 21.8462C12.9545 22.2862 12.7953 22.9069 12.7188 23.205C12.5962 23.6263 12.4087 24.0258 12.1632 24.3894C12.1549 24.3272 12.1545 24.2641 12.1621 24.2018C12.3204 22.8502 11.7188 21.8707 10.5527 21.5815C10.4493 21.5559 10.3406 21.5611 10.2402 21.5965C10.1397 21.6318 10.0517 21.6958 9.98713 21.7805C9.93235 21.8522 9.45878 22.5194 9.65525 23.8523C9.71168 24.1779 9.67463 24.5128 9.54839 24.8182C9.42215 25.1236 9.2119 25.387 8.94203 25.5777ZM26.7365 14.5523C26.737 16.5811 26.2459 18.5797 25.3051 20.3771C24.3643 22.1745 23.0019 23.7171 21.3346 24.8728C19.6673 26.0285 17.7447 26.7629 15.7315 27.0132C13.7182 27.2634 11.6743 27.0219 9.77484 26.3095C10.1446 25.9913 10.4269 25.584 10.595 25.1261C10.7631 24.6682 10.8114 24.1749 10.7354 23.6931C10.6893 23.4138 10.6866 23.129 10.7273 22.8489C11.0272 23.0913 11.1449 23.5016 11.0777 24.0749C11.0323 24.4223 11.0957 24.7752 11.2592 25.085C11.3344 25.2638 11.4646 25.4138 11.6311 25.5133C11.7975 25.6128 11.9913 25.6566 12.1844 25.6382C13.0852 25.527 13.6429 23.906 13.7554 23.5465C13.9317 23.404 14.6647 23.1369 16.0887 22.9263C16.2271 22.9099 16.3663 22.9026 16.5056 22.9045L16.5732 22.9037C16.8294 22.8971 17.0782 22.8169 17.2901 22.6729C17.502 22.5288 17.6681 22.3268 17.7684 22.091C17.9981 21.6172 18.0435 21.0749 17.8958 20.5694C17.7481 20.064 17.4177 19.6315 16.9689 19.356C16.4788 19.0443 15.9674 18.6711 15.9624 18.6674C15.8935 18.6172 15.8139 18.5837 15.7298 18.5697C15.6457 18.5558 15.5595 18.5616 15.4781 18.5869C14.6735 18.8368 14.5394 18.7227 14.3698 18.5784C14.2109 18.4236 14.0173 18.3089 13.8052 18.2438C13.5931 18.1787 13.3686 18.1651 13.1501 18.204C13.0403 18.2277 12.9256 18.2109 12.8272 18.1565C12.7592 18.0737 12.7204 17.9707 12.7167 17.8636C12.8541 16.833 12.6599 16.0218 12.1394 15.452C11.8833 15.1966 11.5774 14.9964 11.2407 14.8641C10.9041 14.7317 10.5438 14.6699 10.1823 14.6826C9.14862 14.786 8.38249 15.2008 7.90532 15.9155C7.23582 16.9179 7.35725 18.2328 7.48467 18.9127C7.43598 18.9598 7.39237 19.0119 7.35459 19.0681C6.93513 19.69 7.19291 20.965 7.44549 21.8341C7.19376 21.8171 6.94894 21.7445 6.72867 21.6215C6.50839 21.4985 6.31816 21.3281 6.17167 21.1227C6.36971 21.0017 6.5353 20.8342 6.65411 20.6348C6.77291 20.4354 6.84137 20.2101 6.85355 19.9783C6.84882 19.7729 6.7848 19.5733 6.66921 19.4034C6.55362 19.2336 6.39138 19.1008 6.20204 19.021C6.13607 18.989 6.05516 18.6938 6.24403 18.025C6.29412 17.8468 6.30761 17.6604 6.28369 17.4769C6.25977 17.2934 6.19894 17.1166 6.10485 16.9572C6.01077 16.7979 5.88538 16.6592 5.73626 16.5496C5.58714 16.44 5.41737 16.3618 5.23718 16.3196C5.057 16.2774 4.87013 16.2721 4.68785 16.3041C4.50558 16.3361 4.33166 16.4046 4.1766 16.5056C4.02154 16.6066 3.88854 16.738 3.78562 16.8918C3.6827 17.0456 3.61199 17.2187 3.57777 17.4005C3.31488 18.79 2.73774 19.0972 2.50477 19.1652C1.7719 17.3147 1.48971 15.3165 1.68153 13.3354C1.87334 11.3544 2.53365 9.44737 3.60793 7.77188C4.68221 6.09639 6.13965 4.70048 7.85988 3.69942C9.58012 2.69836 11.5138 2.12087 13.5013 2.01462C13.495 2.10563 13.5123 2.19672 13.5516 2.27906C13.5673 2.31771 13.9186 3.23964 12.2048 4.42884C11.8884 4.65065 11.6722 4.98823 11.6031 5.36838C11.534 5.74854 11.6175 6.14061 11.8356 6.45958C11.9513 6.63268 12.1022 6.77949 12.2784 6.89045C12.4546 7.00141 12.6522 7.07405 12.8584 7.10364C13.0645 7.13324 13.2745 7.11912 13.4749 7.06221C13.6752 7.00531 13.8613 6.90688 14.0211 6.77334C14.6102 6.27925 15.0087 6.16302 15.1313 6.26485C15.2919 6.41474 15.4922 6.51509 15.7084 6.55385C15.9246 6.5926 16.1474 6.5681 16.35 6.48331C16.5856 6.35991 16.786 6.17862 16.9323 5.95646C17.0787 5.7343 17.1661 5.47859 17.1863 5.21335C17.7527 5.35184 18.4532 5.66294 18.687 6.36295C17.7332 6.49237 16.183 6.81026 15.7334 7.53587C15.6884 7.60799 15.6527 7.68551 15.6272 7.76659C14.8845 7.94106 13.4469 8.41636 12.7195 9.57769C12.2132 10.3863 12.1428 11.3532 12.5195 12.4769C12.6725 12.8415 12.8981 13.1712 13.1824 13.446C13.4668 13.7208 13.804 13.9349 14.1737 14.0753C14.9863 14.3429 15.8985 14.1675 16.8857 13.5544C17.0191 13.4977 17.168 13.4891 17.3071 13.53C17.3698 13.5702 17.4235 13.6228 17.465 13.6846C17.5064 13.7465 17.5347 13.8162 17.5481 13.8894C17.607 14.1239 17.721 14.341 17.8806 14.5228C18.0401 14.7045 18.2407 14.8456 18.4656 14.9343C18.7157 15.0527 18.9131 15.1461 19.0338 16.1389C19.0442 16.2235 19.0741 16.3045 19.1214 16.3754C19.1686 16.4463 19.2318 16.5052 19.3059 16.5474C19.3121 16.551 19.9446 16.9114 20.5001 17.2774C20.8907 17.534 21.348 17.6703 21.8153 17.6695C22.1562 17.6726 22.4936 17.5999 22.803 17.4568C23.1125 17.3137 23.3863 17.1037 23.6048 16.8419C23.8242 16.6077 23.9589 16.3067 23.9872 15.987C24.0155 15.6673 23.9359 15.3473 23.7611 15.0782C23.3504 13.749 23.1104 12.349 23.2338 12.0066C23.5143 11.7608 25.0605 10.3402 24.6307 9.36896C24.4209 8.895 23.8973 8.72172 23.0752 8.85461C22.9846 8.86964 22.8992 8.90692 22.8265 8.9631C22.7101 9.05281 21.7947 9.72497 21.0278 9.23701C21.3288 9.02316 21.6664 8.86623 22.0238 8.77397C22.5051 8.64492 22.9431 8.3893 23.2921 8.03367C23.6412 7.67805 23.8886 7.23541 24.0086 6.75178C25.7765 8.96722 26.7385 11.718 26.7365 14.5523Z" fill="#FE5723"/>
<path d="M34.9254 18.3741H32.4686C32.3239 18.3741 32.185 18.4316 32.0826 18.534C31.9802 18.6364 31.9227 18.7752 31.9227 18.92V34.7523H30.8308V21.9227C30.8306 21.7867 30.7793 21.6557 30.6873 21.5555C30.5952 21.4554 30.469 21.3934 30.3335 21.3817C30.1527 21.8077 29.9517 22.2228 29.7389 22.6308V34.7523H28.3741V24.8357C28.0322 25.3064 27.6682 25.7591 27.2822 26.1936V34.7523H25.9173V27.5714C25.5664 27.8881 25.2012 28.1891 24.8255 28.4771V34.7523H23.4606V29.424C23.1048 29.6468 22.7409 29.8572 22.3687 30.055V34.7523H21.2768V30.585C20.9183 30.7443 20.5556 30.8958 20.185 31.0313V34.7523H18.8201V31.463C18.4601 31.562 18.0971 31.6535 17.7282 31.7296V34.7523H15.8174C15.6726 34.7523 15.5338 34.8099 15.4314 34.9122C15.329 35.0146 15.2715 35.1535 15.2715 35.2983C15.2715 35.4431 15.329 35.5819 15.4314 35.6843C15.5338 35.7867 15.6726 35.8442 15.8174 35.8442H34.9254C35.0702 35.8442 35.209 35.7867 35.3114 35.6843C35.4138 35.5819 35.4713 35.4431 35.4713 35.2983V18.92C35.4713 18.7752 35.4138 18.6364 35.3114 18.534C35.209 18.4316 35.0702 18.3741 34.9254 18.3741ZM34.3794 34.7523H33.0146V19.466H34.3794V34.7523Z" fill="white"/>
<path d="M30.6262 14.5523C30.6262 14.4075 30.5687 14.2686 30.4663 14.1662C30.3639 14.0639 30.2251 14.0063 30.0803 14.0063C29.9355 14.0063 29.7966 14.0639 29.6942 14.1662C29.5919 14.2686 29.5343 14.4075 29.5343 14.5523C29.5297 18.6232 27.9105 22.526 25.032 25.4045C22.1534 28.2831 18.2506 29.9023 14.1797 29.9069C14.0349 29.9069 13.8961 29.9644 13.7937 30.0668C13.6913 30.1692 13.6338 30.308 13.6338 30.4528C13.6338 30.5976 13.6913 30.7365 13.7937 30.8389C13.8961 30.9413 14.0349 30.9988 14.1797 30.9988C18.5401 30.9939 22.7205 29.2595 25.8037 26.1763C28.887 23.093 30.6213 18.9127 30.6262 14.5523Z" fill="white"/>
</g>
</svg>
