<svg width="67" height="68" viewBox="0 0 67 68" fill="none" xmlns="http://www.w3.org/2000/svg">
<path d="M51.1048 26.8809C51.2848 27.3307 51.7871 27.5557 52.2445 27.3757C52.6943 27.1958 52.9193 26.6934 52.7393 26.2361C51.2398 22.4122 48.653 19.1507 45.2716 16.7964C41.8076 14.3896 37.7363 13.115 33.5001 13.115C29.2639 13.115 25.1926 14.3896 21.7286 16.7964C18.3396 19.1507 15.7604 22.4122 14.2608 26.2361C14.0809 26.6859 14.3058 27.1958 14.7557 27.3757C14.8607 27.4132 14.9731 27.4357 15.0781 27.4357C15.4305 27.4357 15.7604 27.2258 15.8954 26.8809C18.7595 19.5856 25.6724 14.877 33.5076 14.877C41.3427 14.877 48.2557 19.5931 51.1123 26.8809H51.1048Z" fill="#FE5723"/>
<path d="M28.6116 26.1386C28.1918 26.3785 28.0493 26.9184 28.2892 27.3382L29.7738 29.91C29.9387 30.1949 30.2311 30.3523 30.5311 30.3523C30.681 30.3523 30.831 30.3148 30.9659 30.2324C31.3858 29.9924 31.5283 29.4526 31.2883 29.0327L29.8038 26.461C29.5638 26.0411 29.024 25.8987 28.6041 26.1386H28.6116Z" fill="#FE5723"/>
<path d="M64.3234 25.7037H60.717C60.1546 23.8142 59.3974 21.9848 58.4526 20.2453L61.0019 17.6961C61.4817 17.2162 61.7517 16.5714 61.7517 15.8891C61.7517 15.2068 61.4892 14.562 61.0019 14.0822L53.1967 6.27699C52.1995 5.27979 50.58 5.27979 49.5828 6.27699L47.0336 8.83372C45.2941 7.88901 43.4646 7.13174 41.5752 6.5694V2.96298C41.5752 1.55341 40.428 0.40625 39.0185 0.40625H27.9743C26.5647 0.40625 25.4175 1.55341 25.4175 2.96298V6.5694C23.5281 7.13174 21.6987 7.88901 19.9592 8.83372L17.4024 6.27699C16.4052 5.27979 14.7857 5.27979 13.7885 6.27699L5.98336 14.0822C5.5035 14.562 5.23359 15.2068 5.23359 15.8891C5.23359 16.5714 5.49601 17.2162 5.98336 17.6961L8.5326 20.2453C7.58788 21.9848 6.83061 23.8142 6.26828 25.6962H2.67685C1.26727 25.6962 0.120117 26.8433 0.120117 28.2529V33.7713C0.120117 34.2586 0.51 34.6485 0.997354 34.6485C1.48471 34.6485 1.87459 34.2586 1.87459 33.7713V28.2529C1.87459 27.8105 2.23448 27.4506 2.67685 27.4506H6.95057C7.34795 27.4506 7.69285 27.1882 7.79782 26.8058C8.39014 24.6165 9.26738 22.5021 10.3995 20.5302C10.5945 20.1853 10.542 19.7505 10.2571 19.473L7.23549 16.4514C7.08553 16.3015 7.00306 16.099 7.00306 15.8816C7.00306 15.6642 7.08553 15.4617 7.23549 15.3118L15.0406 7.50662C15.1906 7.35667 15.393 7.27419 15.6105 7.27419C15.8279 7.27419 16.0304 7.35667 16.1803 7.50662L19.2019 10.5282C19.4793 10.8056 19.9142 10.8656 20.2591 10.6707C22.231 9.53851 24.3454 8.66128 26.5347 8.06895C26.9171 7.96399 27.1795 7.61909 27.1795 7.22171V2.96298C27.1795 2.52062 27.5394 2.16072 27.9818 2.16072H39.026C39.4683 2.16072 39.8282 2.52062 39.8282 2.96298V7.2367C39.8282 7.63408 40.0906 7.97898 40.473 8.08395C42.6624 8.67627 44.7692 9.55351 46.7486 10.6857C47.0935 10.8806 47.5284 10.8281 47.8058 10.5432L50.8274 7.52162C51.1423 7.20671 51.6522 7.20671 51.9671 7.52162L59.7722 15.3268C59.9222 15.4767 60.0047 15.6792 60.0047 15.8966C60.0047 16.114 59.9222 16.3165 59.7722 16.4664L56.7507 19.488C56.4732 19.7655 56.4133 20.2003 56.6082 20.5452C57.7404 22.5171 58.6176 24.6315 59.2099 26.8208C59.3149 27.2032 59.6598 27.4656 60.0572 27.4656H64.3234C64.7658 27.4656 65.1256 27.8255 65.1256 28.2679V33.7863C65.1256 34.2736 65.5155 34.6635 66.0029 34.6635C66.4902 34.6635 66.8801 34.2736 66.8801 33.7863V28.2679C66.8801 26.8583 65.733 25.7112 64.3234 25.7112V25.7037Z" fill="#FE5723"/>
<path d="M54.9284 29.0101C54.816 28.8076 54.621 28.6652 54.3961 28.6052C54.1712 28.5452 53.9312 28.5752 53.7288 28.6952L46.6884 32.7739L37.5636 31.9942C37.3012 31.9717 37.0463 32.0691 36.8588 32.2566L34.3171 34.8733L30.6732 31.5968C30.4783 31.4243 30.2233 31.3419 29.9609 31.3794L20.2813 32.7589L13.2634 28.6952C12.8435 28.4552 12.3112 28.5977 12.0638 29.0176L3.15644 44.3805C3.04397 44.5829 3.00648 44.8228 3.06646 45.0478C3.12644 45.2727 3.2764 45.4676 3.47134 45.5801L10.6092 49.7189L13.7283 53.6402C13.5483 54.6749 13.8107 55.777 14.5305 56.6468C15.4752 57.7715 16.9448 58.1988 18.2794 57.8614C18.2944 58.6787 18.5793 59.4884 19.1416 60.1632C19.7715 60.9205 20.6637 61.3854 21.6534 61.4753C22.3957 61.5428 23.123 61.3929 23.7528 61.0405C23.8352 61.7303 24.1127 62.4051 24.585 62.9824C25.8446 64.4894 28.064 64.7444 29.6235 63.5897C29.721 64.287 30.0134 64.9693 30.5157 65.5391C31.273 66.3939 32.3452 66.8212 33.4024 66.7837C33.4099 66.7912 33.4174 66.7987 33.4249 66.8062C34.1222 67.5035 35.0519 67.8859 36.0416 67.8859C37.0313 67.8859 37.961 67.496 38.6583 66.7987C39.3031 66.1539 39.663 65.3292 39.7305 64.4819C41.0576 64.8793 42.5646 64.5119 43.5468 63.4173C44.0492 62.8549 44.3641 62.1651 44.4616 61.4304C45.0239 61.7078 45.6462 61.8352 46.2835 61.7977C47.2732 61.7453 48.1805 61.3179 48.8403 60.5831C49.3576 60.0058 49.665 59.316 49.755 58.5962C51.202 59.3085 53.009 59.0086 54.1412 57.749C54.801 57.0142 55.1384 56.0695 55.0859 55.0798C55.0484 54.3375 54.7935 53.6477 54.3661 53.0704L56.3905 49.6814L63.4759 45.5801C63.8957 45.3402 64.0382 44.8003 63.7908 44.3805L54.8834 29.0101H54.9284ZM5.12085 44.5004L13.1509 30.6521L18.9092 33.9886L10.8791 47.8369L5.12085 44.5004ZM19.6065 54.9598L18.6393 55.7695C17.8145 56.4593 16.5774 56.3469 15.8951 55.5221C15.4677 55.0123 15.3478 54.3375 15.5127 53.7377C15.5277 53.7077 15.5352 53.6702 15.5427 53.6402C15.6552 53.3103 15.8501 53.0104 16.135 52.7704L19.9364 49.5989C20.7612 48.9091 21.9983 49.0216 22.6881 49.8463C23.3779 50.6711 23.2654 51.9082 22.4407 52.5905L19.629 54.9373C19.629 54.9373 19.614 54.9448 19.614 54.9523L19.6065 54.9598ZM25.0124 57.8164C25.0124 57.8164 24.9899 57.8314 24.9824 57.8389L23.2504 59.286C22.853 59.6159 22.3507 59.7733 21.8258 59.7284C21.3085 59.6834 20.8361 59.4359 20.5062 59.0386C19.8164 58.2138 19.9289 56.9917 20.7387 56.3019L20.9036 56.1669C20.9036 56.1669 20.9036 56.1669 20.9111 56.1594L24.5475 53.1228C25.3723 52.433 26.6094 52.5455 27.2917 53.3703C27.9815 54.195 27.869 55.4247 27.0518 56.1144L25.0724 57.7715C25.0724 57.7715 25.0349 57.8089 25.0124 57.8239V57.8164ZM28.6938 62.1051C27.869 62.7949 26.6319 62.6825 25.9496 61.8577C25.2598 61.033 25.3723 59.8033 26.197 59.1135L28.1689 57.464C28.1689 57.464 28.1689 57.464 28.1764 57.464L29.9909 55.9495C30.8156 55.2597 32.0528 55.3722 32.7426 56.1969C33.2824 56.8492 33.3499 57.7714 32.8925 58.4912C32.87 58.5212 32.855 58.5512 32.8325 58.5812L31.1231 60.0883L28.6938 62.1126V62.1051ZM31.8428 64.377C31.1306 63.5672 31.2055 62.3376 32.0153 61.6253L32.2702 61.4004L34.0397 59.8408C34.0397 59.8408 34.0547 59.8258 34.0622 59.8183L34.6995 59.256C35.5092 58.5437 36.7389 58.6187 37.4512 59.4285C38.1634 60.2382 38.0885 61.4678 37.2787 62.1801L34.587 64.5569C33.7848 65.2692 32.5476 65.1942 31.8353 64.3845L31.8428 64.377ZM37.4437 65.5616C37.0763 65.929 36.5889 66.1314 36.0641 66.1314C35.8766 66.1314 35.6892 66.1089 35.5167 66.0565C35.5992 65.9965 35.6817 65.929 35.7642 65.854L37.991 63.8896C38.081 64.4894 37.8935 65.1192 37.4512 65.5616H37.4437ZM52.874 56.5793C52.1543 57.3816 50.9171 57.4415 50.1224 56.7218L48.7053 55.4471C48.7053 55.4471 48.6378 55.3797 48.6003 55.3497C48.5853 55.3347 48.5628 55.3197 48.5478 55.3047L46.441 53.4078C46.0811 53.0854 45.5262 53.1153 45.2038 53.4752C44.8814 53.8351 44.9114 54.39 45.2713 54.7124L47.5056 56.7218C48.2329 57.449 48.2704 58.6337 47.5731 59.406C47.2282 59.7883 46.7484 60.0208 46.2235 60.0433C45.6987 60.0733 45.2038 59.8933 44.814 59.5484L43.3969 58.2738C43.3969 58.2738 43.3294 58.2063 43.2919 58.1763C43.2769 58.1613 43.2544 58.1463 43.2394 58.1313L41.1326 56.2344C40.7727 55.912 40.2178 55.942 39.8954 56.3019C39.573 56.6618 39.603 57.2166 39.9629 57.539L42.1972 59.5484C42.5346 59.8858 42.7371 60.3357 42.7596 60.823C42.7896 61.3479 42.6096 61.8427 42.2647 62.2326C41.5449 63.0349 40.3078 63.0949 39.513 62.3751C39.4606 62.3301 39.4081 62.2926 39.3481 62.2551C39.9554 60.958 39.7755 59.3685 38.7708 58.2363C37.7811 57.1191 36.274 56.7443 34.9319 57.1416C34.8794 56.3919 34.587 55.6571 34.0772 55.0423C32.93 53.6627 30.9806 53.3328 29.4661 54.165C29.3836 53.4752 29.1062 52.8004 28.6338 52.2231C27.6891 51.0984 26.2195 50.6711 24.8849 51.0085C24.8699 50.1912 24.585 49.3815 24.0227 48.7067C22.7106 47.1396 20.3713 46.9297 18.8042 48.2418L15.0029 51.4134C14.8379 51.5483 14.6955 51.6983 14.5605 51.8557L12.2512 48.9541L20.6412 34.4759L29.796 33.1713L33.08 36.1329L27.2317 42.1536C27.0593 42.3261 26.9693 42.566 26.9843 42.8134C26.9993 43.0609 27.1118 43.2858 27.2992 43.4432L29.3086 45.1227C30.8606 46.4124 32.915 46.6148 34.677 45.6401L40.2178 42.5735L49.0502 50.5211L52.7091 53.8201C52.7091 53.8201 52.7241 53.8351 52.7316 53.8426C53.114 54.1875 53.3314 54.6674 53.3614 55.1847C53.3914 55.7096 53.2114 56.2119 52.8665 56.5943L52.874 56.5793ZM53.114 51.8107L50.2273 49.2165L40.9376 40.849C40.6602 40.6016 40.2553 40.5491 39.9254 40.7366L33.8372 44.103C32.7201 44.7179 31.4155 44.5979 30.4408 43.7806L29.1586 42.7085L34.9844 36.7178L37.826 33.7936L46.3585 34.5209L54.7785 49.0441L53.114 51.8182V51.8107ZM56.1131 47.8444L48.083 33.9961L53.8413 30.6596L61.8713 44.5079L56.1131 47.8444Z" fill="white"/>
<path d="M33.4775 25.4788V28.4554C33.4775 28.9428 33.8674 29.3326 34.3548 29.3326C34.8421 29.3326 35.232 28.9428 35.232 28.4554V25.4788C35.232 24.9914 34.8421 24.6016 34.3548 24.6016C33.8674 24.6016 33.4775 24.9914 33.4775 25.4788Z" fill="#FE5723"/>
<path d="M38.8983 26.461L37.4137 29.0327C37.1738 29.4526 37.3163 29.9849 37.7361 30.2324C37.8711 30.3148 38.0286 30.3523 38.171 30.3523C38.4709 30.3523 38.7708 30.1949 38.9283 29.91L40.4128 27.3382C40.6528 26.9184 40.5103 26.386 40.0904 26.1386C39.6706 25.8987 39.1382 26.0411 38.8908 26.461H38.8983Z" fill="#FE5723"/>
</svg>
