<svg width="36" height="36" viewBox="0 0 36 36" fill="none" xmlns="http://www.w3.org/2000/svg">
<g opacity="0.6">
<g clip-path="url(#clip0_104_1988)">
<path d="M3.54542 17.5526C4.27879 17.5526 4.87746 16.9539 4.87746 16.2205V14.4919C4.87746 14.1252 4.72779 13.7959 4.48832 13.5564C4.19647 13.2646 3.87468 13.1673 3.45561 13.1673C5.00468 8.16839 9.06068 4.2845 14.1269 2.96742L13.7827 3.28173C13.3337 3.67835 13.9399 4.35185 14.3814 3.95523L15.9454 2.54835C16.2148 2.30888 16.1175 1.88233 15.7883 1.77756L13.7902 1.11902C13.2289 0.931939 12.9446 1.80001 13.5133 1.97961L13.865 2.09187C8.40963 3.5212 4.07674 7.74932 2.50522 13.1598H1.82423C1.09086 13.1598 0.492188 13.7585 0.492188 14.4919V16.2205C0.492188 16.9539 1.09086 17.5526 1.82423 17.5526H3.54542ZM1.40516 16.228V14.4993C1.40516 14.2674 1.59225 14.0803 1.82423 14.0803H3.5529C3.78488 14.0803 3.97945 14.2674 3.97945 14.4993V16.228C3.97945 16.46 3.78488 16.6546 3.5529 16.6546H1.82423C1.59225 16.6546 1.40516 16.46 1.40516 16.228Z" fill="white"/>
<path d="M19.3955 4.57631H21.1242C21.4909 4.57631 21.8201 4.42665 22.0596 4.18718C22.3515 3.89532 22.4487 3.57354 22.4487 3.15447C27.4551 4.70353 31.339 8.75953 32.6561 13.8333L32.3418 13.4816C31.9452 13.0326 31.2717 13.6387 31.6683 14.0802L33.0752 15.6443C33.3072 15.9137 33.7337 15.8164 33.8385 15.4871L34.497 13.489C34.6841 12.9278 33.8235 12.6434 33.6364 13.2122L33.5242 13.5639C32.0949 8.10848 27.8667 3.77559 22.4562 2.20407V1.52309C22.4562 0.789712 21.8576 0.19104 21.1242 0.19104H19.3955C18.6621 0.19104 18.0635 0.789712 18.0635 1.52309V3.24427C18.0635 3.97764 18.6621 4.57631 19.3955 4.57631ZM18.969 1.52309C18.969 1.2911 19.1561 1.10401 19.388 1.10401H21.1167C21.3487 1.10401 21.5358 1.2911 21.5433 1.52309V3.25175C21.5433 3.48374 21.3487 3.6783 21.1167 3.6783H19.388C19.1561 3.6783 18.969 3.48374 18.969 3.25175V1.52309Z" fill="white"/>
<path d="M34.1 17.7621H32.3714C31.638 17.7621 31.0393 18.3608 31.0393 19.0941V20.8228C31.0393 21.1895 31.189 21.5188 31.4284 21.7582C31.7278 22.0501 32.0496 22.1474 32.4686 22.1474C30.9196 27.1538 26.8636 31.0376 21.7898 32.3547L22.1341 32.0404C22.5831 31.6438 21.9769 30.9703 21.5354 31.3669L19.9788 32.7738C19.7169 33.0058 19.8067 33.4323 20.136 33.5371L22.1341 34.1956C22.6953 34.3827 22.9797 33.5221 22.4109 33.335L22.0592 33.2228C27.5146 31.7935 31.8475 27.5728 33.419 22.1548H34.1C34.8334 22.1548 35.4321 21.5562 35.4321 20.8228V19.0941C35.4321 18.3608 34.8334 17.7621 34.1 17.7621ZM34.5116 20.8153C34.5116 21.0473 34.3245 21.2344 34.085 21.2419H32.3564C32.1244 21.2419 31.9373 21.0473 31.9373 20.8153V19.0866C31.9373 18.8547 32.1244 18.6676 32.3564 18.6676H34.085C34.317 18.6676 34.5116 18.8547 34.5116 19.0866V20.8153Z" fill="white"/>
<path d="M19.9491 15.6144L16.9183 18.6451L16.0278 17.0961C15.7359 16.5797 14.9501 17.0287 15.2495 17.5451L16.4319 19.6105C16.5815 19.8649 16.9332 19.9098 17.1428 19.7003L20.5926 16.2504C21.0117 15.8314 20.3681 15.1953 19.9491 15.6144Z" fill="#FE5723"/>
<path d="M20.3237 26.4578C21.0945 26.2483 21.8278 25.9414 22.5088 25.5448C22.6585 25.455 22.8381 25.4775 22.9653 25.6047L23.3769 26.0163C23.8633 26.5326 24.7015 26.5476 25.2178 26.0387L26.3328 24.9237C26.8267 24.4448 26.8342 23.6066 26.3328 23.1052L25.8988 22.6712C25.7716 22.544 25.7491 22.3644 25.8389 22.2072C26.2356 21.5262 26.5424 20.7854 26.7444 20.0221C26.7893 19.85 26.9315 19.7377 27.1111 19.7377H27.7248C28.4357 19.7377 29.0119 19.154 29.0119 18.4506V16.879C29.0119 16.5198 28.8697 16.1981 28.6377 15.9661C27.8744 15.2028 26.9165 15.9436 26.7444 15.3075C26.5424 14.5367 26.2356 13.8034 25.8389 13.1149C25.7566 12.9727 25.7716 12.7856 25.8838 12.6734L26.3328 12.2244C26.8342 11.723 26.8342 10.8998 26.3328 10.3984L25.2178 9.29087C24.7164 8.78949 23.9007 8.78949 23.3993 9.29087L22.9878 9.70246C22.8456 9.82968 22.6884 9.89703 22.5013 9.78478C21.8204 9.38816 21.087 9.08134 20.3162 8.87929C20.1441 8.83439 20.0318 8.6922 20.0318 8.5126V7.89896C20.0318 7.18804 19.4556 6.61182 18.7447 6.61182H17.1732C16.4622 6.61182 15.886 7.18804 15.886 7.90644V8.52008C15.886 8.69969 15.7812 8.84187 15.6091 8.88677C14.8383 9.08882 14.105 9.39564 13.4165 9.79226C13.2668 9.88206 13.0872 9.85961 12.96 9.73239L12.5484 9.32829C12.077 8.81942 11.2912 8.782 10.7374 9.27591L9.59996 10.4134C9.353 10.6529 9.22579 11.0046 9.22579 11.3264C9.22579 11.9624 9.62241 12.2543 10.034 12.6659C10.1612 12.7931 10.1837 12.9652 10.0939 13.1224C9.70472 13.8034 9.39042 14.5517 9.18837 15.315C9.14347 15.4871 9.00128 15.5919 8.82168 15.5919H8.20804C7.49712 15.5919 6.9209 16.1681 6.9209 16.879V18.4506C6.9209 18.8098 7.07057 19.1315 7.30255 19.3635C8.05838 20.1194 9.01625 19.386 9.18837 20.0221C9.39042 20.7854 9.69724 21.5262 10.0939 22.2072C10.1837 22.3644 10.1612 22.5365 10.034 22.6637L9.59996 23.0977C9.09857 23.5991 9.09857 24.4148 9.59996 24.9162L10.7075 26.0312C10.9619 26.2782 11.2912 26.4054 11.6205 26.4054C12.264 26.4054 12.5559 26.0163 12.9675 25.5972C13.0947 25.47 13.2668 25.4475 13.424 25.5373C14.1124 25.9414 14.8458 26.2483 15.6166 26.4503C15.7887 26.4952 15.8935 26.6374 15.8935 26.817V27.4306C15.8935 28.1416 16.4697 28.7178 17.1806 28.7178H18.7522C19.1114 28.7178 19.4331 28.5756 19.6651 28.3436C20.421 27.5803 19.6876 26.6224 20.3237 26.4578ZM19.3733 26.0312C19.044 26.4578 19.1114 26.9143 19.1114 27.4232C19.1114 27.6327 18.9392 27.8048 18.7297 27.8048H17.1582C16.9487 27.8048 16.7765 27.6327 16.7765 27.4232V26.8095C16.7765 26.2258 16.3874 25.7169 15.8187 25.5673C15.1302 25.3802 14.4642 25.1033 13.8505 24.7516C13.3491 24.4522 12.7131 24.542 12.3015 24.9536L11.8674 25.3877C11.7178 25.5373 11.4783 25.5373 11.3286 25.3877L10.2136 24.2801C10.0639 24.1305 10.0639 23.891 10.2136 23.7413L10.6476 23.3073C11.0592 22.8882 11.1415 22.2596 10.8497 21.7507C10.4905 21.1296 10.2211 20.4786 10.034 19.7826C9.96664 19.5057 9.80201 19.2662 9.57751 19.0941C9.15095 18.7649 8.68698 18.8322 8.18559 18.8322C7.97606 18.8322 7.80394 18.6601 7.80394 18.4506V16.879C7.80394 16.6695 7.97606 16.4974 8.18559 16.4974H8.79923C9.38294 16.4974 9.89181 16.1083 10.0415 15.5395C10.2286 14.8436 10.498 14.1925 10.8572 13.5714C11.1565 13.07 11.0742 12.4339 10.6551 12.0223L10.2211 11.5883C10.1462 11.5134 10.1088 11.4162 10.1088 11.3189C10.1088 11.2216 10.1462 11.1243 10.2211 11.0495L11.3361 9.93445C11.4858 9.78478 11.7252 9.79226 11.8749 9.93445L12.3089 10.3685C12.728 10.7801 13.3566 10.8624 13.8655 10.5705C14.4866 10.2113 15.1452 9.94193 15.8336 9.75484C16.4024 9.60518 16.7915 9.09631 16.7915 8.5126V7.89896C16.7915 7.68943 16.9636 7.51731 17.1732 7.51731H18.7447C18.9542 7.51731 19.1263 7.68943 19.1039 7.89896V8.5126C19.1039 9.09631 19.493 9.60518 20.0618 9.75484C20.7502 9.94193 21.4162 10.2113 22.0299 10.5705C22.2843 10.7202 22.5687 10.7726 22.8456 10.7352C23.3844 10.6678 23.6463 10.3086 24.0205 9.93445C24.1701 9.78478 24.4096 9.78478 24.5593 9.93445L25.6668 11.0495C25.8165 11.1991 25.8165 11.4386 25.6668 11.5883L25.2328 12.0223C24.8212 12.4339 24.7314 13.0625 25.0307 13.5714C25.3899 14.185 25.6668 14.8436 25.8464 15.5395C25.9213 15.8239 26.0859 16.0634 26.3029 16.228C26.7295 16.5573 27.1859 16.4974 27.6948 16.4974C27.9044 16.4974 28.0765 16.6695 28.0765 16.879V18.4506C28.0765 18.6601 27.9044 18.8322 27.6948 18.8322H27.0812C26.4975 18.8322 25.9886 19.2213 25.8389 19.7901C25.6519 20.4786 25.3824 21.1446 25.0232 21.7582C24.8811 22.0127 24.8212 22.297 24.8586 22.5739C24.9334 23.1352 25.2926 23.3597 25.6593 23.7488C25.809 23.891 25.8015 24.1454 25.6593 24.2876L24.5518 25.3952C24.4021 25.5448 24.1627 25.5448 24.013 25.3952L23.5789 24.9611C23.1674 24.5495 22.5388 24.4597 22.0299 24.7591C21.4162 25.1183 20.7502 25.3952 20.0618 25.5748C19.7849 25.6496 19.5379 25.8142 19.3733 26.0312Z" fill="#FE5723"/>
<path d="M23.7058 17.6572C23.7058 14.4918 21.1315 11.9175 17.9585 11.9175C14.7856 11.9175 12.2188 14.4843 12.2188 17.6572C12.2188 20.8302 14.7856 23.4045 17.9585 23.4045C21.1315 23.4045 23.7058 20.8302 23.7058 17.6572ZM14.5386 21.0772C12.6528 19.1913 12.6528 16.1306 14.5386 14.2373C16.4319 12.3515 19.4851 12.3515 21.3784 14.2373C23.2643 16.1306 23.2643 19.1913 21.3784 21.0772C19.4926 22.963 16.4319 22.9705 14.5386 21.0772Z" fill="#FE5723"/>
<path d="M16.5291 30.7382H14.8005C14.4338 30.7382 14.1045 30.8879 13.865 31.1274C13.5732 31.4192 13.4759 31.741 13.4759 32.1601C8.4695 30.6185 4.58561 26.555 3.26853 21.4813L3.58284 21.833C3.97946 22.282 4.65296 21.6758 4.25634 21.2343L2.85695 19.6853C2.61748 19.4233 2.19092 19.5131 2.08616 19.8424L1.42762 21.8405C1.24053 22.4017 2.10861 22.6861 2.28821 22.1174L2.40046 21.7656C3.82979 27.221 8.05791 31.5465 13.4684 33.118V33.799C13.4684 34.5323 14.0671 35.131 14.8005 35.131H16.5291C17.2625 35.131 17.8612 34.5323 17.8612 33.799V32.0703C17.8612 31.3369 17.2625 30.7382 16.5291 30.7382ZM16.9557 33.784C16.9557 34.016 16.7611 34.2105 16.5291 34.2105H14.8005C14.5685 34.2105 14.3814 34.0235 14.3814 33.784V32.0553C14.3814 31.8233 14.5685 31.6363 14.8005 31.6363H16.5291C16.7611 31.6363 16.9557 31.8233 16.9557 32.0553V33.784Z" fill="white"/>
</g>
</g>
<defs>
<clipPath id="clip0_104_1988">
<rect width="34.94" height="34.94" fill="white" transform="translate(0.492188 0.19104)"/>
</clipPath>
</defs>
</svg>
