<svg width="36" height="36" viewBox="0 0 36 36" fill="none" xmlns="http://www.w3.org/2000/svg">
<path d="M13.4218 21.6585H31.9812C32.126 21.6585 32.2648 21.601 32.3672 21.4986C32.4696 21.3962 32.5271 21.2574 32.5271 21.1126C32.5271 20.9678 32.4696 20.829 32.3672 20.7266C32.2648 20.6242 32.126 20.5667 31.9812 20.5667H30.8895V6.92013C30.8895 6.77536 30.832 6.63652 30.7296 6.53415C30.6272 6.43178 30.4884 6.37427 30.3436 6.37427H27.0684C26.9237 6.37427 26.7848 6.43178 26.6825 6.53415C26.5801 6.63652 26.5226 6.77536 26.5226 6.92013V20.5667H24.885V10.1953C24.885 10.0505 24.8275 9.9117 24.7251 9.80933C24.6227 9.70696 24.4839 9.64945 24.3391 9.64945H21.0639C20.9192 9.64945 20.7803 9.70696 20.678 9.80933C20.5756 9.9117 20.5181 10.0505 20.5181 10.1953V20.5667H18.8805V12.9246C18.8805 12.7799 18.823 12.641 18.7206 12.5387C18.6182 12.4363 18.4794 12.3788 18.3346 12.3788H15.0594C14.9147 12.3788 14.7758 12.4363 14.6734 12.5387C14.5711 12.641 14.5136 12.7799 14.5136 12.9246V20.5667H13.4218C13.2771 20.5667 13.1382 20.6242 13.0359 20.7266C12.9335 20.829 12.876 20.9678 12.876 21.1126C12.876 21.2574 12.9335 21.3962 13.0359 21.4986C13.1382 21.601 13.2771 21.6585 13.4218 21.6585ZM27.6143 7.466H29.7978V20.5667H27.6143V7.466ZM21.6098 10.7412H23.7933V20.5667H21.6098V10.7412ZM15.6053 13.4705H17.7888V20.5667H15.6053V13.4705Z" fill="#FE5723"/>
<path d="M6.48468 8.94504C6.53543 8.99621 6.5958 9.03682 6.66232 9.06453C6.72884 9.09224 6.80019 9.10651 6.87225 9.10651C6.94431 9.10651 7.01566 9.09224 7.08217 9.06453C7.14869 9.03682 7.20907 8.99621 7.25981 8.94504L9.44327 6.76159C9.49416 6.71069 9.53454 6.65027 9.56208 6.58377C9.58962 6.51727 9.6038 6.446 9.6038 6.37403C9.6038 6.30205 9.58962 6.23078 9.56208 6.16428C9.53454 6.09778 9.49416 6.03736 9.44327 5.98646C9.39237 5.93557 9.33195 5.89519 9.26545 5.86765C9.19895 5.8401 9.12768 5.82593 9.0557 5.82593C8.98373 5.82593 8.91245 5.8401 8.84596 5.86765C8.77946 5.89519 8.71904 5.93557 8.66814 5.98646L6.87225 7.78781L6.16808 7.07819C6.06529 6.9754 5.92588 6.91766 5.78052 6.91766C5.63515 6.91766 5.49574 6.9754 5.39296 7.07819C5.29017 7.18098 5.23242 7.32039 5.23242 7.46575C5.23242 7.61112 5.29017 7.75053 5.39296 7.85332L6.48468 8.94504Z" fill="white"/>
<path d="M7.41769 11.8328C8.28139 11.8328 9.12569 11.5767 9.84382 11.0969C10.562 10.617 11.1217 9.93501 11.4522 9.13706C11.7827 8.33911 11.8692 7.46107 11.7007 6.61397C11.5322 5.76687 11.1163 4.98876 10.5056 4.37804C9.89484 3.76732 9.11673 3.35141 8.26964 3.18291C7.42254 3.01441 6.5445 3.10089 5.74655 3.43141C4.9486 3.76193 4.26658 4.32165 3.78674 5.03979C3.3069 5.75792 3.05078 6.60222 3.05078 7.46591C3.05078 8.62409 3.51087 9.73483 4.32982 10.5538C5.14878 11.3727 6.25952 11.8328 7.41769 11.8328ZM7.41769 4.19073C8.06546 4.19073 8.69869 4.38282 9.23729 4.7427C9.77589 5.10258 10.1957 5.61409 10.4436 6.21255C10.6915 6.81102 10.7563 7.46955 10.6299 8.10487C10.5036 8.74019 10.1916 9.32378 9.7336 9.78182C9.27556 10.2399 8.69197 10.5518 8.05665 10.6782C7.42133 10.8045 6.7628 10.7397 6.16434 10.4918C5.56587 10.2439 5.05436 9.82411 4.69448 9.28551C4.3346 8.74691 4.14251 8.11368 4.14251 7.46591C4.14251 6.59728 4.48757 5.76422 5.10179 5.15001C5.71601 4.53579 6.54906 4.19073 7.41769 4.19073Z" fill="white"/>
<path d="M6.48468 18.7705C6.53543 18.8216 6.5958 18.8623 6.66232 18.89C6.72884 18.9177 6.80019 18.932 6.87225 18.932C6.94431 18.932 7.01566 18.9177 7.08217 18.89C7.14869 18.8623 7.20907 18.8216 7.25981 18.7705L9.44327 16.587C9.54606 16.4842 9.6038 16.3448 9.6038 16.1995C9.6038 16.0541 9.54606 15.9147 9.44327 15.8119C9.34048 15.7091 9.20107 15.6514 9.0557 15.6514C8.91034 15.6514 8.77093 15.7091 8.66814 15.8119L6.87225 17.6133L6.16808 16.9036C6.06529 16.8008 5.92588 16.7431 5.78052 16.7431C5.63515 16.7431 5.49574 16.8008 5.39296 16.9036C5.29017 17.0064 5.23242 17.1458 5.23242 17.2912C5.23242 17.4366 5.29017 17.576 5.39296 17.6788L6.48468 18.7705Z" fill="white"/>
<path d="M7.41769 21.6583C8.28139 21.6583 9.12569 21.4022 9.84382 20.9223C10.562 20.4425 11.1217 19.7604 11.4522 18.9625C11.7827 18.1645 11.8692 17.2865 11.7007 16.4394C11.5322 15.5923 11.1163 14.8142 10.5056 14.2035C9.89484 13.5928 9.11673 13.1768 8.26964 13.0083C7.42254 12.8399 6.5445 12.9263 5.74655 13.2569C4.9486 13.5874 4.26658 14.1471 3.78674 14.8652C3.3069 15.5834 3.05078 16.4277 3.05078 17.2914C3.05078 18.4495 3.51087 19.5603 4.32982 20.3792C5.14878 21.1982 6.25952 21.6583 7.41769 21.6583ZM7.41769 14.0162C8.06546 14.0162 8.69869 14.2083 9.23729 14.5681C9.77589 14.928 10.1957 15.4395 10.4436 16.038C10.6915 16.6365 10.7563 17.295 10.6299 17.9303C10.5036 18.5656 10.1916 19.1492 9.7336 19.6073C9.27556 20.0653 8.69197 20.3772 8.05665 20.5036C7.42133 20.63 6.7628 20.5651 6.16434 20.3172C5.56587 20.0693 5.05436 19.6495 4.69448 19.1109C4.3346 18.5723 4.14251 17.9391 4.14251 17.2914C4.14251 16.4227 4.48757 15.5897 5.10179 14.9754C5.71601 14.3612 6.54906 14.0162 7.41769 14.0162Z" fill="white"/>
<path d="M15.0595 32.0296H20.5182C20.6629 32.0296 20.8018 31.9721 20.9042 31.8697C21.0065 31.7673 21.064 31.6285 21.064 31.4837C21.064 31.339 21.0065 31.2001 20.9042 31.0977C20.8018 30.9954 20.6629 30.9379 20.5182 30.9379H15.0595C14.9148 30.9379 14.7759 30.9954 14.6736 31.0977C14.5712 31.2001 14.5137 31.339 14.5137 31.4837C14.5137 31.6285 14.5712 31.7673 14.6736 31.8697C14.7759 31.9721 14.9148 32.0296 15.0595 32.0296Z" fill="white"/>
<path d="M32.5273 0.369629H3.05061C2.69219 0.369629 2.33728 0.440225 2.00614 0.577386C1.67501 0.714547 1.37413 0.915588 1.12069 1.16903C0.608842 1.68088 0.321289 2.37509 0.321289 3.09895V24.9335C0.321289 25.6574 0.608842 26.3516 1.12069 26.8634C1.37413 27.1169 1.67501 27.3179 2.00614 27.4551C2.33728 27.5922 2.69219 27.6628 3.05061 27.6628H12.636L11.4078 30.938H11.2386C10.6595 30.938 10.1041 31.1681 9.69463 31.5775C9.28516 31.987 9.05511 32.5424 9.05511 33.1215C9.05511 33.7006 9.28516 34.2559 9.69463 34.6654C10.1041 35.0749 10.6595 35.3049 11.2386 35.3049H24.3393C24.9184 35.3049 25.4738 35.0749 25.8832 34.6654C26.2927 34.2559 26.5228 33.7006 26.5228 33.1215C26.5228 32.5424 26.2927 31.987 25.8832 31.5775C25.4738 31.1681 24.9184 30.938 24.3393 30.938H24.1701L22.9419 27.6628H32.5273C33.2511 27.6628 33.9453 27.3753 34.4572 26.8634C34.969 26.3516 35.2566 25.6574 35.2566 24.9335V3.09895C35.2566 2.74053 35.186 2.38562 35.0488 2.05448C34.9117 1.72335 34.7106 1.42247 34.4572 1.16903C34.2038 0.915588 33.9029 0.714547 33.5717 0.577386C33.2406 0.440225 32.8857 0.369629 32.5273 0.369629ZM3.05061 1.46136H32.5273C32.9616 1.46136 33.3781 1.63389 33.6852 1.941C33.9923 2.2481 34.1649 2.66463 34.1649 3.09895V23.2959H1.41302V3.09895C1.41302 2.66463 1.58555 2.2481 1.89266 1.941C2.19977 1.63389 2.61629 1.46136 3.05061 1.46136ZM23.2803 31.6749C23.3194 31.7794 23.3895 31.8694 23.4812 31.9329C23.5729 31.9963 23.6819 32.0301 23.7934 32.0297H24.3393C24.6289 32.0297 24.9065 32.1448 25.1113 32.3495C25.316 32.5542 25.431 32.8319 25.431 33.1215C25.431 33.411 25.316 33.6887 25.1113 33.8934C24.9065 34.0982 24.6289 34.2132 24.3393 34.2132H11.2386C10.949 34.2132 10.6713 34.0982 10.4666 33.8934C10.2619 33.6887 10.1468 33.411 10.1468 33.1215C10.1468 32.8319 10.2619 32.5542 10.4666 32.3495C10.6713 32.1448 10.949 32.0297 11.2386 32.0297H11.7844C11.896 32.0301 12.0049 31.9963 12.0967 31.9329C12.1884 31.8694 12.2585 31.7794 12.2975 31.6749L13.7987 27.6628H21.7792L23.2803 31.6749ZM32.5273 26.5711H3.05061C2.61629 26.5711 2.19977 26.3986 1.89266 26.0915C1.58555 25.7844 1.41302 25.3678 1.41302 24.9335V24.3876H34.1649V24.9335C34.1649 25.3678 33.9923 25.7844 33.6852 26.0915C33.3781 26.3986 32.9616 26.5711 32.5273 26.5711Z" fill="white"/>
</svg>
