<svg width="36" height="38" viewBox="0 0 36 38" fill="none" xmlns="http://www.w3.org/2000/svg">
<path d="M15.5895 14.3235C15.5895 14.9361 15.7822 15.5024 16.1058 15.9724L13.2394 18.9968C12.7963 18.7233 12.2762 18.5653 11.7176 18.5653C10.1226 18.5653 8.82422 19.8637 8.82422 21.4587C8.82422 23.0537 10.1226 24.352 11.7176 24.352C13.3126 24.352 14.611 23.0537 14.611 21.4587C14.611 20.8461 14.4183 20.2797 14.0947 19.8097L16.9649 16.7854C17.408 17.0589 17.9281 17.2169 18.4868 17.2169C19.2688 17.2169 19.9816 16.9048 20.5056 16.3962L22.5783 17.7948C22.4396 18.1338 22.3626 18.4998 22.3626 18.8889C22.3626 20.4839 23.6609 21.7823 25.2559 21.7823C26.8509 21.7823 28.1493 20.4839 28.1493 18.8889C28.1493 18.3033 27.9759 17.7601 27.6754 17.3055L30.4994 14.4815C30.9425 14.7588 31.4664 14.9168 32.0251 14.9168C33.6201 14.9168 34.9185 13.6185 34.9185 12.0196C34.9185 10.4207 33.6201 9.12622 32.0251 9.12622C30.4301 9.12622 29.1317 10.4246 29.1317 12.0196C29.1317 12.6322 29.3205 13.1985 29.6441 13.6647L26.8394 16.4694C26.3848 16.1689 25.8377 15.9956 25.2559 15.9956C24.4738 15.9956 23.7611 16.3076 23.241 16.8162L21.1682 15.4177C21.3069 15.0786 21.384 14.7126 21.384 14.3235C21.384 12.7246 20.0856 11.4263 18.4868 11.4263C16.8879 11.4263 15.5934 12.7246 15.5934 14.3235H15.5895ZM11.7176 23.1693C10.7737 23.1693 10.007 22.4026 10.007 21.4587C10.007 20.5148 10.7737 19.7481 11.7176 19.7481C12.6615 19.7481 13.4282 20.5148 13.4282 21.4587C13.4282 22.4026 12.6615 23.1693 11.7176 23.1693ZM32.0212 10.309C32.9651 10.309 33.7318 11.0757 33.7318 12.0196C33.7318 12.9635 32.9651 13.734 32.0212 13.734C31.0773 13.734 30.3106 12.9673 30.3106 12.0196C30.3106 11.0718 31.0773 10.309 32.0212 10.309ZM25.2521 17.1783C26.196 17.1783 26.9627 17.945 26.9627 18.8889C26.9627 19.8328 26.196 20.5995 25.2521 20.5995C24.3082 20.5995 23.5415 19.8328 23.5415 18.8889C23.5415 17.945 24.3082 17.1783 25.2521 17.1783ZM18.4829 12.6129C19.4268 12.6129 20.1973 13.3796 20.1973 14.3273C20.1973 15.2751 19.4268 16.0379 18.4829 16.0379C17.539 16.0379 16.7723 15.2713 16.7723 14.3273C16.7723 13.3834 17.539 12.6129 18.4829 12.6129Z" fill="#FE5723"/>
<path d="M29.1816 18.2916V33.8218C29.1816 34.288 29.5592 34.6655 30.0254 34.6655H34.0206C34.4868 34.6655 34.8644 34.288 34.8644 33.8218V18.2916C34.8644 17.8254 34.4868 17.4479 34.0206 17.4479H30.0254C29.5592 17.4479 29.1816 17.8254 29.1816 18.2916ZM30.3644 18.6307H33.6777V33.4827H30.3644V18.6307Z" fill="white"/>
<path d="M9.64507 8.76398H16.237C16.5645 8.76398 16.8265 8.49814 16.8265 8.17066C16.8265 4.2101 13.6056 0.989258 9.64507 0.989258C9.31759 0.989258 9.05176 1.25509 9.05176 1.58257V8.17451C9.05176 8.50199 9.31759 8.76783 9.64507 8.76783V8.76398ZM10.2345 2.20285C13.0701 2.48025 15.3355 4.74563 15.6129 7.5812H10.2345V2.20285Z" fill="white"/>
<path d="M34.6718 36.4378H7.40252C7.14054 36.4378 6.92864 36.2259 6.92864 35.9639V17.4402C7.11742 17.4556 7.31006 17.4633 7.50269 17.4633C11.4633 17.4633 14.688 14.2425 14.688 10.2819C14.688 9.95446 14.4221 9.68862 14.0985 9.68862H8.09601V3.68999C8.09601 3.36252 7.83017 3.09668 7.50269 3.09668C3.54213 3.10053 0.321289 6.32138 0.321289 10.2819C0.321289 13.6376 2.6329 16.4616 5.74587 17.2476V35.9639C5.74587 36.877 6.48944 37.6206 7.40252 37.6206H34.6718C34.9993 37.6206 35.2613 37.3548 35.2613 37.0273C35.2613 36.6998 34.9955 36.4378 34.6718 36.4378ZM1.50406 10.2819C1.50406 7.17282 3.88117 4.60693 6.91323 4.31028V10.2819C6.91323 10.6094 7.17907 10.8752 7.50269 10.8752H13.4744C13.1777 13.9073 10.6118 16.2844 7.50269 16.2844C4.19324 16.2844 1.50406 13.5914 1.50406 10.2858V10.2819Z" fill="white"/>
<path d="M16.4873 20.5994C15.998 20.5994 15.6436 21.0617 15.6436 21.6974V33.502C15.6436 34.1377 15.998 34.6 16.4873 34.6H20.4825C20.968 34.6 21.3224 34.1377 21.3224 33.502V21.6974C21.3224 21.0617 20.968 20.5994 20.4825 20.5994H16.4873ZM20.1396 33.4134H16.8263V21.7821H20.1396V33.4134Z" fill="white"/>
<path d="M23.2568 23.8203C22.7829 23.8203 22.4131 24.2441 22.4131 24.7873V33.6292C22.4131 34.1725 22.7829 34.5963 23.2568 34.5963H27.2521C27.7259 34.5963 28.0958 34.1725 28.0958 33.6292V24.7873C28.0958 24.2441 27.7259 23.8203 27.2521 23.8203H23.2568ZM26.9092 33.4135H23.5959V25.0031H26.9092V33.4135Z" fill="white"/>
<path d="M9.71782 27.0374C9.25549 27.0374 8.87793 27.4149 8.87793 27.8811V33.7526C8.87793 34.2188 9.25549 34.5963 9.71782 34.5963H13.713C14.1792 34.5963 14.5568 34.2188 14.5568 33.7526V27.8811C14.5568 27.4149 14.1792 27.0374 13.713 27.0374H9.71782ZM13.374 33.4135H10.0607V28.2201H13.374V33.4135Z" fill="white"/>
</svg>
