<svg width="36" height="36" viewBox="0 0 36 36" fill="none" xmlns="http://www.w3.org/2000/svg">
<g opacity="0.6" clip-path="url(#clip0_104_1925)">
<path d="M25.9131 3.77365C26.0033 3.83002 26.1048 3.85633 26.2025 3.85633C26.3905 3.85633 26.5746 3.76237 26.6799 3.58574L27.5406 2.16889C27.6985 1.90582 27.6158 1.56382 27.3527 1.40222C27.0896 1.24438 26.7475 1.32706 26.5859 1.59013L25.7252 3.00697C25.5636 3.27005 25.65 3.61204 25.9131 3.77365Z" fill="white"/>
<path d="M28.315 6.28786C28.4164 6.47201 28.6081 6.57724 28.8036 6.57724C28.8938 6.57724 28.984 6.55469 29.0704 6.50959L30.5288 5.71285C30.7994 5.56628 30.8971 5.22429 30.7505 4.9537C30.6002 4.68311 30.2619 4.58539 29.9913 4.73196L28.533 5.5287C28.2623 5.67527 28.1646 6.01351 28.3112 6.2841L28.315 6.28786Z" fill="white"/>
<path d="M29.702 9.12158C29.4013 9.12158 29.1532 9.36211 29.1457 9.66652C29.1382 9.97469 29.3825 10.2303 29.6907 10.2378L31.3482 10.2754H31.3595C31.6602 10.2754 31.9083 10.0348 31.9158 9.73041C31.9233 9.42224 31.679 9.16668 31.3708 9.15916L29.7132 9.12158H29.702Z" fill="white"/>
<path d="M20.8353 9.45228H17.7871V8.08429C17.7871 7.77612 17.539 7.52808 17.2308 7.52808H11.4764C11.1681 7.52808 10.9201 7.77612 10.9201 8.08429V9.45228H7.87561C7.5674 9.45228 7.31934 9.70032 7.31934 10.0085V13.8569C7.31934 14.15 7.54485 14.3868 7.83051 14.4093V19.3514C7.83051 19.6596 8.07857 19.9076 8.38678 19.9076H20.3279C20.6361 19.9076 20.8841 19.6558 20.8841 19.3514V14.4093C21.1698 14.3868 21.3953 14.15 21.3953 13.8569V10.0085C21.3953 9.70032 21.1472 9.45228 20.839 9.45228H20.8353ZM12.0326 8.64426H16.6707V9.45228H12.0326V8.64426ZM19.7678 18.7952H8.9393V14.4169H12.7017V14.9468C12.7017 15.2549 12.9535 15.503 13.2579 15.503H15.4417C15.7499 15.503 15.998 15.2512 15.998 14.9468V14.4169H19.7603V18.7952H19.7678ZM14.8892 13.887V14.3868H13.818V13.3307H14.8892V13.8306C14.8892 13.8306 14.8892 13.8494 14.8892 13.8606C14.8892 13.8719 14.8892 13.8794 14.8892 13.8907V13.887ZM20.279 13.3007H16.0055V12.7708C16.0055 12.4626 15.7574 12.2146 15.4492 12.2146H13.2655C12.9572 12.2146 12.7092 12.4626 12.7092 12.7708V13.3007H8.43564V10.5685H20.2828V13.3007H20.279Z" fill="#FE5723"/>
<path d="M14.5775 3.18369C11.6195 3.12356 8.81932 4.22095 6.68819 6.26541C4.55706 8.31363 3.35054 11.0684 3.29041 14.0223C3.16637 20.1219 8.03001 25.1804 14.1302 25.3045C14.2054 25.3045 14.2806 25.3045 14.3595 25.3045C17.2311 25.3045 19.941 24.2146 22.0158 22.219C24.1469 20.1708 25.3534 17.416 25.4136 14.4621C25.5338 8.36249 20.674 3.30395 14.5775 3.17993V3.18369ZM21.2453 21.4185C19.3284 23.26 16.8026 24.2371 14.1565 24.192C8.67273 24.083 4.29771 19.5319 4.41047 14.0486C4.46309 11.3916 5.54933 8.91495 7.46246 7.07719C9.33049 5.28452 11.7698 4.30363 14.352 4.30363C14.4196 4.30363 14.4873 4.30363 14.5587 4.30363C20.0425 4.41262 24.4138 8.9638 24.301 14.447C24.2484 17.1041 23.1622 19.5807 21.249 21.4185H21.2453Z" fill="white"/>
<path d="M35.3096 30.4607L28.4276 23.5794C28.2171 23.3689 27.8488 23.3689 27.6383 23.5794L27.1196 24.098L25.4959 22.4707C27.161 20.2346 28.1758 17.4836 28.2359 14.4921C28.3111 10.794 26.9392 7.2876 24.3758 4.61928C21.8087 1.95095 18.3621 0.440158 14.6599 0.364994C10.9614 0.289829 7.45461 1.66157 4.78224 4.22467C2.11739 6.79152 0.606426 10.2378 0.531254 13.9359C0.456081 17.6339 1.82797 21.1403 4.39134 23.8087C6.95471 26.477 10.4051 27.9878 14.1036 28.0629C14.1975 28.0629 14.2915 28.0629 14.3855 28.0629C17.4675 28.0629 20.3278 27.0445 22.6394 25.3232L24.2668 26.9468L23.7482 27.4654C23.5302 27.6834 23.5302 28.0366 23.7482 28.2546L30.6302 35.1359C30.7354 35.2411 30.8782 35.2975 31.0248 35.2975C31.1714 35.2975 31.3142 35.2373 31.4195 35.1359L35.3096 31.2424C35.5276 31.0244 35.5276 30.6711 35.3096 30.4532V30.4607ZM14.3892 26.9505C14.3028 26.9505 14.2163 26.9505 14.1299 26.9505C10.7284 26.8829 7.55609 25.4923 5.19944 23.0382C2.8428 20.5841 1.58366 17.3596 1.65132 13.9584C1.71897 10.5572 3.1059 7.38531 5.56027 5.02892C8.01464 2.67253 11.247 1.41729 14.6411 1.48118C18.0426 1.54883 21.2149 2.93936 23.5715 5.38971C25.9282 7.84381 27.1873 11.0684 27.1196 14.4695C26.9806 21.4034 21.2938 26.9505 14.3892 26.9505ZM23.5151 24.6204C23.9662 24.2221 24.3909 23.7974 24.7893 23.3426L26.3303 24.8873L25.0562 26.1613L23.5114 24.6204H23.5151ZM31.0248 33.9558L24.9321 27.8638L25.4471 27.3489C25.4471 27.3489 25.4471 27.3489 25.4508 27.3489C25.4546 27.3489 25.4508 27.3489 25.4508 27.3451L28.0292 24.767L34.1219 30.859L31.0173 33.9633L31.0248 33.9558Z" fill="white"/>
</g>
<defs>
<clipPath id="clip0_104_1925">
<rect width="34.94" height="34.94" fill="white" transform="translate(0.53125 0.36499)"/>
</clipPath>
</defs>
</svg>
