<svg width="36" height="36" viewBox="0 0 36 36" fill="none" xmlns="http://www.w3.org/2000/svg">
<g opacity="0.6">
<path d="M10.4424 32.2591H1.23833C1.06012 32.2591 0.889218 32.1883 0.763208 32.0623C0.637198 31.9363 0.566406 31.7654 0.566406 31.5872V15.5807C0.566376 15.4446 0.607676 15.3117 0.684842 15.1996C0.762007 15.0875 0.871398 15.0015 0.998537 14.9529L10.2026 11.4371C10.3043 11.3982 10.414 11.3846 10.5221 11.3976C10.6303 11.4105 10.7336 11.4495 10.8233 11.5112C10.913 11.573 10.9864 11.6556 11.0371 11.7519C11.0878 11.8483 11.1143 11.9556 11.1143 12.0645V31.5872C11.1143 31.7654 11.0435 31.9363 10.9175 32.0623C10.7915 32.1883 10.6206 32.2591 10.4424 32.2591ZM1.91025 30.9153H9.77049V13.0404L1.91025 16.0431V30.9153Z" fill="white"/>
<path d="M34.7647 32.2591H25.5606C25.3824 32.2591 25.2115 32.1883 25.0855 32.0623C24.9595 31.9363 24.8887 31.7654 24.8887 31.5872V12.0645C24.8887 11.9556 24.9152 11.8483 24.9659 11.7519C25.0166 11.6556 25.09 11.573 25.1797 11.5112C25.2694 11.4495 25.3728 11.4105 25.4809 11.3976C25.589 11.3846 25.6987 11.3982 25.8004 11.4371L35.0045 14.9529C35.1316 15.0015 35.241 15.0875 35.3182 15.1996C35.3953 15.3117 35.4366 15.4446 35.4366 15.5807V31.5872C35.4366 31.7654 35.3658 31.9363 35.2398 32.0623C35.1138 32.1883 34.9429 32.2591 34.7647 32.2591ZM26.2325 30.9153H34.0928V16.0431L26.2325 13.0404V30.9153Z" fill="white"/>
<path d="M25.5607 28.4317H10.4424C10.2642 28.4317 10.0933 28.3609 9.96731 28.2349C9.8413 28.1089 9.77051 27.938 9.77051 27.7598V1.50688C9.77051 1.32868 9.8413 1.15777 9.96731 1.03176C10.0933 0.905753 10.2642 0.834961 10.4424 0.834961H25.5607C25.7389 0.834961 25.9098 0.905753 26.0358 1.03176C26.1618 1.15777 26.2326 1.32868 26.2326 1.50688V27.7598C26.2326 27.938 26.1618 28.1089 26.0358 28.2349C25.9098 28.3609 25.7389 28.4317 25.5607 28.4317ZM11.1144 27.0878H24.8888V2.17881H11.1144V27.0878Z" fill="white"/>
<path d="M25.5607 32.2592H10.4424C10.2642 32.2592 10.0933 32.1884 9.96731 32.0624C9.8413 31.9364 9.77051 31.7655 9.77051 31.5873V27.7598C9.77051 27.5816 9.8413 27.4107 9.96731 27.2847C10.0933 27.1587 10.2642 27.0879 10.4424 27.0879H25.5607C25.7389 27.0879 25.9098 27.1587 26.0358 27.2847C26.1618 27.4107 26.2326 27.5816 26.2326 27.7598V31.5873C26.2326 31.7655 26.1618 31.9364 26.0358 32.0624C25.9098 32.1884 25.7389 32.2592 25.5607 32.2592ZM11.1144 30.9153H24.8888V28.4317H11.1144V30.9153Z" fill="white"/>
<path d="M34.7993 35.775H1.20317C1.02497 35.775 0.854062 35.7042 0.728052 35.5782C0.602042 35.4522 0.53125 35.2812 0.53125 35.103V31.5872C0.53125 31.409 0.602042 31.2381 0.728052 31.1121C0.854062 30.9861 1.02497 30.9153 1.20317 30.9153H34.7993C34.9775 30.9153 35.1484 30.9861 35.2744 31.1121C35.4005 31.2381 35.4712 31.409 35.4712 31.5872V35.103C35.4712 35.2812 35.4005 35.4522 35.2744 35.5782C35.1484 35.7042 34.9775 35.775 34.7993 35.775ZM1.8751 34.4311H34.1274V32.2591H1.8751V34.4311Z" fill="white"/>
<path d="M20.0721 28.4317H15.9297C15.7515 28.4317 15.5806 28.3609 15.4546 28.2349C15.3286 28.1089 15.2578 27.938 15.2578 27.7598V20.0536C15.2578 19.8754 15.3286 19.7045 15.4546 19.5785C15.5806 19.4525 15.7515 19.3817 15.9297 19.3817H20.0721C20.2503 19.3817 20.4213 19.4525 20.5473 19.5785C20.6733 19.7045 20.7441 19.8754 20.7441 20.0536V27.7598C20.7441 27.938 20.6733 28.1089 20.5473 28.2349C20.4213 28.3609 20.2503 28.4317 20.0721 28.4317ZM16.6017 27.0878H19.4002V20.7256H16.6017V27.0878Z" fill="white"/>
<path d="M7.283 32.2591H4.39751C4.2193 32.2591 4.0484 32.1883 3.92239 32.0623C3.79638 31.9363 3.72559 31.7654 3.72559 31.5871V23.881C3.72559 23.7028 3.79638 23.5319 3.92239 23.4059C4.0484 23.2799 4.2193 23.2091 4.39751 23.2091H7.283C7.4612 23.2091 7.63211 23.2799 7.75812 23.4059C7.88413 23.5319 7.95492 23.7028 7.95492 23.881V31.5871C7.95492 31.7654 7.88413 31.9363 7.75812 32.0623C7.63211 32.1883 7.4612 32.2591 7.283 32.2591ZM5.06943 30.9152H6.61108V24.553H5.06943V30.9152Z" fill="white"/>
<path d="M31.6053 32.2591H28.7198C28.5416 32.2591 28.3707 32.1883 28.2447 32.0623C28.1186 31.9363 28.0479 31.7654 28.0479 31.5871V23.881C28.0479 23.7028 28.1186 23.5319 28.2447 23.4059C28.3707 23.2799 28.5416 23.2091 28.7198 23.2091H31.6053C31.7835 23.2091 31.9544 23.2799 32.0804 23.4059C32.2064 23.5319 32.2772 23.7028 32.2772 23.881V31.5871C32.2772 31.7654 32.2064 31.9363 32.0804 32.0623C31.9544 32.1883 31.7835 32.2591 31.6053 32.2591ZM29.3917 30.9152H30.9333V24.553H29.3917V30.9152Z" fill="white"/>
<path d="M22.7325 17.0531H19.3594C19.1812 17.0531 19.0103 16.9823 18.8843 16.8562C18.7583 16.7302 18.6875 16.5593 18.6875 16.3811V12.6163C18.6875 12.4381 18.7583 12.2671 18.8843 12.1411C19.0103 12.0151 19.1812 11.9443 19.3594 11.9443H22.7325C22.9107 11.9443 23.0816 12.0151 23.2076 12.1411C23.3336 12.2671 23.4044 12.4381 23.4044 12.6163V16.3811C23.4044 16.4694 23.387 16.5567 23.3533 16.6383C23.3195 16.7198 23.27 16.7939 23.2076 16.8562C23.1452 16.9186 23.0711 16.9681 22.9896 17.0019C22.9081 17.0357 22.8207 17.0531 22.7325 17.0531ZM20.0313 15.7092H22.0606V13.2882H20.0313V15.7092Z" fill="#FE5723"/>
<path d="M16.6436 17.0531H13.2706C13.0924 17.0531 12.9214 16.9823 12.7954 16.8562C12.6694 16.7302 12.5986 16.5593 12.5986 16.3811V12.6163C12.5986 12.4381 12.6694 12.2671 12.7954 12.1411C12.9214 12.0151 13.0924 11.9443 13.2706 11.9443H16.6436C16.8218 11.9443 16.9927 12.0151 17.1187 12.1411C17.2447 12.2671 17.3155 12.4381 17.3155 12.6163V16.3811C17.3155 16.5593 17.2447 16.7302 17.1187 16.8562C16.9927 16.9823 16.8218 17.0531 16.6436 17.0531ZM13.9425 15.7092H15.9717V13.2882H13.9425V15.7092Z" fill="#FE5723"/>
<path d="M22.7325 9.61616H19.3594C19.1812 9.61616 19.0103 9.54537 18.8843 9.41936C18.7583 9.29335 18.6875 9.12244 18.6875 8.94424V5.17937C18.6875 5.00116 18.7583 4.83026 18.8843 4.70425C19.0103 4.57824 19.1812 4.50745 19.3594 4.50745H22.7325C22.9107 4.50745 23.0816 4.57824 23.2076 4.70425C23.3336 4.83026 23.4044 5.00116 23.4044 5.17937V8.94424C23.4044 9.03248 23.387 9.11985 23.3533 9.20137C23.3195 9.28289 23.27 9.35697 23.2076 9.41936C23.1452 9.48175 23.0711 9.53125 22.9896 9.56501C22.9081 9.59878 22.8207 9.61616 22.7325 9.61616ZM20.0313 8.27232H22.0606V5.85129H20.0313V8.27232Z" fill="#FE5723"/>
<path d="M16.6436 9.61616H13.2706C13.0924 9.61616 12.9214 9.54537 12.7954 9.41936C12.6694 9.29335 12.5986 9.12244 12.5986 8.94424V5.17937C12.5986 5.00116 12.6694 4.83026 12.7954 4.70425C12.9214 4.57824 13.0924 4.50745 13.2706 4.50745H16.6436C16.8218 4.50745 16.9927 4.57824 17.1187 4.70425C17.2447 4.83026 17.3155 5.00116 17.3155 5.17937V8.94424C17.3155 9.12244 17.2447 9.29335 17.1187 9.41936C16.9927 9.54537 16.8218 9.61616 16.6436 9.61616ZM13.9425 8.27232H15.9717V5.85129H13.9425V8.27232Z" fill="#FE5723"/>
</g>
</svg>
