<svg width="36" height="36" viewBox="0 0 36 36" fill="none" xmlns="http://www.w3.org/2000/svg">
<g clip-path="url(#clip0_104_1854)">
<path d="M34.9262 14.5884C34.8512 14.1985 34.5513 13.8937 34.1665 13.8087L30.578 12.999C30.5081 12.8191 30.4331 12.6392 30.3581 12.4643L32.3223 9.3656C32.5322 9.03075 32.5272 8.60093 32.3073 8.27607C31.0278 6.36689 29.4085 4.74759 27.4993 3.46814C27.1695 3.24823 26.7447 3.24323 26.4098 3.45314L23.2962 5.4173C23.1212 5.34233 22.9413 5.26736 22.7614 5.19739L21.9667 1.60893C21.8818 1.2241 21.5719 0.91923 21.1871 0.844263C18.958 0.404451 16.634 0.404451 14.4 0.844263C14.0101 0.91923 13.7053 1.2191 13.6203 1.60394L12.8107 5.1924C12.6307 5.26237 12.4508 5.33733 12.2759 5.4123L9.17721 3.45314C8.84236 3.24323 8.41254 3.24823 8.08768 3.46814C6.1785 4.74759 4.5592 6.36689 3.27975 8.27607C3.05984 8.60593 3.05484 9.03075 3.26475 9.3656L5.22891 12.4793C5.15394 12.6542 5.07897 12.8341 5.009 13.014L1.42054 13.8137C1.03571 13.8987 0.73084 14.2085 0.655872 14.5934C0.211063 16.8424 0.211063 19.1264 0.655872 21.3804C0.73084 21.7703 1.03071 22.0751 1.41555 22.1601L5.00401 22.9698C5.07398 23.1497 5.14894 23.3246 5.22391 23.5045L3.25975 26.6032C3.04984 26.9381 3.05484 27.3679 3.27475 27.6927C4.5542 29.6019 6.1735 31.2212 8.08268 32.5007C8.41254 32.7206 8.83736 32.7256 9.17221 32.5157L12.2859 30.5515C12.4608 30.6265 12.6407 30.7014 12.8206 30.7714L13.6303 34.3599C13.7153 34.7447 14.0251 35.0446 14.41 35.1195C15.5245 35.3395 16.664 35.4494 17.8035 35.4494C18.943 35.4494 20.0825 35.3395 21.1971 35.1195C21.5869 35.0446 21.8918 34.7447 21.9767 34.3599L22.7864 30.7714C22.9663 30.7014 23.1412 30.6265 23.3211 30.5515L26.4048 32.5157C26.7397 32.7256 27.1695 32.7256 27.4993 32.5007C29.4085 31.2212 31.0278 29.6019 32.3073 27.6927C32.5272 27.3629 32.5322 26.9381 32.3223 26.6032L30.3581 23.4895C30.4331 23.3146 30.5081 23.1347 30.578 22.9548L34.1665 22.1551C34.5513 22.0701 34.8562 21.7603 34.9312 21.3754C35.376 19.1264 35.376 16.8424 34.9312 14.5884H34.9262ZM33.077 20.3459L29.6084 21.1156C29.2686 21.1905 28.9937 21.4404 28.8788 21.7703C28.7188 22.2351 28.5339 22.6849 28.324 23.1197C28.1741 23.4296 28.194 23.7994 28.379 24.0893L30.2782 27.098C29.3336 28.3874 28.209 29.517 26.9146 30.4615L23.9309 28.5674C23.636 28.3824 23.2662 28.3575 22.9563 28.5124C22.5265 28.7223 22.0717 28.9122 21.6069 29.0671C21.277 29.1771 21.0321 29.452 20.9572 29.7918L20.1725 33.2653C18.6032 33.5052 16.9989 33.5052 15.4295 33.2653L14.6449 29.7918C14.5699 29.452 14.32 29.1771 13.9951 29.0671C13.5303 28.9072 13.0755 28.7223 12.6457 28.5124C12.3359 28.3624 11.966 28.3774 11.6761 28.5624L8.66743 30.4615C7.37799 29.517 6.24847 28.3874 5.30388 27.098L7.20306 24.1043C7.38798 23.8094 7.40797 23.4446 7.25804 23.1297C7.04813 22.6949 6.85821 22.2401 6.70328 21.7803C6.59332 21.4504 6.31844 21.2055 5.97859 21.1256L2.50508 20.3409C2.26018 18.7666 2.26018 17.1772 2.50508 15.6029L5.97359 14.8333C6.31344 14.7583 6.58833 14.5084 6.70328 14.1785C6.86321 13.7137 7.04813 13.2639 7.25804 12.8291C7.41297 12.5192 7.39298 12.1494 7.20806 11.8545L5.30887 8.84583C6.25347 7.55638 7.37799 6.42687 8.67243 5.48227L11.6661 7.37646C11.961 7.56138 12.3259 7.58137 12.6407 7.43143C13.0705 7.22152 13.5253 7.03161 13.9901 6.87667C14.32 6.76672 14.5649 6.49184 14.6399 6.15198L15.4245 2.68347C16.9889 2.44358 18.5982 2.44358 20.1625 2.68347L20.9322 6.15198C21.0071 6.49184 21.257 6.76672 21.5869 6.88167C22.0517 7.0416 22.5065 7.22652 22.9363 7.43643C23.2462 7.59137 23.616 7.57137 23.9059 7.38645L26.9146 5.48727C28.204 6.43186 29.3336 7.56138 30.2782 8.85083L28.379 11.8445C28.194 12.1394 28.1741 12.5043 28.324 12.8191C28.5339 13.2489 28.7238 13.7037 28.8788 14.1685C28.9887 14.4984 29.2636 14.7433 29.6034 14.8233L33.077 15.6079C33.3218 17.1822 33.3218 18.7716 33.077 20.3459Z" fill="white"/>
<path d="M17.7941 9.66052C13.2061 9.66052 9.47266 13.3939 9.47266 17.982C9.47266 22.57 13.2061 26.3034 17.7941 26.3034C22.3821 26.3034 26.1155 22.57 26.1155 17.982C26.1155 13.3939 22.3821 9.66052 17.7941 9.66052ZM17.7941 24.2992C14.3106 24.2992 11.4718 21.4655 11.4718 17.977C11.4718 14.4884 14.3056 11.6547 17.7941 11.6547C21.2826 11.6547 24.1164 14.4884 24.1164 17.977C24.1164 21.4655 21.2826 24.2992 17.7941 24.2992Z" fill="#FE5723"/>
</g>
<defs>
<clipPath id="clip0_104_1854">
<rect width="34.94" height="34.935" fill="white" transform="translate(0.321289 0.514404)"/>
</clipPath>
</defs>
</svg>
