<svg width="36" height="38" viewBox="0 0 36 38" fill="none" xmlns="http://www.w3.org/2000/svg">
<g opacity="0.6" clip-path="url(#clip0_104_1955)">
<path d="M27.2623 37.411C27.6187 37.411 27.9088 37.1183 27.9088 36.7588V31.6157C27.9088 30.5787 28.3688 29.6086 29.1355 29.0274C40.7145 20.2214 35.0078 1.61424 20.5569 0.840688C12.0115 0.251113 4.20379 7.67307 4.29082 16.3034L0.623174 22.2201C-0.0440474 23.2278 0.759933 24.6913 1.96176 24.6537H4.28667V30.3612C4.28667 32.2721 5.82833 33.8318 7.72638 33.8318H9.58714C10.7682 33.8318 11.7297 34.8019 11.7297 35.9936V36.7546C11.7297 37.1142 12.0198 37.4069 12.3762 37.4069C12.7326 37.4069 13.0227 37.1142 13.0227 36.7546V35.9936C13.0227 34.0827 11.4811 32.523 9.583 32.523H7.72224C6.54113 32.523 5.57967 31.5529 5.57967 30.3612V23.9972C5.57967 23.6376 5.28958 23.3449 4.93317 23.3449H1.96176C1.81671 23.3449 1.74626 23.2529 1.71311 23.1985C1.6841 23.1442 1.64265 23.0313 1.72139 22.91L5.48435 16.8387C5.55066 16.7341 5.58382 16.6129 5.58382 16.4916C5.58382 12.5318 7.14619 8.84385 9.98499 6.10923C18.6713 -2.38316 33.4993 3.63385 34.0381 15.81C34.2577 20.5726 32.1359 25.122 28.3564 27.9778C27.2664 28.8058 26.6116 30.1647 26.6116 31.6115V36.7546C26.6116 37.1142 26.9017 37.4069 27.2581 37.4069L27.2623 37.411Z" fill="white"/>
<path d="M16.1137 27.7269C16.6193 31.5487 22.0068 31.557 22.5124 27.7269C23.1506 27.3004 23.0015 26.3345 23.0139 25.6696C23.0139 24.5323 23.5236 23.4577 24.4436 22.6381C27.27 20.2129 27.9207 15.7514 25.9107 12.6154C25.4548 11.8962 24.3691 12.5777 24.8125 13.3095C25.4507 14.3381 25.7905 15.534 25.7905 16.7591C25.7905 18.6324 24.9865 20.4178 23.5899 21.6597C22.8274 22.3329 22.2804 23.1775 21.9778 24.0891H19.9596V18.8331L21.6131 17.7208C22.3177 17.2442 21.6007 16.1612 20.8962 16.6337L19.3131 17.6999L17.73 16.6337C17.4316 16.433 17.0296 16.5124 16.8307 16.8135C16.6318 17.1145 16.7105 17.5201 17.0089 17.7208L18.6624 18.8331V24.0891H16.6442C16.3458 23.1775 15.7946 22.3329 15.0321 21.6597C13.6355 20.4262 12.8357 18.6407 12.8357 16.7591C12.7486 11.7331 18.5506 8.47999 22.7321 11.2104C23.4615 11.6537 24.1328 10.5623 23.4159 10.0982C18.3641 6.83253 11.4639 10.6961 11.5427 16.7549C11.5427 19.0087 12.5041 21.1538 14.1784 22.634C15.4672 23.7378 15.6993 25.1512 15.6082 26.6983C15.6082 27.1164 15.8071 27.4844 16.1096 27.7227L16.1137 27.7269ZM19.3131 29.3116C18.4718 29.3116 17.759 28.7681 17.4896 28.007H21.1324C20.863 28.7639 20.1502 29.3116 19.3089 29.3116H19.3131ZM21.7333 25.3937C21.7209 25.5818 21.7126 26.4976 21.7167 26.7024H16.9053V25.6696C16.9053 25.5777 16.897 25.4857 16.8887 25.3937H21.7333Z" fill="#FE5723"/>
<path d="M19.9639 6.9621V5.39827C19.9639 5.03867 19.6738 4.74597 19.3174 4.74597C18.961 4.74597 18.6709 5.03867 18.6709 5.39827V6.9621C18.6875 7.81929 19.9515 7.81929 19.9639 6.9621Z" fill="#FE5723"/>
<path d="M11.9907 10.2906C12.5916 10.8927 13.5033 9.97277 12.9066 9.36647L11.8125 8.26259C11.5597 8.00752 11.1494 8.00752 10.8966 8.26259C10.6438 8.51765 10.6438 8.93161 10.8966 9.18667L11.9907 10.2906Z" fill="#FE5723"/>
<path d="M8.04928 16.1068C7.19972 16.1235 7.19972 17.3989 8.04928 17.4114H9.59923C10.4488 17.3947 10.4488 16.1194 9.59923 16.1068H8.04928Z" fill="#FE5723"/>
<path d="M10.8927 25.2598C11.1455 25.5149 11.5558 25.5149 11.8086 25.2598L12.9027 24.1559C13.1555 23.9008 13.1555 23.4869 12.9027 23.2318C12.6499 22.9768 12.2396 22.9768 11.9868 23.2318L10.8927 24.3357C10.6399 24.5908 10.6399 25.0047 10.8927 25.2598Z" fill="#FE5723"/>
<path d="M26.8227 25.2598C27.4237 25.8619 28.3354 24.942 27.7386 24.3357L26.6445 23.2318C26.3917 22.9768 25.9815 22.9768 25.7287 23.2318C25.4759 23.4869 25.4759 23.9008 25.7287 24.1559L26.8227 25.2598Z" fill="#FE5723"/>
<path d="M30.5777 17.4156C31.4273 17.3988 31.4273 16.1235 30.5777 16.111H29.0278C28.1782 16.1277 28.1782 17.403 29.0278 17.4156H30.5777Z" fill="#FE5723"/>
<path d="M26.6407 10.2905L27.7347 9.18662C28.3315 8.58032 27.4198 7.66042 26.8189 8.26254L25.7248 9.36642C25.128 9.97272 26.0397 10.8926 26.6407 10.2905Z" fill="#FE5723"/>
</g>
<defs>
<clipPath id="clip0_104_1955">
<rect width="34.94" height="36.6038" fill="white" transform="translate(0.382812 0.807129)"/>
</clipPath>
</defs>
</svg>
