<svg width="8" height="50" viewBox="0 0 8 50" fill="none" xmlns="http://www.w3.org/2000/svg">
<path d="M3.64645 49.6453C3.84171 49.8406 4.15829 49.8406 4.35355 49.6453L7.53553 46.4633C7.7308 46.2681 7.7308 45.9515 7.53553 45.7562C7.34027 45.561 7.02369 45.561 6.82843 45.7562L4 48.5846L1.17157 45.7562C0.976311 45.561 0.659728 45.561 0.464466 45.7562C0.269204 45.9515 0.269204 46.2681 0.464466 46.4633L3.64645 49.6453ZM4.5 0.999901C4.5 0.723758 4.27614 0.499901 4 0.499901C3.72386 0.499901 3.5 0.723758 3.5 0.999901L4.5 0.999901ZM4.5 46.8772C4.5 46.601 4.27614 46.3772 4 46.3772C3.72386 46.3772 3.5 46.601 3.5 46.8772L4.5 46.8772ZM3.5 42.048C3.5 42.3241 3.72386 42.548 4 42.548C4.27614 42.548 4.5 42.3241 4.5 42.048L3.5 42.048ZM4.5 37.2188C4.5 36.9426 4.27614 36.7188 4 36.7188C3.72386 36.7188 3.5 36.9426 3.5 37.2188L4.5 37.2188ZM3.5 32.3896C3.5 32.6657 3.72386 32.8896 4 32.8896C4.27614 32.8896 4.5 32.6657 4.5 32.3896L3.5 32.3896ZM4.5 27.5604C4.5 27.2843 4.27614 27.0604 4 27.0604C3.72386 27.0604 3.5 27.2843 3.5 27.5604L4.5 27.5604ZM3.5 22.7312C3.5 23.0074 3.72386 23.2312 4 23.2312C4.27614 23.2312 4.5 23.0074 4.5 22.7312L3.5 22.7312ZM4.5 17.902C4.5 17.6259 4.27614 17.402 4 17.402C3.72386 17.402 3.5 17.6259 3.5 17.902L4.5 17.902ZM3.5 13.0729C3.5 13.349 3.72386 13.5729 4 13.5729C4.27614 13.5729 4.5 13.349 4.5 13.0729L3.5 13.0729ZM4.5 8.24367C4.5 7.96753 4.27614 7.74367 4 7.74367C3.72386 7.74367 3.5 7.96753 3.5 8.24367L4.5 8.24367ZM3.5 3.41449C3.5 3.69063 3.72386 3.91449 4 3.91449C4.27614 3.91449 4.5 3.69063 4.5 3.41449L3.5 3.41449ZM4.5 49.2917L4.5 46.8772L3.5 46.8772L3.5 49.2917L4.5 49.2917ZM4.5 42.048L4.5 37.2188L3.5 37.2188L3.5 42.048L4.5 42.048ZM4.5 32.3896L4.5 27.5604L3.5 27.5604L3.5 32.3896L4.5 32.3896ZM4.5 22.7312L4.5 17.902L3.5 17.902L3.5 22.7312L4.5 22.7312ZM4.5 13.0729L4.5 8.24367L3.5 8.24367L3.5 13.0729L4.5 13.0729ZM4.5 3.41449L4.5 0.999901L3.5 0.999901L3.5 3.41449L4.5 3.41449Z" fill="white"/>
</svg>
