<svg width="67" height="80" viewBox="0 0 67 80" fill="none" xmlns="http://www.w3.org/2000/svg">
<path d="M33.3866 9.823C1.84401 10.1758 1.80922 56.2995 33.3866 56.6673C64.8795 56.3244 64.9988 10.2057 33.3866 9.823ZM33.3866 54.0085C30.6135 54.098 27.8504 53.6209 25.2661 52.612C22.6819 51.6032 20.3312 50.0824 18.3583 48.1393C16.3853 46.1962 14.8248 43.8753 13.7812 41.3159C12.7376 38.7565 12.2257 36.0133 12.2804 33.2501C12.2257 30.487 12.7376 27.7437 13.7812 25.1843C14.8248 22.6249 16.3803 20.3041 18.3583 18.3609C20.3312 16.4178 22.6819 14.897 25.2661 13.8882C27.8504 12.8794 30.6135 12.4023 33.3866 12.4917C61.4256 12.8346 61.356 53.6904 33.3866 54.0184V54.0085Z" fill="white"/>
<path d="M33.1631 0.0178362C26.0813 0.0874119 19.2032 2.39335 13.5129 6.5977C7.82264 10.7971 3.62326 16.6862 1.50617 23.4151C-3.4834 38.2099 4.67683 56.4934 14.9392 66.3185C20.1972 71.9541 26.4441 76.5908 33.3668 80C46.6458 73.8624 66.793 55.082 66.7532 33.2601C67.1955 15.6028 50.9844 -0.613314 33.1631 0.0178362ZM33.3817 77.1673C27.4579 73.7978 22.0161 69.6531 17.1955 64.8474C7.36543 55.5243 -0.685464 38.2795 4.04568 24.2351C5.9938 18.0081 9.89003 12.5613 15.1579 8.68497C20.4307 4.80862 26.8019 2.70644 33.3569 2.67662C49.6774 2.18959 64.4821 17.0987 64.0845 33.2601C64.2535 53.4221 45.6022 70.6818 33.3768 77.1623L33.3817 77.1673Z" fill="white"/>
<path d="M44.8621 23.7281H41.0553V20.9003C41.0553 20.13 40.7472 19.3896 40.2005 18.8479C39.6539 18.3012 38.9134 17.998 38.1381 17.998H28.8647C28.0894 17.998 27.3489 18.3062 26.8023 18.8479C26.2556 19.3945 25.9475 20.13 25.9475 20.9003V23.7281H22.1407C21.2064 23.7281 20.3119 24.1008 19.6509 24.7568C18.9899 25.4128 18.6172 26.3024 18.6172 27.2317V42.6378C18.6172 43.5671 18.9899 44.4567 19.6509 45.1176C20.3119 45.7736 21.2064 46.1464 22.1407 46.1464H44.8621C45.7964 46.1464 46.691 45.7736 47.3519 45.1176C48.0129 44.4616 48.3856 43.5671 48.3856 42.6378V27.2317C48.3856 26.3024 48.0129 25.4128 47.3519 24.7568C46.691 24.1008 45.7964 23.7281 44.8621 23.7281ZM28.6162 20.9003C28.6162 20.8357 28.641 20.7711 28.6907 20.7264C28.7355 20.6817 28.8001 20.6568 28.8647 20.6568H38.1381C38.5953 20.5376 38.3121 22.4211 38.3866 23.7331H28.6162V20.9053V20.9003ZM45.7119 42.6427C45.7119 42.8664 45.6225 43.085 45.4634 43.2441C45.3044 43.4031 45.0857 43.4925 44.8621 43.4925H22.1407C21.9171 43.4925 21.6984 43.4031 21.5394 43.2441C21.3803 43.085 21.2909 42.8713 21.2909 42.6427V34.2787C29.1181 37.4593 37.8847 37.4593 45.7169 34.2787V42.6427H45.7119ZM45.7119 31.3814C41.8753 33.1109 37.7107 34.0054 33.5014 34.0054C29.2921 34.0054 25.1275 33.1109 21.2909 31.3814V27.7337C21.2909 27.3758 21.435 27.0329 21.6885 26.7795C21.9419 26.526 22.2848 26.3819 22.6476 26.3819H44.3651C44.723 26.3819 45.0708 26.526 45.3243 26.7795C45.5777 27.0329 45.7219 27.3758 45.7219 27.7337V31.3814H45.7119Z" fill="#FE5723"/>
</svg>
