<svg width="154" height="154" viewBox="0 0 154 154" fill="none" xmlns="http://www.w3.org/2000/svg">
<circle cx="76.9998" cy="77.2816" r="76.5389" fill="#FE5723"/>
<path d="M97.7931 69.8201C99.3376 68.8492 100.441 67.3488 100.918 65.5748C101.421 63.7125 101.165 61.7619 100.194 60.0937C98.252 56.7222 93.9802 55.513 90.5645 57.3135L84.0773 46.0691C83.2211 44.5863 81.8266 43.5183 80.1585 43.0682C78.4903 42.618 76.7516 42.8475 75.2688 43.7037C73.786 44.5598 72.7181 45.9543 72.2679 47.6224C71.9325 48.8758 71.9767 50.1732 72.3915 51.3735C69.3112 59.1405 62.7799 67.0664 53.9273 73.8272C53.7861 73.7389 53.636 73.6683 53.4771 73.6242C53.0888 73.5183 52.674 73.5712 52.3209 73.7742L44.0332 78.558C41.2441 80.1643 39.2494 82.7769 38.411 85.9013C37.5725 89.0257 37.9961 92.2826 39.6025 95.0716C41.8355 98.9463 45.9132 101.118 50.0967 101.118C52.1444 101.118 54.2185 100.597 56.125 99.5023L56.6016 99.2287L65.7366 111.153C66.3633 111.974 67.2459 112.459 68.2785 112.556C68.3933 112.565 68.5168 112.574 68.6316 112.574C69.5318 112.574 70.3527 112.256 71.0411 111.638L73.5566 109.352C74.9599 108.081 75.1452 105.99 74.0067 104.489L65.4189 93.2005C75.6219 88.9816 85.6483 87.3311 93.8566 88.5315C95.1011 89.9525 96.8928 90.738 98.7198 90.738C99.8142 90.738 100.918 90.4556 101.933 89.8731C105.013 88.099 106.072 84.1449 104.289 81.0646L97.7931 69.8201ZM97.5636 61.6207C98.1196 62.5915 98.2697 63.7125 97.9784 64.7892C97.7136 65.7778 97.1134 66.6162 96.2661 67.1811L92.1002 59.9614C94.0508 58.9993 96.4603 59.7054 97.5636 61.6207ZM54.6069 96.8545C53.1859 97.6753 51.6325 98.0637 50.0967 98.0637C46.9723 98.0637 43.9273 96.4397 42.2503 93.5447C41.05 91.4618 40.7322 89.0257 41.3589 86.6868C41.9855 84.3479 43.4772 82.3973 45.5601 81.1882L52.5239 77.1723L61.5707 92.8386L54.6069 96.8545ZM71.5795 106.325C71.756 106.563 71.7295 106.89 71.5089 107.093L68.9934 109.379C68.8611 109.502 68.7375 109.538 68.561 109.52C68.3844 109.502 68.2697 109.441 68.1638 109.299L59.2671 97.693L63.2565 95.3894L71.5795 106.325ZM63.786 90.5703L55.5954 76.3868C64.1214 69.9172 70.6351 62.3621 74.2362 54.7892L91.809 85.2305C83.4506 84.5597 73.6536 86.422 63.786 90.5703ZM100.414 87.2252C98.7904 88.1608 96.7074 87.6047 95.7631 85.9807L75.5513 50.994C74.6157 49.37 75.1717 47.2871 76.7957 46.3427C77.3165 46.0426 77.8902 45.8925 78.4815 45.8925C78.7816 45.8925 79.0817 45.9278 79.373 46.0073C80.2556 46.2456 80.9881 46.8016 81.4383 47.5871L101.641 82.5827C102.577 84.2067 102.021 86.2896 100.397 87.234L100.414 87.2252Z" fill="white"/>
<path d="M103.379 59.785C103.635 59.785 103.9 59.7232 104.139 59.582L110.255 56.0515C110.988 55.6279 111.235 54.7011 110.811 53.9685C110.387 53.236 109.461 52.9888 108.728 53.4125L102.612 56.9429C101.879 57.3666 101.632 58.2933 102.056 59.0259C102.338 59.5113 102.85 59.785 103.379 59.785Z" fill="white"/>
<path d="M95.5687 51.2854C95.807 51.4266 96.0718 51.4884 96.3277 51.4884C96.8573 51.4884 97.3692 51.2148 97.6516 50.7294L101.376 44.2775C101.8 43.5449 101.544 42.6182 100.82 42.1945C100.088 41.7709 99.1609 42.0268 98.7372 42.7506L95.0126 49.2024C94.589 49.935 94.8449 50.8617 95.5687 51.2854Z" fill="white"/>
<path d="M114.483 66.9871H107.034C106.195 66.9871 105.507 67.6667 105.507 68.514C105.507 69.3613 106.186 70.0409 107.034 70.0409H114.483C115.321 70.0409 116.01 69.3613 116.01 68.514C116.01 67.6667 115.33 66.9871 114.483 66.9871Z" fill="white"/>
</svg>
