<svg width="83" height="80" viewBox="0 0 83 80" fill="none" xmlns="http://www.w3.org/2000/svg">
<path d="M82.2558 45.3306L73.7228 35.2775C72.9753 34.4041 71.6987 34.1941 70.7077 34.7988L67.4826 31.0278C70.271 27.576 71.7575 23.2592 71.6987 18.8247C71.6399 14.3903 70.0358 10.1154 67.1635 6.73074C63.4597 2.36348 57.9838 -0.105708 52.256 0.00347398C46.5282 0.121054 41.1615 2.8002 37.6257 7.31864C34.0983 11.8287 32.7797 17.6909 34.0479 23.276H1.14221C0.512314 23.276 0 23.7883 0 24.4182V66.0835C0 66.3859 0.11758 66.6714 0.335943 66.8898C0.554307 67.1082 0.839859 67.2257 1.14221 67.2174H22.9953V72.4413H9.14606C8.84371 72.4413 8.55816 72.5589 8.3398 72.7688C8.12143 72.9788 8.00385 73.2727 8.00385 73.5751V78.8662C8.00385 79.1685 8.12143 79.4541 8.3398 79.6725C8.54976 79.8824 8.84371 80 9.14606 80H55.6322C56.2621 80 56.766 79.4961 56.766 78.8662V73.5751C56.766 73.2727 56.6485 72.9872 56.4385 72.7688C56.2285 72.5505 55.9346 72.4329 55.6322 72.4329H41.7914V67.2089H63.6445C63.9468 67.2089 64.2324 67.0914 64.4507 66.8814C64.6607 66.6714 64.7867 66.3775 64.7783 66.0751V42.6263C64.8119 42.6683 64.8539 42.7271 64.8959 42.7691L73.4288 52.8138C73.832 53.2925 74.4031 53.5864 75.0162 53.6368C75.6377 53.6872 76.2508 53.4857 76.7211 53.0909L81.987 48.6229C82.4573 48.2197 82.7513 47.6486 82.8017 47.0272C82.8521 46.4141 82.6589 45.801 82.2558 45.3222V45.3306ZM54.4984 74.7173V77.7324H10.2883V74.7089H54.4984V74.7173ZM25.2629 72.4413V67.2174H39.5153V72.4413H25.2629ZM62.5023 64.9413H2.27602V25.552H34.7114C35.484 27.6936 36.643 29.6757 38.1128 31.4058C39.4146 32.9427 40.9599 34.2697 42.6816 35.3279V42.1728H34.2746V38.8469C34.2746 38.5446 34.157 38.259 33.9471 38.0407C33.7371 37.8223 33.4432 37.7047 33.1408 37.7047H22.4662C22.1639 37.7047 21.8783 37.8223 21.66 38.0407C21.45 38.2506 21.324 38.5446 21.3324 38.8469V45.6666H11.7916C11.4893 45.6666 11.1953 45.7842 10.9854 45.9941C10.7754 46.2125 10.6578 46.498 10.6578 46.8004V60.9688C10.6578 61.5987 11.1701 62.1026 11.8 62.1026H54.5068C55.1367 62.1026 55.6406 61.5903 55.649 60.9688V37.8895C57.9083 37.5368 60.0835 36.7725 62.0656 35.6471L62.5107 36.1762V64.9413H62.5023ZM42.6816 44.4404V59.835H34.2746V44.4404H42.6816ZM31.9986 39.9723V59.8266H23.6V39.9723H31.9986ZM21.324 59.8266H12.917V47.9258H21.3156V59.8266H21.324ZM44.9492 59.8266V36.5037C46.8977 37.3604 48.9722 37.8811 51.097 38.0659C51.8445 38.1247 52.6003 38.1414 53.3562 38.1079V59.8266H44.9492ZM63.5017 31.8593C60.9317 34.0513 57.7571 35.4119 54.3976 35.7647C54.3976 35.7647 54.3557 35.7647 54.3305 35.7647C50.8954 36.1174 47.4268 35.3951 44.4201 33.707C44.3865 33.6818 44.3445 33.665 44.3109 33.6482C40.6408 31.5402 37.8944 28.1387 36.6178 24.1074L36.5926 24.0234C34.9465 18.6987 36.0551 12.9037 39.5405 8.55323C43.0344 4.20277 48.4514 1.86796 54.0029 2.32148C58.4374 2.67422 62.5527 4.78227 65.425 8.1837C68.3057 11.5767 69.7251 15.9776 69.3639 20.4204C69.0028 24.8633 66.8947 28.9702 63.5017 31.8593ZM64.4424 34.95L63.9636 34.3873C64.308 34.1353 64.6439 33.8666 64.9799 33.581C65.3158 33.2955 65.6433 33.0015 65.9457 32.6992L68.9608 36.2266C68.2973 36.7809 67.6422 37.3436 66.9787 37.8979L64.5515 35.0592C64.5179 35.0172 64.4843 34.9752 64.4507 34.9332L64.4424 34.95ZM65.0806 39.5356C64.9631 39.6448 64.8623 39.7624 64.7615 39.8884V38.8217L65.2402 39.3844L65.0722 39.5356H65.0806ZM80.5088 46.8844L75.2429 51.3608C75.2429 51.3608 75.2093 51.3776 75.1841 51.3776C75.1673 51.3776 75.1506 51.3692 75.1422 51.3608L66.6092 41.3161C66.6008 41.2993 66.5924 41.2825 66.5924 41.2573C66.5924 41.2405 66.5924 41.2237 66.6092 41.2153L71.8751 36.7389C71.8751 36.7389 71.9087 36.7221 71.9339 36.7221C71.9507 36.7221 71.9675 36.7221 71.9759 36.7389L80.5088 46.792C80.5088 46.792 80.5256 46.8256 80.5256 46.8424C80.5256 46.8592 80.5256 46.876 80.5088 46.8844Z" fill="white"/>
<path d="M52.6424 13.5167C53.2303 13.5167 53.793 13.7518 54.2046 14.1634C54.6245 14.5749 54.8512 15.1376 54.8512 15.7255C54.8512 16.3554 55.3636 16.8677 55.9851 16.8677C56.6065 16.8677 57.1273 16.3554 57.1273 15.7255C57.1273 13.7182 55.7835 11.9545 53.8518 11.4086V10.1237C53.8518 9.49376 53.3395 8.98145 52.7096 8.98145C52.0797 8.98145 51.5758 9.49376 51.5758 10.1237V11.3582C49.367 11.8958 47.9056 13.9954 48.1744 16.2546C48.4431 18.5138 50.3664 20.2104 52.6424 20.202C53.5411 20.202 54.3389 20.7395 54.6833 21.5625C55.0276 22.3856 54.8344 23.3346 54.2046 23.9729C53.5747 24.6028 52.6172 24.796 51.7942 24.4516C50.9711 24.1073 50.4336 23.301 50.4336 22.4108C50.4336 21.7809 49.9213 21.277 49.2914 21.277C48.6615 21.277 48.1576 21.7893 48.1576 22.4108C48.1576 24.4516 49.5265 26.2321 51.5002 26.7529V28.0126C51.5002 28.6425 52.0125 29.1548 52.6424 29.1548C53.2723 29.1548 53.7846 28.6425 53.7846 28.0126V26.7529C55.9599 26.1733 57.3708 24.0737 57.0769 21.8481C56.7913 19.6141 54.8932 17.9511 52.6508 17.9343C51.433 17.9343 50.442 16.9433 50.442 15.7255C50.442 14.5077 51.433 13.5167 52.6508 13.5167H52.6424Z" fill="#FE5723"/>
<path d="M6.91154 31.1118H15.6629C15.9652 31.1202 16.2676 31.011 16.4859 30.7927C16.7043 30.5743 16.8303 30.2804 16.8303 29.978C16.8303 29.6757 16.7043 29.3817 16.4859 29.1633C16.2676 28.9534 15.9652 28.8358 15.6629 28.8442H6.91154C6.60919 28.8358 6.30685 28.945 6.08848 29.1633C5.87012 29.3817 5.74414 29.6757 5.74414 29.978C5.74414 30.2804 5.87012 30.5743 6.08848 30.7927C6.30685 31.0026 6.60919 31.1202 6.91154 31.1118Z" fill="#FE5723"/>
<path d="M19.9641 36.025C19.9641 35.3951 19.4518 34.8828 18.8219 34.8828H6.90432C6.27442 34.8828 5.77051 35.3951 5.77051 36.025C5.77051 36.6549 6.28282 37.1588 6.90432 37.1588H18.8219C19.4518 37.1588 19.9641 36.6465 19.9641 36.025Z" fill="#FE5723"/>
<path d="M63.7283 10.5606C61.0827 7.11722 56.9926 5.10156 52.6506 5.10156C48.9468 5.10156 45.3942 6.57131 42.7822 9.19167C39.7083 12.2656 38.2386 16.5908 38.8097 20.8909C39.3808 25.191 41.9172 28.9955 45.6797 31.1624C49.4423 33.3376 53.9943 33.6316 58.0089 31.9686C62.0234 30.3057 65.0301 26.8707 66.1555 22.6798C67.2809 18.4805 66.3906 14.0041 63.7367 10.5606H63.7283ZM54.9266 30.5409C49.4507 31.6327 43.9748 28.7016 41.8332 23.5449C39.6999 18.3881 41.5056 12.4419 46.1416 9.34285C50.7777 6.24377 56.9674 6.85687 60.9148 10.7958C63.1152 12.9878 64.3414 15.9609 64.3414 19.06C64.3414 24.6367 60.4024 29.4407 54.9266 30.5325V30.5409Z" fill="#FE5723"/>
<path d="M68.969 36.2349L68.9608 36.2431L68.969 36.2349Z" fill="white"/>
</svg>
