<svg width="80" height="80" viewBox="0 0 80 80" fill="none" xmlns="http://www.w3.org/2000/svg">
<path d="M1.4278 36.9003V36.8967C1.04944 36.8967 0.685356 37.0502 0.417621 37.3179C0.149886 37.5856 0 37.9461 0 38.3245C0 38.7065 0.149914 39.067 0.417621 39.3347C0.685329 39.6024 1.04941 39.7559 1.4278 39.7523H11.3651C13.2283 39.7523 14.6132 41.1087 14.6132 42.7578V71.5882C14.6132 73.2373 13.2283 74.5937 11.3651 74.5937H1.4278C1.04944 74.5937 0.685356 74.7472 0.417621 75.0149C0.149914 75.2826 0 75.6431 0 76.0215C0 76.4034 0.149914 76.7639 0.417621 77.0317C0.685329 77.2994 1.04941 77.4493 1.4278 77.4493H11.3651C14.681 77.4493 17.4688 74.8507 17.4688 71.5883V71.1921L39.7136 79.1198C44.95 81.14 50.593 79.3875 54.1375 76.8425L77.6598 59.5557C80.4261 57.0464 80.3762 53.7483 78.9412 51.471C77.6098 49.4864 75.3575 48.4763 73.1337 48.6725C72.3949 48.7368 71.6595 48.9367 70.9599 49.2793L53.1953 58.0173C52.7706 57.0035 52.0745 56.0862 51.1322 55.3973L35.4446 43.8893C34.0561 42.872 32.3749 42.3223 30.6508 42.3223H17.4441C17.2085 39.2669 14.5315 36.9004 11.3654 36.9004L1.4278 36.9003ZM17.4691 45.1813H30.6511C31.7684 45.1813 32.8535 45.5347 33.7565 46.1951L49.4441 57.6995C50.8683 58.7453 51.2467 60.6585 50.3686 62.1826C49.3799 63.5533 47.6023 64.0637 46.046 63.3926C41.3522 61.7293 36.6369 60.0731 31.9328 58.4133C31.1903 58.1527 30.373 58.5418 30.1124 59.2878C29.8518 60.0303 30.2409 60.8441 30.9833 61.1082L45.0079 66.0483C49.7481 67.2869 52.7464 65.2808 53.6816 60.9618L72.2247 51.8419C73.756 51.0888 75.5585 51.5421 76.5758 53.0591C77.5824 54.5582 77.254 56.2966 75.9619 57.2603L52.4469 74.5398C48.5562 77.0669 44.3514 77.87 40.6711 76.428L40.6604 76.4244C40.6568 76.4244 40.6533 76.4208 40.6533 76.4208L17.5769 68.1969C17.5412 68.1862 17.5055 68.1826 17.4698 68.1719L17.4691 45.1813Z" fill="white"/>
<path d="M69.8891 0.0072713C67.9331 -0.0284234 65.7058 0.167894 63.9674 0.621216C60.6265 1.51 58.4527 3.34827 57.207 5.3721C54.7191 9.42339 55.7221 14.0208 55.7221 14.0208C54.9975 15.0773 54.4407 16.141 53.9981 17.1618C53.3235 15.6912 52.5739 14.5062 51.6994 13.4568C51.7351 12.9785 51.9243 9.44477 49.5863 6.53926C48.3299 4.97945 46.3061 3.67659 43.4291 3.26969C40.5521 2.86278 36.8471 3.28754 31.953 4.95807C31.3034 5.17937 30.9036 5.83257 31.0035 6.51431C31.439 8.43113 32.7561 10.3229 34.0625 11.4936C36.6683 13.7959 41.362 15.8127 49.54 15.4771C49.59 15.47 49.6364 15.4557 49.6864 15.445C49.6899 15.4486 49.6935 15.4521 49.6935 15.4557C51.3604 17.6581 52.1207 19.9996 52.1064 22.5017C43.04 23.4333 35.6192 29.9725 33.428 38.6069C33.2317 39.3708 33.6957 40.1489 34.4596 40.3452C35.2234 40.5379 36.0015 40.0739 36.1943 39.3101C38.2467 31.2253 45.575 25.2325 54.3344 25.2325C64.6856 25.2325 73.0421 33.5814 73.0421 43.9146C73.0421 44.7034 73.681 45.3423 74.4699 45.3423C75.2587 45.3423 75.8976 44.7034 75.8976 43.9146C75.8976 32.3855 66.7849 22.9481 55.3771 22.4017C55.9553 19.9959 56.8833 17.4188 58.0541 15.6662C63.8223 14.7524 70.3718 12.2288 74.6162 8.4702C77.7216 5.65752 78.8746 3.02687 78.8746 3.02687C79.2244 2.2059 78.7425 1.26713 77.8716 1.07085C74.8269 0.392657 72.1854 0.0571107 69.8867 0L69.8891 0.0072713ZM69.8249 2.86637C71.3133 2.90206 73.2551 3.25544 75.1648 3.58739C74.6115 4.35839 73.9012 5.27577 72.6983 6.36087C70.0463 8.76308 65.5988 11.4901 58.4919 12.843C58.3848 12.0327 58.1064 9.36992 59.6413 6.8713C60.5336 5.41859 61.9793 4.10861 64.7028 3.38399C66.6196 2.94852 68.1258 2.87356 69.8213 2.86999L69.8249 2.86637ZM43.0331 6.09308C45.289 6.41433 46.5383 7.2924 47.37 8.32753C48.6942 9.97304 48.7977 11.7863 48.8049 12.6073C41.5982 12.7857 37.8579 11.0295 35.9554 9.35195C35.088 8.5881 34.6776 7.88133 34.367 7.28528C37.3118 6.45717 40.1776 5.88246 43.0331 6.09308Z" fill="white"/>
<path d="M54.3361 29.8945C53.5472 29.8945 52.9083 30.5335 52.9083 31.3223V33.3498H52.6335C50.4419 33.3498 48.6571 35.1773 48.6571 37.3689V39.0965C48.6571 41.2881 50.4418 43.1156 52.6335 43.1156H56.0316C56.6562 43.1156 57.1524 43.6046 57.1524 44.2792V46.0068C57.1524 46.6778 56.6563 47.1704 56.0316 47.1704H50.9345C50.1457 47.1704 49.5067 47.8093 49.5067 48.5982C49.5067 49.387 50.1457 50.0259 50.9345 50.0259H52.9048V52.0534C52.9048 52.8422 53.5437 53.4812 54.3325 53.4812C55.1214 53.4812 55.7603 52.8422 55.7603 52.0534V50.0259H56.0316C58.2232 50.0259 60.008 48.1984 60.008 46.0068V44.2792C60.008 42.0876 58.2233 40.2601 56.0316 40.2601H52.6335C52.0088 40.2601 51.5126 39.7711 51.5126 39.0965V37.3689C51.5126 36.6978 52.0088 36.2053 52.6335 36.2053H57.7341C58.523 36.2053 59.1583 35.5664 59.1583 34.7775C59.1583 33.9887 58.5194 33.3498 57.7341 33.3498H55.7638V31.3223C55.7638 30.5335 55.1249 29.8945 54.3361 29.8945Z" fill="#FE5723"/>
</svg>
