<svg width="78" height="82" viewBox="0 0 78 82" fill="none" xmlns="http://www.w3.org/2000/svg">
<path d="M38.7341 25.1824C33.6366 25.1824 29.5586 29.3453 29.5586 34.3579C29.5586 39.4554 33.7216 43.5334 38.7341 43.5334C43.8316 43.5334 47.9096 39.3704 47.9096 34.3579C47.9946 29.2604 43.8316 25.1824 38.7341 25.1824ZM38.7341 41.7493C34.6561 41.7493 31.3427 38.4359 31.3427 34.3579C31.3427 30.2799 34.6561 26.9665 38.7341 26.9665C42.8121 26.9665 46.1255 30.2799 46.1255 34.3579C46.1255 38.4359 42.8121 41.7493 38.7341 41.7493Z" fill="#FE5723" stroke="#FE5723" stroke-width="0.7"/>
<path d="M19.535 26.2869C14.5225 26.2869 10.4445 30.3649 10.4445 35.3774C10.4445 40.39 14.5225 44.468 19.535 44.468C24.5476 44.468 28.6256 40.39 28.6256 35.3774C28.6256 30.3649 24.5476 26.2869 19.535 26.2869ZM19.535 42.5989C15.542 42.5989 12.3135 39.3705 12.3135 35.3774C12.3135 31.3844 15.542 28.156 19.535 28.156C23.5281 28.156 26.7565 31.3844 26.7565 35.3774C26.7565 39.3705 23.5281 42.5989 19.535 42.5989Z" fill="#FE5723" stroke="#FE5723" stroke-width="0.7"/>
<path d="M59.2954 45.5722H55.2174C53.0084 45.5722 50.7995 46.082 49.0154 47.0165C46.7215 45.4873 43.9179 44.6377 40.9444 44.6377H36.6964C33.7229 44.6377 30.9192 45.4873 28.5404 47.1015C26.5864 46.082 24.3774 45.5722 22.2535 45.5722H18.2604C10.1894 45.5722 3.64758 52.114 3.64758 60.1851V75.5626C3.64758 75.5626 3.64758 75.5626 3.64758 75.6475C3.8175 77.8565 5.68659 79.5556 7.89551 79.5556C8.74509 79.5556 9.59468 79.3008 10.1894 78.791V80.0654C10.1894 80.5751 10.6142 80.915 11.039 80.915C11.4638 80.915 11.8886 80.4902 11.8886 80.0654V75.3077V74.5431V61.4595C11.8886 60.9497 11.4638 60.6099 11.039 60.6099C10.6142 60.6099 10.1044 60.9497 10.1044 61.4595V74.628V75.3927C10.1044 76.667 9.08492 77.6865 7.81055 77.6865C6.53617 77.6865 5.34675 76.5821 5.34675 75.3927V60.1851C5.34675 53.1335 11.039 47.4413 18.0905 47.4413H22.1685C23.8677 47.4413 25.397 47.6962 26.9262 48.3759C23.7827 51.0945 21.8287 55.0876 21.8287 59.5054V60.9497V75.0528V75.2227C21.8287 75.2227 21.8287 75.2227 21.8287 75.3077C21.9137 77.5166 23.7827 79.3857 26.0766 79.3857C26.9262 79.3857 27.7758 79.1308 28.4555 78.6211V80.1503C28.4555 80.6601 28.8802 80.9999 29.305 80.9999C29.7298 80.9999 30.1546 80.5751 30.1546 80.1503V75.0528V74.2032V60.8648C30.1546 60.355 29.7298 60.0152 29.305 60.0152C28.8802 60.0152 28.4555 60.44 28.4555 60.8648V74.1183V74.9679C28.4555 76.2422 27.266 77.4317 26.0766 77.4317C24.8022 77.4317 23.6978 76.2422 23.6978 74.9679V60.8648V59.4205C23.6978 52.199 29.475 46.4218 36.6964 46.4218H40.9444C48.1658 46.4218 53.943 52.199 53.943 59.4205V74.9679C53.943 76.2422 52.6686 77.4317 51.3942 77.4317C50.1199 77.4317 48.9304 76.2422 48.9304 74.9679V74.1183V60.8648C48.9304 60.355 48.5056 60.0152 48.0809 60.0152C47.6561 60.0152 47.2313 60.44 47.2313 60.8648V74.1183V74.9679V80.0654C47.2313 80.5751 47.6561 80.915 48.0809 80.915C48.5056 80.915 48.9304 80.4902 48.9304 80.0654V78.3662C49.6951 78.876 50.5447 79.1308 51.3942 79.1308C53.6032 79.1308 55.6422 77.2617 55.7271 75.0528C55.7271 75.0528 55.7271 75.0528 55.7271 74.9679V59.4205C55.7271 54.9177 53.6881 50.9246 50.5447 48.206C51.819 47.6112 53.4332 47.3564 55.0475 47.3564H59.1255C66.177 47.3564 71.8692 53.0486 71.8692 60.1001V75.3077C71.8692 76.5821 70.6798 77.6016 69.4054 77.6016C68.1311 77.6016 67.1116 76.5821 67.1116 75.3077V74.5431V61.4595C67.1116 60.9497 66.6868 60.6099 66.262 60.6099C65.8372 60.6099 65.4124 61.0347 65.4124 61.4595V74.628V75.3927V80.1503C65.4124 80.6601 65.8372 80.9999 66.262 80.9999C66.6868 80.9999 67.1116 80.5751 67.1116 80.1503V78.876C67.7912 79.3008 68.5558 79.6406 69.4054 79.6406C71.6143 79.6406 73.5684 77.8565 73.6534 75.7325C73.6534 75.7325 73.6534 75.7325 73.6534 75.6475V60.1001C73.9082 52.114 67.3664 45.5722 59.2954 45.5722Z" fill="white" stroke="white" stroke-width="0.7"/>
<path d="M49.0148 35.2925C49.0148 40.305 53.0928 44.383 58.1053 44.383C63.1179 44.383 67.1959 40.305 67.1959 35.2925C67.1959 30.2799 63.1179 26.2019 58.1053 26.2019C53.0078 26.2869 49.0148 30.2799 49.0148 35.2925ZM65.3268 35.2925C65.3268 39.2855 62.0984 42.5139 58.1053 42.5139C54.1123 42.5139 50.8839 39.2855 50.8839 35.2925C50.8839 31.2994 54.1123 28.071 58.1053 28.071C62.0134 28.071 65.3268 31.2994 65.3268 35.2925Z" fill="#FE5723" stroke="#FE5723" stroke-width="0.7"/>
<path d="M38.7344 18.8103C39.0742 18.8103 39.414 18.4705 39.414 18.1307V4.11253C39.414 3.7727 39.0742 3.43286 38.7344 3.43286C38.3945 3.43286 38.0547 3.7727 38.0547 4.11253V18.1307C38.0547 18.5555 38.3096 18.8103 38.7344 18.8103Z" fill="white" stroke="white" stroke-width="0.7"/>
<path d="M27.4353 22.3785C27.6052 22.5484 27.7751 22.7183 28.03 22.7183C28.115 22.7183 28.2849 22.7183 28.3699 22.6334C28.7097 22.4635 28.7947 22.0387 28.6247 21.6988L20.7236 8.70018C20.5537 8.36035 20.1289 8.27539 19.7891 8.44531C19.4492 8.61523 19.3643 9.04002 19.5342 9.37985L27.4353 22.3785Z" fill="white" stroke="white" stroke-width="0.7"/>
<path d="M33.4671 22.1237C33.552 22.3786 33.8069 22.6335 34.1467 22.6335C34.2317 22.6335 34.2317 22.6335 34.3166 22.6335C34.6565 22.5485 34.9114 22.1237 34.7414 21.7839L30.9183 8.61535C30.8333 8.27552 30.4086 8.02064 30.0687 8.19056C29.7289 8.27552 29.474 8.70031 29.6439 9.04014L33.4671 22.1237Z" fill="white" stroke="white" stroke-width="0.7"/>
<path d="M28.1996 4.28251C28.2845 4.53738 28.5394 4.79226 28.8792 4.79226C28.9642 4.79226 28.9642 4.79226 29.0492 4.79226C29.389 4.7073 29.6439 4.28251 29.4739 3.94267L28.7943 1.47888C28.7093 1.13904 28.2845 0.884168 27.9447 1.05408C27.6049 1.13904 27.35 1.56384 27.5199 1.90367L28.1996 4.28251Z" fill="white" stroke="white" stroke-width="0.7"/>
<path d="M45.6161 14.8172C45.701 14.8172 45.701 14.8172 45.786 14.8172C46.1258 14.8172 46.3807 14.6473 46.4656 14.3074L48.6746 5.04696C48.7595 4.70713 48.5047 4.28233 48.1648 4.19737C47.825 4.11242 47.4002 4.36729 47.3152 4.70713L45.1063 13.9676C45.0214 14.3074 45.2762 14.7322 45.6161 14.8172Z" fill="white" stroke="white" stroke-width="0.7"/>
<path d="M47.6565 22.8883C47.7415 22.9733 47.8264 22.9733 47.9114 22.9733C48.1663 22.9733 48.4212 22.8033 48.5061 22.5485L53.9435 10.9092C54.1134 10.5693 53.9435 10.1445 53.6036 9.97462C53.2638 9.8047 52.839 9.97462 52.6691 10.3145L47.2317 21.9538C47.1468 22.2936 47.3167 22.7184 47.6565 22.8883Z" fill="white" stroke="white" stroke-width="0.7"/>
<path d="M53.2623 24.5874C53.4322 24.6723 53.5172 24.7573 53.6871 24.7573C53.857 24.7573 54.1119 24.6723 54.1969 24.5024L64.137 12.8631C64.3919 12.6082 64.3069 12.1834 64.0521 11.9286C63.7972 11.6737 63.3724 11.7586 63.1175 12.0135L53.2623 23.6528C53.0074 23.9077 53.0074 24.3325 53.2623 24.5874Z" fill="white" stroke="white" stroke-width="0.7"/>
<path d="M65.7504 10.5696C65.9204 10.5696 66.1752 10.4846 66.2602 10.3147L67.2797 9.04034C67.5346 8.78546 67.4496 8.36067 67.1947 8.1058C66.9399 7.85092 66.5151 7.93588 66.2602 8.19076L65.2407 9.46513C64.9858 9.72001 65.0708 10.1448 65.3256 10.3997C65.4106 10.4846 65.5805 10.5696 65.7504 10.5696Z" fill="white" stroke="white" stroke-width="0.7"/>
<path d="M62.6077 25.6071C62.7776 25.777 62.9475 25.8619 63.1174 25.8619C63.2874 25.8619 63.4573 25.777 63.5422 25.692L69.8291 20.1697C70.084 19.9149 70.169 19.4901 69.9141 19.2352C69.6592 18.9803 69.2344 18.8954 68.9796 19.1502L62.6926 24.6725C62.4378 24.9274 62.4378 25.3522 62.6077 25.6071Z" fill="white" stroke="white" stroke-width="0.7"/>
<path d="M20.2134 24.4174C20.3833 24.5874 20.5532 24.5874 20.7231 24.5874C20.893 24.5874 21.063 24.5024 21.2329 24.4174C21.4877 24.1626 21.4877 23.7378 21.2329 23.4829L12.4821 14.8171C12.2273 14.5623 11.8025 14.5623 11.5476 14.8171C11.2927 15.072 11.2927 15.4968 11.5476 15.7517L20.2134 24.4174Z" fill="white" stroke="white" stroke-width="0.7"/>
<path d="M12.4836 27.5609C12.5686 27.6459 12.7385 27.6459 12.8235 27.6459C13.0783 27.6459 13.2483 27.5609 13.4182 27.3061C13.5881 26.9662 13.5881 26.5414 13.2483 26.3715L7.81092 22.7183C7.47109 22.5484 7.0463 22.5484 6.87638 22.8882C6.70646 23.2281 6.70646 23.6528 7.0463 23.8228L12.4836 27.5609Z" fill="white" stroke="white" stroke-width="0.7"/>
<path d="M68.1306 29.3456C68.2156 29.6004 68.4705 29.7703 68.8103 29.7703C68.8952 29.7703 68.9802 29.7703 69.0652 29.7703L73.9928 27.9862C74.3326 27.8163 74.5025 27.4765 74.4175 27.1366C74.2476 26.7968 73.9078 26.6269 73.568 26.7118L68.6404 28.496C68.2156 28.5809 68.0457 29.0057 68.1306 29.3456Z" fill="white" stroke="white" stroke-width="0.7"/>
<path d="M76.032 40.8147H67.706C67.3662 40.8147 67.0264 41.1545 67.0264 41.4944C67.0264 41.8342 67.3662 42.174 67.706 42.174H76.032C76.3718 42.174 76.7116 41.8342 76.7116 41.4944C76.7116 41.1545 76.3718 40.8147 76.032 40.8147Z" fill="white" stroke="white" stroke-width="0.7"/>
<path d="M10.1033 41.4944C10.1033 41.1545 9.76342 40.8147 9.42359 40.8147H1.77732C1.43749 40.8147 1.09766 41.1545 1.09766 41.4944C1.09766 41.8342 1.43749 42.174 1.77732 42.174H9.42359C9.76342 42.174 10.1033 41.8342 10.1033 41.4944Z" fill="white" stroke="white" stroke-width="0.7"/>
<path d="M1.60791 35.9719L8.57451 36.7365H8.65947C8.9993 36.7365 9.25418 36.4817 9.33913 36.1418C9.42409 35.802 9.08426 35.4622 8.74443 35.3772L1.77783 34.6126C1.438 34.5276 1.09816 34.8674 1.0132 35.2073C0.928246 35.5471 1.26808 35.9719 1.60791 35.9719Z" fill="white" stroke="white" stroke-width="0.7"/>
<path d="M76.7963 33.678L72.4634 34.0178C72.1236 34.0178 71.7837 34.3576 71.8687 34.7824C71.8687 35.1223 72.2085 35.3771 72.5483 35.3771C72.5483 35.3771 72.5483 35.3771 72.6333 35.3771L76.9662 35.0373C77.306 35.0373 77.6459 34.6975 77.5609 34.2727C77.4759 33.9329 77.2211 33.678 76.7963 33.678Z" fill="white" stroke="white" stroke-width="0.7"/>
<path d="M6.1113 30.7898L8.32022 31.3845C8.40518 31.3845 8.40518 31.3845 8.49014 31.3845C8.82997 31.3845 9.08485 31.2145 9.1698 30.8747C9.25476 30.5349 9.08485 30.1101 8.66005 30.0251L6.45113 29.4304C6.1113 29.3455 5.68651 29.5154 5.60155 29.9402C5.51659 30.365 5.77147 30.7048 6.1113 30.7898Z" fill="white" stroke="white" stroke-width="0.7"/>
</svg>
