<svg width="80" height="82" viewBox="0 0 80 82" fill="none" xmlns="http://www.w3.org/2000/svg">
<path fill-rule="evenodd" clip-rule="evenodd" d="M66.2887 14.6058C66.9167 15.5697 67.282 16.7201 67.282 17.9544C67.282 21.344 64.525 24.101 61.1378 24.101C59.3277 24.101 57.698 23.3149 56.5724 22.0662L41.5662 31.2792C41.8319 31.9659 41.9778 32.7119 41.9778 33.4913C41.9751 36.881 39.2181 39.638 35.8309 39.638C33.5768 39.638 31.6023 38.4185 30.5325 36.6045L16.5861 41.6773C16.6417 42.0089 16.6707 42.3495 16.6707 42.6966C16.6707 46.0863 13.9137 48.8433 10.5241 48.8433C7.13455 48.8433 4.37988 46.0863 4.37988 42.6966C4.37988 39.307 7.13685 36.55 10.5241 36.55C12.7766 36.55 14.7516 37.7693 15.8219 39.5831L29.7687 34.5102C29.7464 34.3766 29.7283 34.2416 29.7148 34.1053C29.6946 33.9033 29.6844 33.6985 29.6844 33.4913C29.6844 30.1017 32.4414 27.3447 35.8309 27.3447C37.6417 27.3447 39.2716 28.1313 40.3975 29.3807L55.4032 20.1681C55.1371 19.4809 54.9912 18.7344 54.9912 17.9544C54.9912 14.5648 57.7482 11.8078 61.1378 11.8078C62.4901 11.8078 63.7412 12.2465 64.7566 12.9891L74.7455 3.51578L68.915 4.04297C68.304 4.09893 67.7589 3.6463 67.7054 3.03309C67.6519 2.41989 68.102 1.87726 68.7153 1.82373L77.6467 1.01709C78.0027 0.954117 78.3831 1.06545 78.6507 1.3468C78.8874 1.5959 78.9855 1.92644 78.9482 2.24345C78.9461 2.26341 78.9435 2.28319 78.9402 2.30309L77.4462 11.2408C77.3561 11.7834 76.8839 12.1679 76.3488 12.1679C76.3219 12.1679 76.2951 12.1669 76.2682 12.165C76.234 12.1627 76.1993 12.1587 76.1637 12.1533C75.5579 12.0511 75.1466 11.4768 75.2488 10.8709L76.1946 5.21117L66.2887 14.6058ZM32.1781 34.9101C32.1705 34.8831 32.1617 34.8563 32.1519 34.8296L32.1358 34.7881L32.1208 34.7534C31.9863 34.358 31.9133 33.9342 31.9133 33.4938C31.9133 31.3329 33.6702 29.5761 35.8309 29.5761C37.0593 29.5761 38.1585 30.145 38.8776 31.0336C38.8916 31.2016 38.9442 31.3691 39.038 31.5227C39.1333 31.6761 39.2597 31.7989 39.404 31.8876C39.6254 32.3779 39.7488 32.9217 39.7488 33.4938C39.7488 35.6546 37.9917 37.4115 35.8309 37.4115C34.1694 37.4115 32.7467 36.3726 32.1781 34.9101ZM61.1378 14.0391C58.977 14.0391 57.2202 15.796 57.2202 17.9568C57.2202 20.1176 58.977 21.8745 61.1378 21.8745C63.2985 21.8745 65.0556 20.1176 65.0556 17.9568C65.0556 15.796 63.2962 14.0391 61.1378 14.0391ZM6.60645 42.6991C6.60645 40.5382 8.36335 38.7814 10.5241 38.7814C12.6849 38.7814 14.442 40.5382 14.442 42.6991C14.442 44.8599 12.6849 46.6168 10.5241 46.6168C8.36335 46.6168 6.60645 44.8599 6.60645 42.6991Z" fill="#FE5723" stroke="#FE5723" stroke-width="0.5"/>
<path fill-rule="evenodd" clip-rule="evenodd" d="M52.7249 81.0002H69.5466C70.1623 81.0002 70.6611 80.5015 70.6611 79.8858V40.4656C70.6611 39.8499 70.1623 39.3511 69.5466 39.3511H52.7249C52.1092 39.3511 51.6104 39.8499 51.6104 40.4656V79.8858C51.6104 80.5015 52.1092 81.0002 52.7249 81.0002ZM68.4321 78.7713H53.8394V41.5825H68.4321V78.7713Z" fill="white" stroke="white" stroke-width="0.5"/>
<path fill-rule="evenodd" clip-rule="evenodd" d="M27.4192 81.0001H44.2409C44.8566 81.0001 45.3554 80.5013 45.3554 79.8856V52.1186C45.3554 51.503 44.8566 51.0042 44.2409 51.0042H27.4192C26.8035 51.0042 26.3047 51.503 26.3047 52.1186V79.8856C26.3047 80.5013 26.8035 81.0001 27.4192 81.0001ZM43.1264 78.7712H28.5337V53.2332H43.1264V78.7712Z" fill="white" stroke="white" stroke-width="0.5"/>
<path fill-rule="evenodd" clip-rule="evenodd" d="M18.9362 80.9998H2.11449C1.49879 80.9998 1 80.5011 1 79.8854V65.7136C1 65.098 1.49879 64.5991 2.11449 64.5991H18.9362C19.5519 64.5991 20.0507 65.098 20.0507 65.7136V79.8854C20.0483 80.5011 19.5493 80.9998 18.9362 80.9998ZM3.22898 78.7709H17.8217V66.828H3.22898V78.7709Z" fill="white" stroke="white" stroke-width="0.5"/>
</svg>
