<svg width="80" height="80" viewBox="0 0 80 80" fill="none" xmlns="http://www.w3.org/2000/svg">
<g clip-path="url(#clip0_15_106)">
<path d="M2.39111 40C2.39111 19.253 19.36 2.36906 40.2222 2.36906C46.0711 2.36906 51.6889 3.66851 56.9333 6.24088C56.8178 6.65635 56.7644 7.08066 56.7644 7.50497C56.7644 10.1569 58.9333 12.3227 61.6089 12.3227C64.2844 12.3227 66.4356 10.1657 66.4356 7.50497C66.4356 4.8442 64.2756 2.70497 61.6089 2.70497C60.3022 2.70497 59.04 3.23536 58.1333 4.18122C52.5778 1.44972 46.3911 0 40.2311 0C18.0444 0 0 17.9447 0 40C0 43.6243 0.48 47.1956 1.43111 50.6077C1.57333 51.1204 2.04444 51.474 2.57778 51.474C2.69333 51.474 2.8 51.4564 2.89778 51.4298C3.20889 51.3414 3.45778 51.147 3.61778 50.8729C3.77778 50.5989 3.81333 50.2807 3.73333 49.9713C2.84444 46.7536 2.4 43.4033 2.4 39.9912L2.39111 40ZM59.4578 6.34696H59.5556V6.18785C60.0178 5.49834 60.7822 5.08287 61.6089 5.08287C62.9511 5.08287 64.0444 6.17017 64.0444 7.50497C64.0444 8.83978 62.9511 9.94475 61.6089 9.94475C60.2667 9.94475 59.1467 8.84862 59.1467 7.50497C59.1467 7.10718 59.2533 6.70939 59.4578 6.34696Z" fill="#FE5723"/>
<path d="M78.9956 44.6143C78.6845 44.5701 78.3733 44.6408 78.1156 44.8265C77.8578 45.0121 77.6889 45.295 77.6356 45.6132C74.8978 63.8673 58.8178 77.6309 40.2222 77.6309C34.4445 77.6309 28.6667 76.2872 23.4934 73.7502C23.6089 73.3348 23.6622 72.9104 23.6622 72.4773C23.6622 69.8342 21.5022 67.6773 18.8356 67.6773C16.1689 67.6773 14.0089 69.8254 14.0089 72.4773C14.0089 75.1292 16.1689 77.295 18.8356 77.295C20.1334 77.295 21.3956 76.7557 22.3022 75.8187C27.84 78.5591 34.0267 80.0088 40.2134 80.0088C59.9734 80.0088 77.0756 65.379 79.9822 45.9668C80.08 45.3215 79.6267 44.7204 78.9778 44.6232L78.9956 44.6143ZM18.8445 74.9171C17.5022 74.9171 16.4089 73.8209 16.4089 72.4773C16.4089 71.1336 17.5022 70.0552 18.8445 70.0552C20.1867 70.0552 21.2889 71.1425 21.2889 72.4773C21.2889 73.8121 20.1956 74.9171 18.8445 74.9171Z" fill="#FE5723"/>
<path d="M18.3467 62.8156C18.3911 62.8598 18.4356 62.8863 18.4445 62.8863C24.3645 68.4642 32.0978 71.5316 40.2222 71.5316C48.3467 71.5316 56.0445 68.473 61.9645 62.9128C62 62.8863 62.0533 62.8598 62.0978 62.8156C62.1333 62.7802 62.1511 62.736 62.1511 62.736C68.4533 56.7161 71.92 48.6454 71.92 39.9913C71.92 31.3371 68.4533 23.2576 62.1689 17.2642C62.16 17.2377 62.1333 17.2023 62.0978 17.1669C62.0533 17.1228 62.0089 17.0874 61.9556 17.0609C56.0444 11.5095 48.3289 8.45093 40.2222 8.45093C32.0978 8.45093 24.3645 11.5183 18.4445 17.0962C18.4178 17.1139 18.3822 17.1316 18.3556 17.1669C18.32 17.2023 18.2933 17.2465 18.32 17.22C11.9911 23.2487 8.51556 31.3371 8.51556 40.0001C8.51556 48.6631 11.9911 56.7338 18.3111 62.7537L18.3556 62.8156H18.3467ZM41.4222 67.9957V54.8774C43.4933 54.957 45.5822 55.2664 47.6445 55.7968C47.6267 55.9471 47.6267 56.0797 47.6267 56.2123C47.6267 57.5029 48.16 58.7404 49.0933 59.6421C46.9956 62.8156 44.4178 65.6266 41.4222 67.9957ZM44.0089 68.9327C46.7822 66.5636 49.1822 63.841 51.1556 60.8266C51.5645 60.9415 52 61.0034 52.4445 61.0034C53.8045 61.0034 55.0844 60.4377 56 59.4476C57.1911 60.2078 58.3467 61.0653 59.4489 62.02C55.0578 65.8211 49.7422 68.2078 44.0178 68.9415L44.0089 68.9327ZM54.88 56.2034C54.88 57.5382 53.7867 58.6255 52.4445 58.6255C51.1022 58.6255 50.0089 57.5382 50.0089 56.2034C50.0089 54.8686 51.1022 53.7548 52.4445 53.7548C52.7645 53.7548 53.0756 53.8167 53.3778 53.9404L53.4667 53.7371L53.4311 53.9669C54.3111 54.3559 54.88 55.2399 54.88 56.2034ZM61.1822 60.3758C59.9022 59.2531 58.5333 58.2366 57.12 57.3437C57.2178 56.9725 57.2622 56.5924 57.2622 56.2034C57.2622 54.6918 56.5422 53.2598 55.3245 52.3493C56.56 48.7338 57.2533 44.9857 57.3689 41.1935H69.5022C69.2089 48.3979 66.2578 55.1957 61.1822 60.3758ZM69.5022 38.8244H57.36C57.2 33.7946 56.08 28.9504 54.0267 24.389C56.6045 23.1515 59.0133 21.5515 61.1822 19.6421C66.2578 24.8134 69.2089 31.6111 69.4933 38.8244H69.5022ZM59.44 18.0156C57.4756 19.7128 55.3067 21.1448 52.9778 22.2587C50.72 17.989 47.7067 14.2321 44 11.0852C49.7245 11.8189 55.04 14.2056 59.44 18.0156ZM41.4133 12.0222C45.3067 15.0896 48.4622 18.8553 50.8 23.2134C47.8133 24.3625 44.6667 25.0078 41.4133 25.1404V12.031V12.0222ZM41.4133 27.5095C45.0222 27.3769 48.5333 26.652 51.84 25.3526C53.7689 29.6134 54.8178 34.1393 54.9689 38.8244H41.4133V27.5095ZM41.4133 41.1935H54.9867C54.8711 44.6852 54.24 48.1327 53.12 51.4388C51.2178 51.1736 49.4578 52.0045 48.4267 53.5515C46.1156 52.9415 43.7511 52.5968 41.4133 52.5084V41.1935ZM20.9956 62.0111C22.9511 60.3139 25.12 58.8907 27.4489 57.7681C29.7067 62.0288 32.7289 65.7857 36.4356 68.9327C30.72 68.199 25.3956 65.8123 20.9956 62.0111ZM39.0311 68.0045C35.1289 64.9283 31.9645 61.1625 29.6356 56.8134C32.6311 55.6642 35.7867 55.0189 39.0311 54.8863V68.0045ZM39.0311 52.5172C35.4222 52.6498 31.9111 53.3747 28.5867 54.683C26.6578 50.431 25.6089 45.8962 25.4489 41.2023H39.0222V52.5172H39.0311ZM27.3333 28.5614C29.2178 28.8355 30.9778 27.9868 32 26.4664C34.32 27.0763 36.6845 27.4299 39.0311 27.5183V38.8332H25.4489C25.5645 35.3681 26.1956 31.9117 27.3422 28.5703L27.3333 28.5614ZM25.5467 23.8145C25.5467 22.4797 26.64 21.3924 27.9822 21.3924C29.3245 21.3924 30.4178 22.4797 30.4178 23.8145C30.4178 25.1493 29.3245 26.2366 27.9822 26.2366C26.64 26.2366 25.5467 25.1493 25.5467 23.8145ZM39.0311 12.0134V25.1493C36.9422 25.0697 34.8445 24.7603 32.7911 24.2299C32.8089 24.0797 32.8089 23.9471 32.8089 23.8233C32.8089 22.5327 32.2756 21.2951 31.3422 20.3935C33.4667 17.1758 36.0445 14.3647 39.0311 12.0222V12.0134ZM36.4178 11.094C33.6711 13.4277 31.28 16.1504 29.28 19.2001C28.8622 19.0852 28.4267 19.0233 27.9822 19.0233C26.6311 19.0233 25.3511 19.589 24.4356 20.5791C23.2178 19.8012 22.0622 18.9437 20.9956 18.0156C25.3867 14.2145 30.7022 11.8277 36.4178 11.094ZM19.2533 19.6421C20.4978 20.7382 21.8578 21.746 23.3067 22.6653C23.2089 23.0454 23.1645 23.4344 23.1645 23.8145C23.1645 25.3349 23.8933 26.7581 25.12 27.6686C23.8667 31.3018 23.1733 35.0498 23.0578 38.8332H10.9245C11.2178 31.62 14.1689 24.8222 19.2533 19.6509V19.6421ZM23.0667 41.2023C23.2267 46.2321 24.3467 51.0852 26.4089 55.6377C23.8222 56.8841 21.4222 58.4752 19.2533 60.3846C14.1689 55.2045 11.2178 48.4067 10.9245 41.2023H23.0578H23.0667Z" fill="white"/>
</g>
<defs>
<clipPath id="clip0_15_106">
<rect width="80.0089" height="80" fill="white"/>
</clipPath>
</defs>
</svg>
