<svg width="93" height="73" viewBox="0 0 93 73" fill="none" xmlns="http://www.w3.org/2000/svg">
<g clip-path="url(#clip0_15_95)">
<path d="M84.2559 37.8269C88.9983 37.8269 92.85 33.9752 92.85 29.2328C92.85 24.4904 88.9903 20.6387 84.2559 20.6387C79.5215 20.6387 75.6618 24.4904 75.6618 29.2328C75.6618 29.8186 75.734 30.3803 75.8383 30.934C71.4731 32.25 67.5572 32.3463 64.2431 31.0704C59.3081 29.1686 54.9509 23.9448 51.2597 15.5994C53.5627 14.0186 55.0231 11.4669 55.0231 8.60216C55.0231 3.85976 51.1634 0.00805664 46.429 0.00805664C41.6946 0.00805664 37.8349 3.85976 37.8349 8.60216C37.8349 11.4829 39.3114 14.0427 41.5983 15.6074C37.9071 23.9448 33.5499 29.1767 28.6229 31.0704C25.3089 32.3463 21.393 32.25 17.0197 30.934C17.124 30.3883 17.1962 29.8266 17.1962 29.2328C17.1962 24.4904 13.3365 20.6387 8.60213 20.6387C3.86775 20.6387 0 24.4904 0 29.2328C0 33.9752 3.85972 37.8269 8.5941 37.8269C9.06754 37.8269 9.50086 37.7788 9.93417 37.7066L16.4259 55.0231H20.101L13.1519 36.5109C13.3124 36.4146 13.4488 36.2782 13.6013 36.1659C13.8982 35.9492 14.2031 35.7486 14.4679 35.4918C14.6124 35.3554 14.7327 35.1949 14.8611 35.0425C15.1099 34.7696 15.3667 34.5048 15.5833 34.2079C15.5914 34.1919 15.6074 34.1758 15.6235 34.1598C20.9115 35.8289 25.678 35.861 29.8346 34.2641C35.6443 32.0253 40.6515 26.2237 44.7278 17.0197C45.8111 17.2364 47.0148 17.2364 48.0901 17.0197C52.1664 26.2237 57.1736 32.0253 62.9833 34.2641C67.1399 35.8529 71.9144 35.8208 77.1945 34.1598C77.2105 34.1758 77.2265 34.1919 77.2346 34.2079C77.4593 34.5209 77.716 34.7937 77.9728 35.0665C78.1012 35.203 78.2055 35.3554 78.3339 35.4758C78.7432 35.861 79.1845 36.214 79.6579 36.5029L72.7169 55.0071H76.392L82.8837 37.6905C83.317 37.7547 83.7584 37.8109 84.2238 37.8109L84.2559 37.8269ZM13.2964 31.3673C12.7267 32.6191 11.6755 33.5901 10.3595 34.0635C9.83788 34.2802 9.26012 34.3845 8.60213 34.3845C5.7615 34.3845 3.44246 32.0734 3.44246 29.2248C3.44246 26.3761 5.75347 24.0651 8.60213 24.0651C11.4508 24.0651 13.7618 26.3761 13.7618 29.2248C13.7618 30.0032 13.6093 30.7093 13.2964 31.3673ZM48.3629 13.3606C47.5123 13.7538 46.4049 13.8501 45.426 13.6575C45.0889 13.5853 44.7599 13.481 44.447 13.3365C42.5211 12.5341 41.2774 10.6805 41.2774 8.59413C41.2774 5.75351 43.5884 3.43446 46.437 3.43446C49.2857 3.43446 51.5967 5.74548 51.5967 8.59413C51.5967 10.6724 50.3529 12.5341 48.3709 13.3606H48.3629ZM79.5536 31.3352C79.2567 30.7173 79.1043 30.0032 79.1043 29.2248C79.1043 26.3842 81.4153 24.0651 84.2639 24.0651C87.1126 24.0651 89.4236 26.3761 89.4236 29.2248C89.4236 32.0734 87.1126 34.3845 84.2639 34.3845C83.6059 34.3845 83.0282 34.2801 82.4344 34.0394C81.1826 33.5901 80.1394 32.6191 79.5536 31.3352Z" fill="white"/>
<path d="M20.1091 55.0232H15.479C10.7366 55.0232 6.88489 58.8749 6.88489 63.6173C6.88489 68.3597 10.7446 72.2114 15.479 72.2114H77.379C82.1214 72.2114 85.9731 68.3597 85.9731 63.6173C85.9731 58.8749 82.1134 55.0232 77.379 55.0232H20.1091ZM77.379 58.4656C80.2196 58.4656 82.5387 60.7767 82.5387 63.6253C82.5387 66.474 80.2276 68.785 77.379 68.785H15.479C12.6384 68.785 10.3193 66.474 10.3193 63.6253C10.3193 60.7767 12.6303 58.4656 15.479 58.4656H77.379Z" fill="#FE5723"/>
</g>
<defs>
<clipPath id="clip0_15_95">
<rect width="92.85" height="72.2193" fill="white"/>
</clipPath>
</defs>
</svg>
