<svg width="80" height="80" viewBox="0 0 80 80" fill="none" xmlns="http://www.w3.org/2000/svg">
<path d="M40 0C17.9448 0 0 17.9448 0 40C0 62.0552 17.9448 80 40 80C62.0552 80 80 62.0552 80 40C80 17.9448 62.0552 0 40 0ZM40 77.2414C19.4621 77.2414 2.75862 60.5379 2.75862 40C2.75862 19.4621 19.4621 2.75862 40 2.75862C60.5379 2.75862 77.2414 19.4621 77.2414 40C77.2414 60.5379 60.5379 77.2414 40 77.2414Z" fill="white"/>
<path d="M58.0278 24.276C57.4485 24.7725 57.3933 25.6415 57.8899 26.2208C65.214 34.7173 64.9795 47.3242 57.3382 55.5587C50.5796 62.8277 39.9864 64.5794 31.3796 60.2622L38.1382 59.4484C38.8968 59.3518 39.4347 58.676 39.3382 57.9173C39.2416 57.1587 38.5658 56.6208 37.8071 56.7173L27.1589 58.0001C26.8002 58.0415 26.4968 58.2484 26.2761 58.5242C26.2623 58.5518 26.2347 58.5518 26.2209 58.5794C26.2209 58.5794 26.2209 58.5932 26.2071 58.5932C26.1796 58.6208 26.152 58.6346 26.1382 58.676C26.0968 58.7449 26.0968 58.8277 26.0692 58.9104C26.0278 59.007 26.0002 59.0898 25.9864 59.1863C25.9727 59.2553 25.9727 59.338 25.9727 59.407C25.9727 59.5587 26.0002 59.6967 26.0416 59.8346C26.0554 59.8622 26.0416 59.8898 26.0554 59.9036L29.9175 69.2691C30.1382 69.807 30.6485 70.1242 31.1864 70.1242C31.3658 70.1242 31.5451 70.0966 31.7106 70.0139C32.414 69.7242 32.7451 68.9104 32.4554 68.207L30.2071 62.7587C33.683 64.4829 37.4485 65.3518 41.2002 65.3518C47.8761 65.3518 54.4968 62.6622 59.352 57.4346C67.9589 48.1794 68.2209 33.9863 59.9727 24.4139C59.4761 23.8346 58.5933 23.7794 58.0278 24.276Z" fill="#FE5723"/>
<path d="M49.8061 19.7657L43.0475 20.5795C42.2889 20.676 41.751 21.3519 41.8475 22.1105C41.9303 22.814 42.5234 23.3243 43.213 23.3243C43.2682 23.3243 43.3234 23.3243 43.3786 23.3105L54.0268 22.0277C54.3855 21.9864 54.6889 21.7795 54.9096 21.5036C54.9234 21.476 54.951 21.476 54.9648 21.4484C54.9648 21.4484 54.9648 21.4346 54.9786 21.4346C55.0061 21.4071 55.0337 21.3933 55.0475 21.3519C55.0889 21.2829 55.0889 21.2002 55.1165 21.1174C55.1579 21.0209 55.1855 20.9381 55.1992 20.8415C55.213 20.7726 55.213 20.6898 55.213 20.6209C55.213 20.4691 55.1855 20.3312 55.1441 20.1933C55.1303 20.1657 55.1441 20.1381 55.1303 20.1243L51.2682 10.7588C50.9786 10.0553 50.1648 9.7243 49.4613 10.014C48.7579 10.3036 48.4268 11.1174 48.7165 11.8209L50.9648 17.2553C41.3096 12.4415 29.4061 14.414 21.8199 22.5795C13.213 31.8346 12.951 46.0277 21.1992 55.6002C21.4751 55.9174 21.8613 56.0829 22.2475 56.0829C22.5648 56.0829 22.882 55.9726 23.1441 55.7519C23.7234 55.2553 23.7786 54.3864 23.282 53.8071C15.9579 45.3105 16.1924 32.7036 23.8337 24.4691C30.6061 17.2002 41.213 15.4622 49.8061 19.7657Z" fill="#FE5723"/>
</svg>
