<svg width="81" height="80" viewBox="0 0 81 80" fill="none" xmlns="http://www.w3.org/2000/svg">
<path d="M76.5057 46.1754H72.5413V44.1931C72.5413 43.6086 72.0584 43.1258 71.474 43.1258C70.8895 43.1258 70.4066 43.6086 70.4066 44.1931V46.1754H66.4676V43.5832C66.4676 41.9695 65.3621 40.6226 63.8755 40.216V5.01906C63.8755 4.7141 63.8501 4.40915 63.7865 4.06607C63.3291 1.71537 61.2452 0 58.8437 0H5.01906C2.61753 0 0.546379 1.71537 0.076239 4.06607V4.07878C0.076239 4.09149 0.076239 4.09149 0.076239 4.10419C0.025413 4.40915 0 4.7141 0 5.01906V74.9809C0 77.7509 2.24905 80 5.01906 80H39.136C39.1487 80 39.1614 80 39.1741 80H72.859C75.4638 80 77.5731 77.8907 77.5731 75.2859V61.8933C79.0089 61.4231 80.0127 60.1016 80.0127 58.5515V49.6696C80 47.751 78.4371 46.1754 76.5057 46.1754ZM64.3456 43.5832V46.1754H47.7001V43.5832C47.7001 42.8335 48.31 42.2109 49.0724 42.2109H62.986C63.723 42.2109 64.3456 42.8335 64.3456 43.5832ZM58.8437 2.12198C59.0089 2.12198 59.1741 2.13469 59.3266 2.1601C59.3774 2.17281 59.4282 2.18551 59.4917 2.19822C59.5934 2.22363 59.695 2.24905 59.7967 2.27446C59.8602 2.29987 59.9238 2.32529 59.9873 2.3507C60.0635 2.38882 60.1398 2.41423 60.216 2.45235C60.2922 2.49047 60.3558 2.5413 60.4193 2.57942C60.4828 2.61753 60.5337 2.65565 60.5972 2.69377C60.6734 2.7446 60.737 2.80813 60.8132 2.87166C60.8513 2.90978 60.8895 2.9479 60.9276 2.98602C61.0038 3.06226 61.0673 3.1385 61.1309 3.22745C61.1563 3.26557 61.1817 3.30368 61.2071 3.3291C61.2706 3.41804 61.3342 3.5197 61.385 3.60864C61.4104 3.64676 61.4231 3.68488 61.4358 3.723C61.4867 3.82465 61.5248 3.9263 61.5629 4.02795C61.5629 4.04066 61.5756 4.06607 61.5756 4.07878L55.8958 13.8501C54.8412 15.6671 52.8844 16.798 50.7878 16.798H32.9987V13.5324C34.803 13.0623 36.1372 11.4231 36.1372 9.47903C36.1372 7.16645 34.2567 5.27319 31.9314 5.27319C29.6061 5.27319 27.7255 7.16645 27.7255 9.47903C27.7255 11.4231 29.0597 13.0623 30.864 13.5324V16.798H13.0623C10.9657 16.798 8.99619 15.6671 7.95426 13.8374L2.27446 4.1169C2.28717 4.09149 2.28717 4.06607 2.29987 4.04066C2.32529 3.97713 2.3507 3.9136 2.37611 3.86277C2.41423 3.77382 2.45235 3.68488 2.50318 3.60864C2.5413 3.54511 2.56671 3.49428 2.60483 3.44346C2.65565 3.35451 2.70648 3.27827 2.77001 3.21474C2.80813 3.16391 2.85896 3.11309 2.89708 3.06226C2.96061 2.99873 3.02414 2.9352 3.10038 2.87166C3.15121 2.83354 3.20203 2.78272 3.25286 2.7446C3.3291 2.68107 3.40534 2.63024 3.48158 2.57942C3.5324 2.554 3.58323 2.51588 3.63405 2.47776C3.723 2.42694 3.81194 2.38882 3.90089 2.3507C3.95172 2.32529 4.01525 2.29987 4.06607 2.27446C4.16773 2.24905 4.26938 2.22363 4.38374 2.19822C4.43456 2.18551 4.48539 2.17281 4.53621 2.1601C4.68869 2.13469 4.85388 2.12198 5.01906 2.12198H58.8437ZM31.9314 11.601C30.7878 11.601 29.8602 10.6734 29.8602 9.52986C29.8602 8.38628 30.7878 7.4587 31.9314 7.4587C33.075 7.4587 34.0025 8.38628 34.0025 9.52986C34.0025 10.6734 33.075 11.601 31.9314 11.601ZM2.12198 74.9809V8.10673L6.09911 14.9555C7.52224 17.4333 10.1906 18.9708 13.0496 18.9708H30.864V22.2236C29.0597 22.6938 27.7255 24.3329 27.7255 26.277C27.7255 28.6023 29.6061 30.4828 31.9314 30.4828C34.2567 30.4828 36.1372 28.5896 36.1372 26.277C36.1372 24.3329 34.803 22.6938 32.9987 22.2236V18.9708H50.8132C53.6722 18.9708 56.3405 17.4333 57.7637 14.9555L61.7408 8.10673V40.0889H49.0597C47.1283 40.0889 45.5654 41.6645 45.5654 43.5832V46.1754H41.6264V44.1931C41.6264 43.6086 41.1436 43.1258 40.5591 43.1258C39.9746 43.1258 39.4917 43.6086 39.4917 44.1931V46.1754H35.5273C33.5959 46.1754 32.033 47.751 32.033 49.6696V58.5769C32.033 60.1271 33.0241 61.4485 34.4727 61.906V75.2859C34.4727 76.2389 34.7649 77.1283 35.2478 77.8653H5.01906C3.41804 77.878 2.12198 76.5692 2.12198 74.9809ZM31.9314 24.2058C33.075 24.2058 34.0025 25.1334 34.0025 26.277C34.0025 27.4206 33.075 28.3482 31.9314 28.3482C30.7878 28.3482 29.8602 27.4206 29.8602 26.277C29.8602 25.1334 30.7878 24.2058 31.9314 24.2058ZM75.4384 75.2859C75.4384 76.709 74.2821 77.878 72.8462 77.878H41.6264H41.6137H39.1487C37.7382 77.8526 36.5947 76.709 36.5947 75.2986V62.4396C36.709 62.4651 36.8234 62.4905 36.9377 62.5159C38.1321 62.7827 39.3139 63.0368 40.4574 63.2529C40.6607 63.291 40.8513 63.3291 41.0546 63.3672C42.249 63.5832 43.4307 63.7865 44.5997 63.9517C44.6379 63.9517 44.676 63.9644 44.7141 63.9644C45.8577 64.1296 46.9886 64.2567 48.1194 64.371C48.2846 64.3837 48.4498 64.4091 48.615 64.4219C49.7077 64.5235 50.8005 64.5997 51.8806 64.6506C51.9822 64.6506 52.0966 64.6633 52.1982 64.676V66.0991C52.1982 68.2084 53.9136 69.9238 56.0102 69.9238C58.1194 69.9238 59.8221 68.2084 59.8221 66.0991V64.6506C59.9238 64.6506 60.0254 64.6379 60.1271 64.6252C61.1817 64.5616 62.249 64.4854 63.3291 64.3837C63.507 64.371 63.6849 64.3456 63.8628 64.3202C64.9555 64.2058 66.0483 64.0788 67.1792 63.9136C67.2427 63.9009 67.2935 63.9009 67.357 63.8882C68.5006 63.723 69.6696 63.5324 70.864 63.3164C71.08 63.2783 71.3088 63.2401 71.5248 63.202C72.6684 62.986 73.8501 62.7446 75.0572 62.4905C75.1842 62.4651 75.2986 62.4396 75.4257 62.4142V75.2859H75.4384ZM57.7001 63.634V66.0991C57.7001 67.0394 56.9504 67.8018 56.0102 67.8018C55.0699 67.8018 54.3202 67.0394 54.3202 66.0991V63.6595V61.2834C54.3202 60.3558 55.0826 59.5934 56.0102 59.5934C56.4676 59.5934 56.8869 59.7713 57.2046 60.0889C57.5222 60.4066 57.7001 60.8259 57.7001 61.2834V63.634ZM77.878 58.5642C77.878 59.2122 77.446 59.7586 76.8234 59.911L76.277 60.0381C75.4892 60.216 74.7141 60.3939 73.9517 60.5464C73.6849 60.5972 73.4435 60.648 73.1766 60.6989C72.6811 60.8005 72.1855 60.9022 71.69 60.9911C71.3977 61.0419 71.1055 61.0928 70.8132 61.1563C70.3685 61.2325 69.9365 61.3215 69.4917 61.3977C69.1868 61.4485 68.8945 61.4994 68.5896 61.5375C68.183 61.601 67.7637 61.6645 67.357 61.7281C67.0521 61.7789 66.7471 61.817 66.4549 61.8551C66.061 61.906 65.6671 61.9568 65.2732 62.0076C64.9682 62.0457 64.6633 62.0839 64.3583 62.1093C63.9898 62.1474 63.6086 62.1982 63.2402 62.2236C62.9225 62.249 62.6175 62.2872 62.2999 62.3126C61.9441 62.338 61.5883 62.3761 61.2325 62.4015C60.9149 62.4269 60.5845 62.4524 60.2668 62.4651C60.1144 62.4778 59.9619 62.4778 59.8094 62.4905V61.2706C59.8094 60.2541 59.4155 59.2884 58.6912 58.5769C57.967 57.8526 57.014 57.4587 55.9975 57.4587C53.8882 57.4587 52.1855 59.1741 52.1855 61.2706V62.5286C52.0203 62.5159 51.8551 62.5159 51.69 62.5032C51.3596 62.4905 51.0419 62.4651 50.7116 62.4396C50.3558 62.4142 50 62.3888 49.6442 62.3634C49.3266 62.338 48.9962 62.3126 48.6658 62.2745C48.31 62.2363 47.9416 62.1982 47.5858 62.1601C47.2554 62.122 46.9377 62.0839 46.6074 62.0457C46.2389 62.0076 45.8831 61.9568 45.5146 61.906C45.1842 61.8551 44.8539 61.817 44.5108 61.7662C44.1423 61.7154 43.7738 61.6518 43.4053 61.5883C43.0623 61.5375 42.7319 61.4867 42.3888 61.4231C41.9949 61.3596 41.601 61.2834 41.2071 61.2071C40.8895 61.1436 40.5591 61.0928 40.2414 61.0292C39.7459 60.9276 39.2376 60.8259 38.7294 60.7116C38.5006 60.6607 38.2846 60.6226 38.0432 60.5718C37.2935 60.4066 36.5311 60.2287 35.756 60.0381C35.7433 60.0381 35.7306 60.0254 35.7052 60.0254C35.5654 60 35.4257 59.9619 35.1715 59.8983C34.5616 59.7459 34.1423 59.1995 34.1423 58.5642V49.6569C34.1423 48.9072 34.7522 48.2846 35.5146 48.2846H76.5057C77.2681 48.2846 77.878 48.8818 77.878 49.6569V58.5642Z" fill="white"/>
<path d="M26.1247 31.3339C25.7943 31.0035 25.4131 30.635 25.3115 30.3809C25.1971 30.1013 25.1971 29.5677 25.1971 29.0594C25.2098 28.1191 25.2098 26.9374 24.4093 26.1242C23.6088 25.3237 22.4271 25.3364 21.4868 25.3364C20.9786 25.3491 20.4449 25.3491 20.1654 25.222C19.9112 25.1204 19.5427 24.7392 19.2124 24.4088C18.5389 23.7227 17.7003 22.8586 16.5186 22.8586C15.3369 22.8586 14.4983 23.7227 13.8248 24.4088C13.4945 24.7392 13.126 25.1204 12.8718 25.2348C12.5923 25.3491 12.0586 25.3491 11.5504 25.3491C10.5974 25.3491 9.42838 25.3364 8.62787 26.1369C7.82736 26.9374 7.82736 28.1191 7.84007 29.0594C7.84007 29.5677 7.85278 30.1013 7.72571 30.3809C7.62406 30.635 7.24286 31.0035 6.9125 31.3339C6.22635 32.0073 5.3623 32.8459 5.3623 34.0276C5.3623 35.2093 6.22635 36.048 6.9125 36.7214C7.24286 37.0518 7.62406 37.4203 7.72571 37.6744C7.84007 37.9539 7.84007 38.4876 7.84007 38.9959C7.82736 39.9361 7.82736 41.1179 8.62787 41.9184C8.99636 42.2868 9.44108 42.4774 9.91122 42.5791L7.3191 49.2627C7.17933 49.6312 7.24286 50.0378 7.5097 50.3428C7.76383 50.635 8.15773 50.7748 8.55163 50.6858L10.3051 50.3046L11.3471 51.7786C11.5504 52.0581 11.868 52.2233 12.2111 52.2233C12.2492 52.2233 12.3 52.2233 12.3382 52.2106C12.7321 52.1598 13.0624 51.9057 13.2022 51.5372L15.7181 45.0314C15.9722 45.1204 16.2391 45.1712 16.5186 45.1712C16.8108 45.1712 17.065 45.1204 17.3191 45.0314L19.835 51.5372C19.9748 51.9057 20.3051 52.1598 20.699 52.2106C20.7371 52.2106 20.788 52.2233 20.8261 52.2233C21.1692 52.2233 21.4995 52.0581 21.6901 51.7786L22.7321 50.3046L24.4856 50.6858C24.8668 50.7621 25.2734 50.635 25.5275 50.3428C25.7816 50.0505 25.8579 49.6312 25.7181 49.2627L23.126 42.5791C23.5961 42.4774 24.0408 42.2741 24.4093 41.9057C25.2098 41.1051 25.2098 39.9234 25.1971 38.9832C25.1971 38.4749 25.1844 37.9412 25.3115 37.6617C25.4131 37.4076 25.7943 37.0391 26.1247 36.7087C26.8108 36.0353 27.6749 35.1966 27.6749 34.0149C27.6749 32.8459 26.8108 32.0073 26.1247 31.3339ZM11.9188 48.9196L11.6139 48.5003C11.3598 48.1572 10.9405 47.9921 10.5211 48.081L10.0129 48.1954L12.1349 42.7189C12.4271 42.7316 12.6939 42.757 12.8718 42.8205C13.126 42.9222 13.4945 43.3034 13.8248 43.6337C13.8629 43.6719 13.9011 43.71 13.9392 43.7481L11.9188 48.9196ZM22.5033 48.0683C22.084 47.9793 21.652 48.1445 21.4106 48.4876L21.1056 48.9069L19.098 43.7227C19.1361 43.6846 19.1742 43.6464 19.2124 43.6083C19.5427 43.278 19.9112 42.8968 20.1654 42.7951C20.3432 42.7189 20.6101 42.6935 20.9023 42.6935L23.0243 48.1699L22.5033 48.0683ZM24.638 35.1839C24.1298 35.6795 23.6088 36.1877 23.342 36.8485C23.0624 37.5346 23.0624 38.3097 23.0751 38.9959C23.0751 39.4914 23.0878 40.2284 22.91 40.4063C22.7321 40.5842 21.9951 40.5715 21.4995 40.5715C20.7753 40.5588 20.0256 40.5588 19.3521 40.8383C18.6914 41.1179 18.1831 41.6388 17.6876 42.1344C17.3191 42.5156 16.7981 43.0365 16.5186 43.0365C16.2391 43.0365 15.7308 42.5156 15.3496 42.1344C14.854 41.6261 14.3458 41.1051 13.6851 40.8383C13.0878 40.5969 12.4271 40.5588 11.8172 40.5588C11.7155 40.5588 11.6266 40.5588 11.5377 40.5588C11.0421 40.5588 10.3051 40.5715 10.1272 40.3936C9.94934 40.2157 9.96205 39.4787 9.96205 38.9832C9.96205 38.297 9.97476 37.5092 9.69521 36.8231C9.41567 36.1877 8.89471 35.6795 8.38645 35.1839C8.00525 34.8154 7.48429 34.2945 7.48429 34.0149C7.48429 33.7354 8.00525 33.2271 8.38645 32.8459C8.89471 32.3504 9.41567 31.8421 9.68251 31.1814C9.96205 30.4952 9.96205 29.7456 9.94935 29.034C9.94935 28.5384 9.93664 27.8015 10.1145 27.6236C10.2924 27.4457 11.0294 27.4584 11.5249 27.4584C12.2111 27.4711 12.9989 27.4711 13.6851 27.1916C14.3458 26.912 14.854 26.391 15.3496 25.8955C15.7181 25.5143 16.2391 24.9933 16.5186 24.9933C16.7981 24.9933 17.3064 25.5143 17.6876 25.8955C18.1831 26.4037 18.6914 26.9247 19.3521 27.1916C20.0383 27.4711 20.8134 27.4711 21.5122 27.4711C21.9951 27.4711 22.7448 27.4584 22.9227 27.6363C23.1006 27.8142 23.0878 28.5511 23.0878 29.0467C23.0878 29.771 23.0751 30.5206 23.3547 31.1941C23.6342 31.8548 24.1552 32.3631 24.6507 32.8586C25.0319 33.2271 25.5529 33.7354 25.5529 34.0276C25.5529 34.3199 25.0192 34.8154 24.638 35.1839Z" fill="#FE5723"/>
<path d="M16.5065 28.8057C13.6349 28.8057 11.2969 31.1437 11.2969 34.028C11.2969 36.9124 13.6349 39.2504 16.5065 39.2504C19.3782 39.2504 21.7289 36.9124 21.7289 34.028C21.7289 31.1437 19.3909 28.8057 16.5065 28.8057ZM16.5065 37.1157C14.8039 37.1157 13.4189 35.7307 13.4189 34.028C13.4189 32.3254 14.8039 30.9404 16.5065 30.9404C18.2092 30.9404 19.5942 32.3254 19.5942 34.028C19.5942 35.718 18.2092 37.1157 16.5065 37.1157Z" fill="#FE5723"/>
<path d="M26.6066 58.3606H6.41598C5.83148 58.3606 5.34863 58.8434 5.34863 59.4279C5.34863 60.0124 5.83148 60.4953 6.41598 60.4953H26.6066C27.1911 60.4953 27.6739 60.0124 27.6739 59.4279C27.6739 58.8307 27.1911 58.3606 26.6066 58.3606Z" fill="white"/>
<path d="M26.6066 64.2822H6.41598C5.83148 64.2822 5.34863 64.7651 5.34863 65.3496C5.34863 65.9341 5.83148 66.4169 6.41598 66.4169H26.6066C27.1911 66.4169 27.6739 65.9341 27.6739 65.3496C27.6739 64.7651 27.1911 64.2822 26.6066 64.2822Z" fill="#FE5723"/>
<path d="M26.6066 70.2034H6.41598C5.83148 70.2034 5.34863 70.6862 5.34863 71.2707C5.34863 71.8552 5.83148 72.3381 6.41598 72.3381H26.6066C27.1911 72.3381 27.6739 71.8552 27.6739 71.2707C27.6739 70.6862 27.1911 70.2034 26.6066 70.2034Z" fill="white"/>
</svg>
