<svg width="282" height="316" viewBox="0 0 282 316" fill="none" xmlns="http://www.w3.org/2000/svg">
<path d="M133.365 2.14554L133.235 1.66257C138.32 0.300499 143.68 0.300499 148.765 1.66257L148.635 2.14554C151.094 2.80417 153.487 3.78672 155.75 5.09327L160.346 7.74658L160.596 7.31357L169.787 12.6202L169.537 13.0532L178.728 18.3598L178.978 17.9268L188.17 23.2334L187.92 23.6665L197.111 28.9731L197.361 28.5401L206.552 33.8467L206.302 34.2797L215.494 39.5863L215.744 39.1533L224.935 44.4599L224.685 44.8929L233.876 50.1996L234.126 49.7666L243.318 55.0732L243.068 55.5062L252.259 60.8128L252.509 60.3798L261.7 65.6864L261.45 66.1194L266.046 68.7728C268.309 70.0793 270.357 71.6605 272.156 73.4604L272.51 73.1068C276.232 76.8291 278.912 81.4714 280.275 86.5557L279.792 86.6852C280.451 89.1437 280.796 91.7074 280.796 94.3205V99.6271H281.296V110.24H280.796V120.854H281.296V131.467H280.796V142.08H281.296V152.693H280.796V163.307H281.296V173.92H280.796V184.533H281.296V195.146H280.796V205.76H281.296V216.373H280.796V221.679C280.796 224.293 280.451 226.856 279.792 229.315L280.275 229.444C278.912 234.529 276.232 239.171 272.51 242.893L272.156 242.54C270.357 244.34 268.309 245.921 266.046 247.227L261.45 249.881L261.7 250.314L252.509 255.62L252.259 255.187L243.068 260.494L243.318 260.927L234.126 266.233L233.876 265.8L224.685 271.107L224.935 271.54L215.744 276.847L215.494 276.414L206.302 281.72L206.552 282.153L197.361 287.46L197.111 287.027L187.92 292.334L188.17 292.767L178.978 298.073L178.728 297.64L169.537 302.947L169.787 303.38L160.596 308.686L160.346 308.253L155.75 310.907C153.487 312.213 151.094 313.196 148.635 313.854L148.765 314.337C143.68 315.699 138.32 315.699 133.235 314.337L133.365 313.854C130.906 313.196 128.513 312.213 126.25 310.907L121.654 308.253L121.404 308.686L112.213 303.38L112.463 302.947L103.272 297.64L103.022 298.073L93.8303 292.767L94.0803 292.334L84.889 287.027L84.639 287.46L75.4476 282.153L75.6976 281.72L66.5063 276.414L66.2563 276.847L57.0649 271.54L57.3149 271.107L48.1236 265.8L47.8736 266.233L38.6823 260.927L38.9322 260.494L29.7409 255.187L29.4909 255.62L20.2996 250.314L20.5496 249.881L15.9539 247.227C13.6909 245.921 11.6434 244.34 9.84374 242.54L9.49017 242.893C5.76835 239.171 3.08812 234.529 1.72547 229.444L2.20842 229.315C1.54951 226.856 1.20389 224.293 1.20389 221.679V216.373H0.703888V205.76H1.20389V195.146H0.703888V184.533H1.20389V173.92H0.703888V163.307H1.20389V152.693H0.703888V142.08H1.20389V131.467H0.703888V120.854H1.20389V110.24H0.703888V99.6271H1.20389V94.3205C1.20389 91.7074 1.54951 89.1437 2.20842 86.6852L1.72547 86.5557C3.08811 81.4714 5.76834 76.8291 9.49017 73.1069L9.84374 73.4604C11.6434 71.6605 13.6909 70.0793 15.9539 68.7728L20.5496 66.1194L20.2996 65.6864L29.4909 60.3798L29.7409 60.8128L38.9322 55.5062L38.6822 55.0732L47.8736 49.7666L48.1236 50.1996L57.3149 44.8929L57.0649 44.4599L66.2563 39.1533L66.5063 39.5863L75.6976 34.2797L75.4476 33.8467L84.639 28.5401L84.889 28.9731L94.0803 23.6665L93.8303 23.2334L103.022 17.9268L103.272 18.3598L112.463 13.0532L112.213 12.6202L121.404 7.31357L121.654 7.74658L126.25 5.09327C128.513 3.78672 130.906 2.80418 133.365 2.14554Z" stroke="#181818" stroke-dasharray="11 11"/>
</svg>
