<svg width="154" height="154" viewBox="0 0 154 154" fill="none" xmlns="http://www.w3.org/2000/svg">
<circle cx="76.9998" cy="77.2816" r="76.5389" fill="#FE5723"/>
<g clip-path="url(#clip0_104_1714)">
<path d="M94.2805 58.8659H104.165C104.873 58.8659 105.442 58.2939 105.442 57.5892C105.442 56.8845 104.873 56.3181 104.165 56.3181H94.2805C93.5778 56.3181 93.0029 56.8901 93.0029 57.5892C93.0029 58.2883 93.5778 58.8659 94.2805 58.8659Z" fill="#F5F5F5"/>
<path d="M94.2805 50.6207H104.165C104.873 50.6207 105.442 50.0487 105.442 49.3496C105.442 48.6505 104.873 48.0729 104.165 48.0729H94.2805C93.5778 48.0729 93.0029 48.6449 93.0029 49.3496C93.0029 50.0543 93.5778 50.6207 94.2805 50.6207Z" fill="#F5F5F5"/>
<path d="M71.3757 89.8203H64.4524C63.7441 89.8203 63.1729 90.3885 63.1748 91.0932V113.468C63.1748 114.167 63.7441 114.739 64.4524 114.739H71.3757C72.0783 114.739 72.6532 114.167 72.6532 113.468V91.0914C72.6532 90.3867 72.0783 89.8203 71.3757 89.8203ZM70.0962 112.197H65.7299V92.3643H70.0962V112.197Z" fill="#F5F5F5"/>
<path d="M94.2805 67.1054H104.165C104.873 67.1054 105.442 66.5391 105.442 65.8344C105.442 65.1297 104.873 64.5633 104.165 64.5633H94.2805C93.5778 64.5633 93.0029 65.1297 93.0029 65.8344C93.0029 66.5391 93.5778 67.1054 94.2805 67.1054Z" fill="#F5F5F5"/>
<path d="M78.2617 79.1395V113.47C78.2617 114.169 78.831 114.741 79.5393 114.741H86.4569C87.1652 114.741 87.7401 114.167 87.7401 113.47V79.1395C87.7401 78.4348 87.1652 77.8684 86.4569 77.8684H79.5393C78.831 77.8684 78.2617 78.4348 78.2617 79.1395ZM80.8169 80.4106H85.1794V112.197H80.8169V80.4106Z" fill="#F5F5F5"/>
<path d="M49.3701 114.737H56.2878C56.9961 114.737 57.5653 114.165 57.5653 113.466V99.3833C57.5653 98.6786 56.9961 98.1122 56.2878 98.1122H49.3701C48.6618 98.1122 48.0869 98.6804 48.0869 99.3833V113.466C48.0869 114.165 48.6618 114.737 49.3701 114.737ZM50.6477 100.656H55.0102V112.197H50.6477V100.656Z" fill="#F5F5F5"/>
<path d="M114.733 30.5508H39.2678C38.5651 30.5508 37.9902 31.1228 37.9902 31.8219V122.741C37.9902 123.44 38.5651 124.012 39.2678 124.012H94.6955C95.0374 124.012 95.3662 123.874 95.6067 123.631L115.621 103.718C115.866 103.481 116.016 103.14 116.01 102.802V31.8219C116.01 31.1228 115.435 30.5508 114.733 30.5508ZM95.9749 119.668V104.079H111.642L95.9749 119.668ZM113.448 101.531H94.6955C93.9872 101.531 93.4123 102.103 93.4123 102.808V121.47H40.5454V33.0929H113.448V101.531Z" fill="#F5F5F5"/>
<path d="M94.2805 86.0538H104.165C104.873 86.0538 105.442 85.4818 105.442 84.7827C105.442 84.0836 104.873 83.506 104.165 83.506H94.2805C93.5778 83.506 93.0029 84.078 93.0029 84.7827C93.0029 85.4874 93.5778 86.0538 94.2805 86.0538Z" fill="#F5F5F5"/>
<path d="M56.9133 71.4177C56.9677 71.4551 57.026 71.4869 57.0842 71.5131C61.2119 73.8552 65.9032 74.3225 70.1586 73.1879C74.4141 72.0533 78.2374 69.3149 80.6347 65.2343C80.6723 65.1801 80.7098 65.1222 80.7361 65.0642C83.0903 60.9575 83.56 56.2901 82.4195 52.0563C82.2542 51.4357 82.0532 50.8263 81.8183 50.2282C81.8089 50.2076 81.8033 50.1852 81.7977 50.1702C81.7883 50.1497 81.7826 50.1328 81.777 50.1179C80.3923 46.6748 77.8879 43.6485 74.4253 41.6334C74.3652 41.5961 74.3126 41.5587 74.2487 41.5325C70.1211 39.1904 65.4354 38.7231 61.18 39.8577C56.9245 40.9923 53.0993 43.7307 50.6983 47.8112C50.6607 47.8655 50.6287 47.9234 50.6024 47.987C48.2483 52.0937 47.7749 56.7555 48.9191 60.9893C50.0595 65.2231 52.8119 69.0289 56.9133 71.4177ZM79.9546 52.7142C80.738 55.6284 80.6309 58.7761 79.5074 61.7164L68.8566 56.6359L79.8381 52.3067C79.8794 52.4432 79.917 52.5815 79.9546 52.7142ZM73.0651 43.7812C75.6747 45.2822 77.6512 47.4486 78.8968 49.944L66.4819 54.8396L62.5195 42.155C65.9915 41.3961 69.7453 41.8727 73.0651 43.7812ZM52.8626 49.1702C54.5723 46.228 57.1443 44.0934 60.0734 42.9064L64.4509 56.8994C64.5693 57.2808 64.8511 57.5668 65.1968 57.7051L78.4046 64.0006C76.3605 67.4494 73.1121 69.771 69.5011 70.7355C65.8412 71.7112 61.8093 71.2981 58.2791 69.2681H58.2735C54.7433 67.2344 52.3685 63.9707 51.3878 60.3351C50.407 56.6938 50.8223 52.6881 52.8626 49.1702Z" fill="white"/>
<path d="M94.2805 93.5718H104.165C104.873 93.5718 105.442 92.9999 105.442 92.3008C105.442 91.6017 104.873 91.0297 104.165 91.0297H94.2805C93.5778 91.0297 93.0029 91.5961 93.0029 92.3008C93.0029 93.0055 93.5778 93.5718 94.2805 93.5718Z" fill="#F5F5F5"/>
</g>
<defs>
<clipPath id="clip0_104_1714">
<rect width="78.02" height="93.4615" fill="white" transform="translate(37.9902 30.5508)"/>
</clipPath>
</defs>
</svg>
