<svg width="88" height="80" viewBox="0 0 88 80" fill="none" xmlns="http://www.w3.org/2000/svg">
<path d="M73.3525 48.8212C73.3525 65.049 60.1975 78.2039 43.975 78.2039C27.7525 78.2039 14.5975 65.049 14.5975 48.8212C14.5975 47.6397 12.8015 47.6397 12.8015 48.8212C12.8015 66.0397 26.7565 80 43.9697 80C61.183 80 75.1379 66.0397 75.1379 48.8212C75.1379 47.6397 73.3419 47.6397 73.3419 48.8212H73.3525Z" fill="white"/>
<path d="M73.9881 18.845C68.3139 14.2887 61.2463 11.3113 53.8927 9.93377C53.9298 4.50861 49.4742 0 43.9748 0C38.4755 0 34.0146 4.50861 34.0569 9.93377C26.6503 11.3166 19.6358 14.2199 13.951 18.8397C12.7219 18.2887 11.355 17.9868 9.9192 17.9868C7.18013 17.9868 4.70066 19.0993 2.90463 20.8901C-0.968212 24.7629 -0.968212 31.0464 2.90463 34.9192C6.77748 38.792 13.0556 38.792 16.9285 34.9192C21.2887 30.5589 20.6477 23.3377 15.6252 19.7934C20.9338 15.645 27.4026 13.0172 34.2159 11.7245C35.0742 16.3762 39.1483 19.8358 43.9695 19.8358C48.7907 19.8358 52.8649 16.3762 53.7232 11.7245C60.4887 13.0172 67 15.7086 72.3033 19.7987C69.7338 21.6159 68.1073 24.5934 68.1073 27.8993C68.1073 33.3775 72.547 37.8172 78.0251 37.8172C83.5033 37.8172 87.943 33.3775 87.943 27.8993C87.943 20.694 80.4993 15.9258 73.9828 18.8397L73.9881 18.845ZM15.6622 22.1616C18.8358 25.3351 18.8358 30.4795 15.6622 33.653C12.4887 36.8265 7.34437 36.8265 4.17616 33.653C1.00795 30.4795 1.00265 25.3351 4.17616 22.1616C7.34967 18.9881 12.494 18.9881 15.6622 22.1616ZM49.7179 15.6662C46.5444 18.8397 41.4 18.8397 38.2318 15.6662C35.0636 12.4927 35.0583 7.34834 38.2318 4.17483C41.4053 1.00132 46.5497 1.00132 49.7179 4.17483C52.8914 7.34834 52.8914 12.4927 49.7179 15.6662ZM83.7735 33.653C80.6 36.8265 75.4556 36.8265 72.2874 33.653C69.1139 30.4795 69.1139 25.3351 72.2874 22.1616C75.4609 18.9881 80.6053 18.9881 83.7735 22.1616C86.947 25.3351 86.947 30.4795 83.7735 33.653Z" fill="#FE5723"/>
<path d="M80.0754 25.9601C81.8927 24.1376 80.5999 21.0171 78.0304 21.0171C76.4304 21.0171 75.1377 22.3151 75.1377 23.9151C75.1377 26.4846 78.2582 27.7827 80.0807 25.9601H80.0754ZM78.8092 23.1363C79.2384 23.5654 79.2384 24.2648 78.8092 24.6939C78.1205 25.3827 76.9337 24.8952 76.9337 23.9151C76.9337 22.935 78.1205 22.4476 78.8092 23.1363Z" fill="#FE5723"/>
<path d="M43.975 74.9403C58.3962 74.9403 70.0889 63.2476 70.0889 48.8211C70.0889 34.3946 58.3962 22.7019 43.975 22.7019C29.5538 22.7019 17.8611 34.3946 17.8611 48.8211C17.8611 63.2476 29.5538 74.9403 43.975 74.9403ZM36.6531 66.2834C35.9962 64.8423 35.424 63.2264 34.9419 61.4622C40.7114 60.5297 47.2333 60.5297 53.0028 61.4622C52.526 63.2264 51.9485 64.8423 51.2915 66.2834C47.122 75.4277 40.8174 75.4277 36.6478 66.2834H36.6531ZM54.571 49.7165C54.5127 53.3032 54.1101 56.6887 53.4319 59.7191C47.3657 58.7178 40.579 58.7178 34.5127 59.7191C33.8346 56.6887 33.4319 53.3032 33.3737 49.7165H54.571ZM33.3737 47.9204C33.4319 44.3337 33.8346 40.9483 34.5127 37.9178C40.579 38.9191 47.3657 38.9191 53.4319 37.9178C54.1101 40.9483 54.5127 44.3337 54.571 47.9204H33.3737ZM49.1988 72.5774C51.9273 69.9602 53.7127 65.7324 54.7723 61.78C57.8081 62.3893 60.5154 63.2529 62.7193 64.3178C59.3021 68.4449 54.571 71.4065 49.1988 72.5774ZM63.8266 62.8661C61.4372 61.6635 58.5339 60.7204 55.1962 60.037C55.8955 56.8953 56.3088 53.3986 56.367 49.7112H68.2717C68.0968 54.6012 66.4756 59.1204 63.8266 62.8661ZM68.2717 47.9204H56.367C56.3088 44.233 55.8955 40.7363 55.1962 37.5946C58.5339 36.9112 61.4372 35.9681 63.8266 34.7655C66.4756 38.5059 68.0968 43.0304 68.277 47.9204H68.2717ZM62.7141 33.3191C60.5101 34.384 57.8028 35.2476 54.767 35.8569C53.7074 31.8993 51.922 27.6767 49.1935 25.0595C54.5657 26.2357 59.2968 29.192 62.7141 33.3191ZM51.2915 31.3589C51.9485 32.7999 52.526 34.4158 53.0028 36.18C47.2333 37.1125 40.7114 37.1125 34.9419 36.18C35.4187 34.4158 35.9962 32.7999 36.6531 31.3589C40.8227 22.2145 47.1273 22.2145 51.2968 31.3589H51.2915ZM38.7458 25.0595C36.0174 27.6767 34.2319 31.9046 33.1723 35.8569C30.1366 35.2476 27.4293 34.384 25.2253 33.3191C28.6425 29.192 33.3737 26.2304 38.7458 25.0595ZM24.118 34.7708C26.5074 35.9734 29.4108 36.9165 32.7485 37.5999C32.0492 40.7416 31.6359 44.2383 31.5776 47.9257H19.673C19.8531 43.0357 21.469 38.5165 24.1233 34.7761L24.118 34.7708ZM19.6677 49.7165H31.5776C31.6359 53.4039 32.0492 56.8953 32.7485 60.0423C29.4108 60.7257 26.5074 61.6688 24.118 62.8714C21.469 59.131 19.8478 54.6065 19.6677 49.7165ZM33.1723 61.78C34.2319 65.7377 36.0174 69.9602 38.7458 72.5774C33.379 71.4012 28.6425 68.4449 25.2253 64.3178C27.4293 63.2529 30.1366 62.3893 33.1723 61.78Z" fill="white"/>
<path d="M44.4834 9.24512H43.4609C40.7007 9.24512 38.5391 11.9577 38.5391 14.612V14.7551C38.5444 15.306 38.9364 15.6981 39.4397 15.6981H48.4993C48.9761 15.6981 49.3735 15.3219 49.3947 14.8398C49.4954 12.0425 47.2861 9.25041 44.4781 9.25041L44.4834 9.24512ZM40.4146 13.8968C40.7165 12.4663 41.9563 11.0358 43.4662 11.0358H44.4887C45.9987 11.0358 47.2331 12.4663 47.5404 13.8968H40.4199H40.4146Z" fill="#FE5723"/>
<path d="M78.5391 27.2317H77.5166C74.7563 27.2317 72.5947 29.9443 72.5947 32.5986V32.7416C72.6 33.2926 72.9921 33.6847 73.4954 33.6847H82.555C83.0318 33.6847 83.4292 33.3032 83.4503 32.8264C83.551 30.029 81.3417 27.237 78.5338 27.237L78.5391 27.2317ZM74.4702 31.8886C74.7722 30.4582 76.0119 29.0277 77.5219 29.0277H78.5391C80.049 29.0277 81.2835 30.4529 81.5907 31.8886H74.4702Z" fill="#FE5723"/>
<path d="M9.4107 27.2319C8.0597 27.2319 6.84646 27.8889 5.96169 28.869C4.97626 29.9657 4.49414 31.2743 4.49414 32.7419C4.49414 33.2876 4.88619 33.6796 5.3895 33.6796H14.4491C14.9259 33.6796 15.3233 33.2982 15.3445 32.8213C15.4451 30.024 13.2359 27.2319 10.4279 27.2319H9.4054H9.4107ZM13.4796 31.8889H6.35904C6.66103 30.4584 7.90076 29.028 9.4107 29.028H10.4279C11.9378 29.028 13.1723 30.4531 13.4796 31.8889Z" fill="#FE5723"/>
<path d="M7.02661 23.9153C7.02661 26.4849 10.1471 27.7829 11.9697 25.9604C13.7922 24.1379 12.4942 21.0173 9.92462 21.0173C8.32462 21.0173 7.03191 22.3153 7.03191 23.9153H7.02661ZM10.6981 24.6942C10.0094 25.3829 8.82264 24.8955 8.82264 23.9153C8.82264 22.9352 10.0094 22.4478 10.6981 23.1365C11.1273 23.5657 11.1273 24.265 10.6981 24.6942Z" fill="#FE5723"/>
<path d="M46.0198 7.97332C47.837 6.1508 46.5443 3.03027 43.9747 3.03027C42.3747 3.03027 41.082 4.32829 41.082 5.92829C41.082 8.49782 44.2026 9.79584 46.0251 7.97332H46.0198ZM44.7536 5.14948C45.1827 5.57862 45.1827 6.27796 44.7536 6.70709C44.0648 7.39584 42.8781 6.90842 42.8781 5.92829C42.8781 4.94815 44.0648 4.46074 44.7536 5.14948Z" fill="#FE5723"/>
</svg>
