<svg width="17" height="19" viewBox="0 0 17 19" fill="none" xmlns="http://www.w3.org/2000/svg">
<path d="M8.91437 18.4136C8.77064 18.4135 8.62802 18.3883 8.49291 18.3393C7.3153 17.9116 3.33623 16.2443 1.85492 12.7115C0.751685 10.0774 0.857049 5.76363 0.968612 4.02821C1.012 3.27826 1.71237 3.00555 2.04705 2.87539C3.49117 2.29898 7.05499 0.836269 8.29458 0.160693C8.47929 0.0575609 8.68732 0.00341797 8.89888 0.00341797C9.11043 0.00341797 9.31846 0.0575609 9.50318 0.160693C10.7738 0.842467 14.3252 2.29898 15.7693 2.87539C16.104 3.00555 16.7982 3.27826 16.8415 4.02821C16.9407 5.76363 17.0585 10.0774 15.9552 12.7053C14.4739 16.2381 10.5196 17.9054 9.34203 18.3269C9.20573 18.3808 9.06093 18.4102 8.91437 18.4136ZM8.91437 0.854863C8.84496 0.852863 8.77634 0.870018 8.71604 0.904446C7.43306 1.60481 3.87545 3.06133 2.35075 3.66253C1.9107 3.83607 1.81773 3.94763 1.81153 4.07779C1.71237 5.75124 1.5946 9.91005 2.62966 12.383C3.95602 15.5998 7.67478 17.174 8.78421 17.5397C8.87195 17.5736 8.96919 17.5736 9.05692 17.5397C10.154 17.143 13.8293 15.606 15.1805 12.383C16.2155 9.90386 16.0978 5.75124 15.9986 4.07779C15.9986 3.94763 15.8994 3.83607 15.4594 3.66253C13.9409 3.04274 10.4019 1.60481 9.1189 0.904446C9.05679 0.868893 8.98587 0.851699 8.91437 0.854863Z" fill="white"/>
<path d="M8.07167 11.7632H8.03448C7.9746 11.7597 7.91625 11.7429 7.86371 11.7139C7.81117 11.685 7.76575 11.6446 7.73079 11.5959L6.02635 9.32125C5.9855 9.27725 5.95438 9.22514 5.935 9.16832C5.91562 9.11149 5.90842 9.05122 5.91388 8.99143C5.91933 8.93164 5.93731 8.87367 5.96665 8.82129C5.99599 8.76891 6.03604 8.72329 6.08417 8.68741C6.13231 8.65153 6.18746 8.62618 6.24604 8.61302C6.30462 8.59986 6.36531 8.59919 6.42417 8.61104C6.48302 8.62289 6.53873 8.64699 6.58765 8.68179C6.63658 8.71659 6.67762 8.76131 6.70813 8.81302L8.12745 10.7034L12.3297 6.7677C12.4138 6.70376 12.5186 6.67324 12.624 6.68203C12.7293 6.69082 12.8276 6.7383 12.9 6.8153C12.9724 6.89231 13.0137 6.99338 13.016 7.09904C13.0182 7.2047 12.9813 7.30746 12.9123 7.38749L8.36298 11.6517C8.28306 11.7237 8.17925 11.7635 8.07167 11.7632Z" fill="white"/>
</svg>
