<svg width="55" height="1079" viewBox="0 0 55 1079" fill="none" xmlns="http://www.w3.org/2000/svg">
<path d="M27.5 0.0710123L24.6132 2.95776L27.5 5.84452L30.3868 2.95776L27.5 0.0710123ZM27 1073.56L24.6132 1078.56L30.3867 1078.56L28 1073.56L27 1073.56ZM27 5.44758C27 5.72372 27.2239 5.94758 27.5 5.94758C27.7761 5.94758 28 5.72372 28 5.44758L27 5.44758ZM28 10.4272C28 10.1511 27.7761 9.9272 27.5 9.9272C27.2239 9.9272 27 10.1511 27 10.4272L28 10.4272ZM27 15.4068C27 15.683 27.2239 15.9068 27.5 15.9068C27.7761 15.9068 28 15.683 28 15.4068L27 15.4068ZM28 20.3864C28 20.1103 27.7761 19.8864 27.5 19.8864C27.2239 19.8864 27 20.1103 27 20.3864L28 20.3864ZM27 25.3661C27 25.6422 27.2239 25.8661 27.5 25.8661C27.7761 25.8661 28 25.6422 28 25.3661L27 25.3661ZM28 30.3457C28 30.0696 27.7761 29.8457 27.5 29.8457C27.2239 29.8457 27 30.0696 27 30.3457L28 30.3457ZM27 35.3253C27 35.6015 27.2239 35.8253 27.5 35.8253C27.7761 35.8253 28 35.6015 28 35.3253L27 35.3253ZM28 40.3049C28 40.0288 27.7761 39.8049 27.5 39.8049C27.2239 39.8049 27 40.0288 27 40.3049L28 40.3049ZM27 45.2846C27 45.5607 27.2239 45.7846 27.5 45.7846C27.7761 45.7846 28 45.5607 28 45.2846L27 45.2846ZM28 50.2642C28 49.988 27.7761 49.7642 27.5 49.7642C27.2239 49.7642 27 49.988 27 50.2642L28 50.2642ZM27 55.2438C27 55.5199 27.2239 55.7438 27.5 55.7438C27.7761 55.7438 28 55.5199 28 55.2438L27 55.2438ZM28 60.2234C28 59.9473 27.7761 59.7234 27.5 59.7234C27.2239 59.7234 27 59.9473 27 60.2234L28 60.2234ZM27 65.203C27 65.4792 27.2239 65.703 27.5 65.703C27.7761 65.703 28 65.4792 28 65.203L27 65.203ZM28 70.1827C28 69.9065 27.7761 69.6827 27.5 69.6827C27.2239 69.6827 27 69.9065 27 70.1827L28 70.1827ZM27 75.1623C27 75.4384 27.2239 75.6623 27.5 75.6623C27.7761 75.6623 28 75.4384 28 75.1623L27 75.1623ZM28 80.1419C28 79.8658 27.7761 79.6419 27.5 79.6419C27.2239 79.6419 27 79.8658 27 80.1419L28 80.1419ZM27 85.1215C27 85.3977 27.2239 85.6215 27.5 85.6215C27.7761 85.6215 28 85.3977 28 85.1215L27 85.1215ZM28 90.1012C28 89.825 27.7761 89.6012 27.5 89.6012C27.2239 89.6012 27 89.825 27 90.1012L28 90.1012ZM27 95.0808C27 95.3569 27.2239 95.5808 27.5 95.5808C27.7761 95.5808 28 95.3569 28 95.0808L27 95.0808ZM28 100.06C28 99.7843 27.7761 99.5604 27.5 99.5604C27.2239 99.5604 27 99.7843 27 100.06L28 100.06ZM27 105.04C27 105.316 27.2239 105.54 27.5 105.54C27.7761 105.54 28 105.316 28 105.04L27 105.04ZM28 110.02C28 109.744 27.7761 109.52 27.5 109.52C27.2239 109.52 27 109.744 27 110.02L28 110.02ZM27 114.999C27 115.275 27.2239 115.499 27.5 115.499C27.7761 115.499 28 115.275 28 114.999L27 114.999ZM28 119.979C28 119.703 27.7761 119.479 27.5 119.479C27.2239 119.479 27 119.703 27 119.979L28 119.979ZM27 124.959C27 125.235 27.2239 125.459 27.5 125.459C27.7761 125.459 28 125.235 28 124.959L27 124.959ZM28 129.938C28 129.662 27.7761 129.438 27.5 129.438C27.2239 129.438 27 129.662 27 129.938L28 129.938ZM27 134.918C27 135.194 27.2239 135.418 27.5 135.418C27.7761 135.418 28 135.194 28 134.918L27 134.918ZM28 139.897C28 139.621 27.7761 139.397 27.5 139.397C27.2239 139.397 27 139.621 27 139.897L28 139.897ZM27 144.877C27 145.153 27.2239 145.377 27.5 145.377C27.7761 145.377 28 145.153 28 144.877L27 144.877ZM28 149.857C28 149.581 27.7761 149.357 27.5 149.357C27.2239 149.357 27 149.581 27 149.857L28 149.857ZM27 154.836C27 155.112 27.2239 155.336 27.5 155.336C27.7761 155.336 28 155.112 28 154.836L27 154.836ZM28 159.816C28 159.54 27.7761 159.316 27.5 159.316C27.2239 159.316 27 159.54 27 159.816L28 159.816ZM27 164.796C27 165.072 27.2239 165.296 27.5 165.296C27.7761 165.296 28 165.072 28 164.796L27 164.796ZM28 169.775C28 169.499 27.7761 169.275 27.5 169.275C27.2239 169.275 27 169.499 27 169.775L28 169.775ZM27 174.755C27 175.031 27.2239 175.255 27.5 175.255C27.7761 175.255 28 175.031 28 174.755L27 174.755ZM28 179.734C28 179.458 27.7761 179.234 27.5 179.234C27.2238 179.234 27 179.458 27 179.734L28 179.734ZM27 184.714C27 184.99 27.2238 185.214 27.5 185.214C27.7761 185.214 28 184.99 28 184.714L27 184.714ZM28 189.694C28 189.418 27.7761 189.194 27.5 189.194C27.2238 189.194 27 189.418 27 189.694L28 189.694ZM27 194.673C27 194.949 27.2238 195.173 27.5 195.173C27.7761 195.173 28 194.949 28 194.673L27 194.673ZM28 199.653C28 199.377 27.7761 199.153 27.5 199.153C27.2238 199.153 27 199.377 27 199.653L28 199.653ZM27 204.633C27 204.909 27.2238 205.133 27.5 205.133C27.7761 205.133 28 204.909 28 204.633L27 204.633ZM28 209.612C28 209.336 27.7761 209.112 27.5 209.112C27.2238 209.112 27 209.336 27 209.612L28 209.612ZM27 214.592C27 214.868 27.2238 215.092 27.5 215.092C27.7761 215.092 28 214.868 28 214.592L27 214.592ZM28 219.571C28 219.295 27.7761 219.071 27.5 219.071C27.2238 219.071 27 219.295 27 219.571L28 219.571ZM27 224.551C27 224.827 27.2238 225.051 27.5 225.051C27.7761 225.051 28 224.827 28 224.551L27 224.551ZM28 229.531C28 229.255 27.7761 229.031 27.5 229.031C27.2238 229.031 27 229.255 27 229.531L28 229.531ZM27 234.51C27 234.786 27.2238 235.01 27.5 235.01C27.7761 235.01 28 234.786 28 234.51L27 234.51ZM28 239.49C28 239.214 27.7761 238.99 27.5 238.99C27.2238 238.99 27 239.214 27 239.49L28 239.49ZM27 244.47C27 244.746 27.2238 244.97 27.5 244.97C27.7761 244.97 28 244.746 28 244.47L27 244.47ZM28 249.449C28 249.173 27.7761 248.949 27.5 248.949C27.2238 248.949 27 249.173 27 249.449L28 249.449ZM27 254.429C27 254.705 27.2238 254.929 27.5 254.929C27.7761 254.929 28 254.705 28 254.429L27 254.429ZM28 259.408C28 259.132 27.7761 258.908 27.5 258.908C27.2238 258.908 27 259.132 27 259.408L28 259.408ZM27 264.388C27 264.664 27.2238 264.888 27.5 264.888C27.7761 264.888 28 264.664 28 264.388L27 264.388ZM28 269.368C28 269.092 27.7761 268.868 27.5 268.868C27.2238 268.868 27 269.092 27 269.368L28 269.368ZM27 274.347C27 274.623 27.2238 274.847 27.5 274.847C27.7761 274.847 28 274.623 28 274.347L27 274.347ZM28 279.327C28 279.051 27.7761 278.827 27.5 278.827C27.2238 278.827 27 279.051 27 279.327L28 279.327ZM27 284.307C27 284.583 27.2238 284.807 27.5 284.807C27.7761 284.807 28 284.583 28 284.307L27 284.307ZM28 289.286C28 289.01 27.7761 288.786 27.5 288.786C27.2238 288.786 27 289.01 27 289.286L28 289.286ZM27 294.266C27 294.542 27.2238 294.766 27.5 294.766C27.7761 294.766 28 294.542 28 294.266L27 294.266ZM28 299.245C28 298.969 27.7761 298.745 27.5 298.745C27.2238 298.745 27 298.969 27 299.245L28 299.245ZM27 304.225C27 304.501 27.2238 304.725 27.5 304.725C27.7761 304.725 28 304.501 28 304.225L27 304.225ZM28 309.205C28 308.928 27.7761 308.705 27.5 308.705C27.2238 308.705 27 308.928 27 309.205L28 309.205ZM27 314.184C27 314.46 27.2238 314.684 27.5 314.684C27.7761 314.684 28 314.46 28 314.184L27 314.184ZM28 319.164C28 318.888 27.7761 318.664 27.5 318.664C27.2238 318.664 27 318.888 27 319.164L28 319.164ZM27 324.143C27 324.42 27.2238 324.643 27.5 324.643C27.7761 324.643 28 324.42 28 324.143L27 324.143ZM28 329.123C28 328.847 27.7761 328.623 27.5 328.623C27.2238 328.623 27 328.847 27 329.123L28 329.123ZM27 334.103C27 334.379 27.2238 334.603 27.5 334.603C27.7761 334.603 28 334.379 28 334.103L27 334.103ZM28 339.082C28 338.806 27.7761 338.582 27.5 338.582C27.2238 338.582 27 338.806 27 339.082L28 339.082ZM27 344.062C27 344.338 27.2238 344.562 27.5 344.562C27.7761 344.562 28 344.338 28 344.062L27 344.062ZM28 349.042C28 348.765 27.7761 348.542 27.5 348.542C27.2238 348.542 27 348.765 27 349.042L28 349.042ZM27 354.021C27 354.297 27.2238 354.521 27.5 354.521C27.7761 354.521 28 354.297 28 354.021L27 354.021ZM28 359.001C28 358.725 27.7761 358.501 27.5 358.501C27.2238 358.501 27 358.725 27 359.001L28 359.001ZM27 363.98C27 364.257 27.2238 364.48 27.5 364.48C27.7761 364.48 28 364.257 28 363.98L27 363.98ZM28 368.96C28 368.684 27.7761 368.46 27.5 368.46C27.2238 368.46 27 368.684 27 368.96L28 368.96ZM27 373.94C27 374.216 27.2238 374.44 27.5 374.44C27.7761 374.44 28 374.216 28 373.94L27 373.94ZM28 378.919C28 378.643 27.7761 378.419 27.5 378.419C27.2238 378.419 27 378.643 27 378.919L28 378.919ZM27 383.899C27 384.175 27.2238 384.399 27.5 384.399C27.7761 384.399 28 384.175 28 383.899L27 383.899ZM28 388.878C28 388.602 27.7761 388.378 27.5 388.378C27.2238 388.378 27 388.602 27 388.878L28 388.878ZM27 393.858C27 394.134 27.2238 394.358 27.5 394.358C27.7761 394.358 28 394.134 28 393.858L27 393.858ZM28 398.838C28 398.562 27.7761 398.338 27.5 398.338C27.2238 398.338 27 398.562 27 398.838L28 398.838ZM27 403.817C27 404.093 27.2238 404.317 27.5 404.317C27.7761 404.317 28 404.093 28 403.817L27 403.817ZM28 408.797C28 408.521 27.7761 408.297 27.5 408.297C27.2238 408.297 27 408.521 27 408.797L28 408.797ZM27 413.777C27 414.053 27.2238 414.277 27.5 414.277C27.7761 414.277 28 414.053 28 413.777L27 413.777ZM28 418.756C28 418.48 27.7761 418.256 27.5 418.256C27.2238 418.256 27 418.48 27 418.756L28 418.756ZM27 423.736C27 424.012 27.2238 424.236 27.5 424.236C27.7761 424.236 28 424.012 28 423.736L27 423.736ZM28 428.715C28 428.439 27.7761 428.215 27.5 428.215C27.2238 428.215 27 428.439 27 428.715L28 428.715ZM27 433.695C27 433.971 27.2238 434.195 27.5 434.195C27.7761 434.195 28 433.971 28 433.695L27 433.695ZM28 438.675C28 438.398 27.7761 438.175 27.5 438.175C27.2238 438.175 27 438.398 27 438.675L28 438.675ZM27 443.654C27 443.93 27.2238 444.154 27.5 444.154C27.7761 444.154 28 443.93 28 443.654L27 443.654ZM28 448.634C28 448.358 27.7761 448.134 27.5 448.134C27.2238 448.134 27 448.358 27 448.634L28 448.634ZM27 453.613C27 453.89 27.2238 454.113 27.5 454.113C27.7761 454.113 28 453.89 28 453.613L27 453.613ZM28 458.593C28 458.317 27.7761 458.093 27.5 458.093C27.2238 458.093 27 458.317 27 458.593L28 458.593ZM27 463.573C27 463.849 27.2238 464.073 27.5 464.073C27.7761 464.073 28 463.849 28 463.573L27 463.573ZM28 468.552C28 468.276 27.7761 468.052 27.5 468.052C27.2238 468.052 27 468.276 27 468.552L28 468.552ZM27 473.532C27 473.808 27.2238 474.032 27.5 474.032C27.7761 474.032 28 473.808 28 473.532L27 473.532ZM28 478.512C28 478.235 27.7761 478.012 27.5 478.012C27.2238 478.012 27 478.235 27 478.512L28 478.512ZM27 483.491C27 483.767 27.2238 483.991 27.5 483.991C27.7761 483.991 28 483.767 28 483.491L27 483.491ZM28 488.471C28 488.195 27.7761 487.971 27.5 487.971C27.2238 487.971 27 488.195 27 488.471L28 488.471ZM27 493.45C27 493.727 27.2238 493.95 27.5 493.95C27.7761 493.95 28 493.727 28 493.45L27 493.45ZM28 498.43C28 498.154 27.7761 497.93 27.5 497.93C27.2238 497.93 27 498.154 27 498.43L28 498.43ZM27 503.41C27 503.686 27.2238 503.91 27.5 503.91C27.7761 503.91 28 503.686 28 503.41L27 503.41ZM28 508.389C28 508.113 27.7761 507.889 27.5 507.889C27.2238 507.889 27 508.113 27 508.389L28 508.389ZM27 513.369C27 513.645 27.2238 513.869 27.5 513.869C27.7761 513.869 28 513.645 28 513.369L27 513.369ZM28 518.348C28 518.072 27.7761 517.848 27.5 517.848C27.2238 517.848 27 518.072 27 518.348L28 518.348ZM27 523.328C27 523.604 27.2238 523.828 27.5 523.828C27.7761 523.828 28 523.604 28 523.328L27 523.328ZM28 528.308C28 528.032 27.7761 527.808 27.5 527.808C27.2238 527.808 27 528.032 27 528.308L28 528.308ZM27 533.287C27 533.563 27.2238 533.787 27.5 533.787C27.7761 533.787 28 533.563 28 533.287L27 533.287ZM28 538.267C28 537.991 27.7761 537.767 27.5 537.767C27.2238 537.767 27 537.991 27 538.267L28 538.267ZM27 543.247C27 543.523 27.2238 543.747 27.5 543.747C27.7761 543.747 28 543.523 28 543.247L27 543.247ZM28 548.226C28 547.95 27.7761 547.726 27.5 547.726C27.2238 547.726 27 547.95 27 548.226L28 548.226ZM27 553.206C27 553.482 27.2238 553.706 27.5 553.706C27.7761 553.706 28 553.482 28 553.206L27 553.206ZM28 558.185C28 557.909 27.7761 557.685 27.5 557.685C27.2238 557.685 27 557.909 27 558.185L28 558.185ZM27 563.165C27 563.441 27.2238 563.665 27.5 563.665C27.7761 563.665 28 563.441 28 563.165L27 563.165ZM28 568.145C28 567.868 27.7761 567.645 27.5 567.645C27.2238 567.645 27 567.868 27 568.145L28 568.145ZM27 573.124C27 573.4 27.2238 573.624 27.5 573.624C27.7761 573.624 28 573.4 28 573.124L27 573.124ZM28 578.104C28 577.828 27.7761 577.604 27.5 577.604C27.2238 577.604 27 577.828 27 578.104L28 578.104ZM27 583.083C27 583.36 27.2238 583.583 27.5 583.583C27.7761 583.583 28 583.36 28 583.083L27 583.083ZM28 588.063C28 587.787 27.7761 587.563 27.5 587.563C27.2238 587.563 27 587.787 27 588.063L28 588.063ZM27 593.043C27 593.319 27.2238 593.543 27.5 593.543C27.7761 593.543 28 593.319 28 593.043L27 593.043ZM28 598.022C28 597.746 27.7761 597.522 27.5 597.522C27.2238 597.522 27 597.746 27 598.022L28 598.022ZM27 603.002C27 603.278 27.2238 603.502 27.5 603.502C27.7761 603.502 28 603.278 28 603.002L27 603.002ZM28 607.981C28 607.705 27.7761 607.481 27.5 607.481C27.2238 607.481 27 607.705 27 607.981L28 607.981ZM27 612.961C27 613.237 27.2238 613.461 27.5 613.461C27.7761 613.461 28 613.237 28 612.961L27 612.961ZM28 617.941C28 617.665 27.7761 617.441 27.5 617.441C27.2238 617.441 27 617.665 27 617.941L28 617.941ZM27 622.92C27 623.196 27.2238 623.42 27.5 623.42C27.7761 623.42 28 623.196 28 622.92L27 622.92ZM28 627.9C28 627.624 27.7761 627.4 27.5 627.4C27.2238 627.4 27 627.624 27 627.9L28 627.9ZM27 632.88C27 633.156 27.2238 633.38 27.5 633.38C27.7761 633.38 28 633.156 28 632.88L27 632.88ZM28 637.859C28 637.583 27.7761 637.359 27.5 637.359C27.2238 637.359 27 637.583 27 637.859L28 637.859ZM27 642.839C27 643.115 27.2238 643.339 27.5 643.339C27.7761 643.339 28 643.115 28 642.839L27 642.839ZM28 647.818C28 647.542 27.7761 647.318 27.5 647.318C27.2238 647.318 27 647.542 27 647.818L28 647.818ZM27 652.798C27 653.074 27.2238 653.298 27.5 653.298C27.7761 653.298 28 653.074 28 652.798L27 652.798ZM28 657.778C28 657.502 27.7761 657.278 27.5 657.278C27.2238 657.278 27 657.502 27 657.778L28 657.778ZM27 662.757C27 663.033 27.2238 663.257 27.5 663.257C27.7761 663.257 28 663.033 28 662.757L27 662.757ZM28 667.737C28 667.461 27.7761 667.237 27.5 667.237C27.2238 667.237 27 667.461 27 667.737L28 667.737ZM27 672.716C27 672.993 27.2238 673.216 27.5 673.216C27.7761 673.216 28 672.993 28 672.716L27 672.716ZM28 677.696C28 677.42 27.7761 677.196 27.5 677.196C27.2238 677.196 27 677.42 27 677.696L28 677.696ZM27 682.676C27 682.952 27.2238 683.176 27.5 683.176C27.7761 683.176 28 682.952 28 682.676L27 682.676ZM28 687.655C28 687.379 27.7761 687.155 27.5 687.155C27.2238 687.155 27 687.379 27 687.655L28 687.655ZM27 692.635C27 692.911 27.2238 693.135 27.5 693.135C27.7761 693.135 28 692.911 28 692.635L27 692.635ZM28 697.615C28 697.338 27.7761 697.115 27.5 697.115C27.2238 697.115 27 697.338 27 697.615L28 697.615ZM27 702.594C27 702.87 27.2238 703.094 27.5 703.094C27.7761 703.094 28 702.87 28 702.594L27 702.594ZM28 707.574C28 707.298 27.7761 707.074 27.5 707.074C27.2238 707.074 27 707.298 27 707.574L28 707.574ZM27 712.553C27 712.83 27.2238 713.053 27.5 713.053C27.7761 713.053 28 712.83 28 712.553L27 712.553ZM28 717.533C28 717.257 27.7761 717.033 27.5 717.033C27.2238 717.033 27 717.257 27 717.533L28 717.533ZM27 722.513C27 722.789 27.2238 723.013 27.5 723.013C27.7761 723.013 28 722.789 28 722.513L27 722.513ZM28 727.492C28 727.216 27.7761 726.992 27.5 726.992C27.2238 726.992 27 727.216 27 727.492L28 727.492ZM27 732.472C27 732.748 27.2238 732.972 27.5 732.972C27.7761 732.972 28 732.748 28 732.472L27 732.472ZM28 737.451C28 737.175 27.7761 736.951 27.5 736.951C27.2238 736.951 27 737.175 27 737.451L28 737.451ZM27 742.431C27 742.707 27.2238 742.931 27.5 742.931C27.7761 742.931 28 742.707 28 742.431L27 742.431ZM28 747.411C28 747.135 27.7761 746.911 27.5 746.911C27.2238 746.911 27 747.135 27 747.411L28 747.411ZM27 752.39C27 752.666 27.2238 752.89 27.5 752.89C27.7761 752.89 28 752.666 28 752.39L27 752.39ZM28 757.37C28 757.094 27.7761 756.87 27.5 756.87C27.2238 756.87 27 757.094 27 757.37L28 757.37ZM27 762.35C27 762.626 27.2238 762.85 27.5 762.85C27.7761 762.85 28 762.626 28 762.35L27 762.35ZM28 767.329C28 767.053 27.7761 766.829 27.5 766.829C27.2238 766.829 27 767.053 27 767.329L28 767.329ZM27 772.309C27 772.585 27.2238 772.809 27.5 772.809C27.7761 772.809 28 772.585 28 772.309L27 772.309ZM28 777.288C28 777.012 27.7761 776.788 27.5 776.788C27.2238 776.788 27 777.012 27 777.288L28 777.288ZM27 782.268C27 782.544 27.2238 782.768 27.5 782.768C27.7761 782.768 28 782.544 28 782.268L27 782.268ZM28 787.248C28 786.971 27.7761 786.748 27.5 786.748C27.2238 786.748 27 786.971 27 787.248L28 787.248ZM27 792.227C27 792.503 27.2238 792.727 27.5 792.727C27.7761 792.727 28 792.503 28 792.227L27 792.227ZM28 797.207C28 796.931 27.7761 796.707 27.5 796.707C27.2238 796.707 27 796.931 27 797.207L28 797.207ZM27 802.186C27 802.463 27.2238 802.686 27.5 802.686C27.7761 802.686 28 802.463 28 802.186L27 802.186ZM28 807.166C28 806.89 27.7761 806.666 27.5 806.666C27.2238 806.666 27 806.89 27 807.166L28 807.166ZM27 812.146C27 812.422 27.2238 812.646 27.5 812.646C27.7761 812.646 28 812.422 28 812.146L27 812.146ZM28 817.125C28 816.849 27.7761 816.625 27.5 816.625C27.2238 816.625 27 816.849 27 817.125L28 817.125ZM27 822.105C27 822.381 27.2238 822.605 27.5 822.605C27.7761 822.605 28 822.381 28 822.105L27 822.105ZM28 827.085C28 826.808 27.7761 826.585 27.5 826.585C27.2238 826.585 27 826.808 27 827.085L28 827.085ZM27 832.064C27 832.34 27.2238 832.564 27.5 832.564C27.7761 832.564 28 832.34 28 832.064L27 832.064ZM28 837.044C28 836.768 27.7761 836.544 27.5 836.544C27.2238 836.544 27 836.768 27 837.044L28 837.044ZM27 842.023C27 842.299 27.2238 842.523 27.5 842.523C27.7761 842.523 28 842.299 28 842.023L27 842.023ZM28 847.003C28 846.727 27.7761 846.503 27.5 846.503C27.2238 846.503 27 846.727 27 847.003L28 847.003ZM27 851.983C27 852.259 27.2238 852.483 27.5 852.483C27.7761 852.483 28 852.259 28 851.983L27 851.983ZM28 856.962C28 856.686 27.7761 856.462 27.5 856.462C27.2238 856.462 27 856.686 27 856.962L28 856.962ZM27 861.942C27 862.218 27.2238 862.442 27.5 862.442C27.7761 862.442 28 862.218 28 861.942L27 861.942ZM28 866.921C28 866.645 27.7761 866.421 27.5 866.421C27.2238 866.421 27 866.645 27 866.921L28 866.921ZM27 871.901C27 872.177 27.2238 872.401 27.5 872.401C27.7761 872.401 28 872.177 28 871.901L27 871.901ZM28 876.881C28 876.605 27.7761 876.381 27.5 876.381C27.2238 876.381 27 876.605 27 876.881L28 876.881ZM27 881.86C27 882.136 27.2238 882.36 27.5 882.36C27.7761 882.36 28 882.136 28 881.86L27 881.86ZM28 886.84C28 886.564 27.7761 886.34 27.5 886.34C27.2238 886.34 27 886.564 27 886.84L28 886.84ZM27 891.82C27 892.096 27.2238 892.32 27.5 892.32C27.7761 892.32 28 892.096 28 891.82L27 891.82ZM28 896.799C28 896.523 27.7761 896.299 27.5 896.299C27.2238 896.299 27 896.523 27 896.799L28 896.799ZM27 901.779C27 902.055 27.2238 902.279 27.5 902.279C27.7761 902.279 28 902.055 28 901.779L27 901.779ZM28 906.758C28 906.482 27.7761 906.258 27.5 906.258C27.2238 906.258 27 906.482 27 906.758L28 906.758ZM27 911.738C27 912.014 27.2238 912.238 27.5 912.238C27.7761 912.238 28 912.014 28 911.738L27 911.738ZM28 916.718C28 916.441 27.7761 916.218 27.5 916.218C27.2238 916.218 27 916.441 27 916.718L28 916.718ZM27 921.697C27 921.973 27.2238 922.197 27.5 922.197C27.7761 922.197 28 921.973 28 921.697L27 921.697ZM28 926.677C28 926.401 27.7761 926.177 27.5 926.177C27.2238 926.177 27 926.401 27 926.677L28 926.677ZM27 931.656C27 931.933 27.2238 932.156 27.5 932.156C27.7761 932.156 28 931.933 28 931.656L27 931.656ZM28 936.636C28 936.36 27.7761 936.136 27.5 936.136C27.2238 936.136 27 936.36 27 936.636L28 936.636ZM27 941.616C27 941.892 27.2238 942.116 27.5 942.116C27.7761 942.116 28 941.892 28 941.616L27 941.616ZM28 946.595C28 946.319 27.7761 946.095 27.5 946.095C27.2238 946.095 27 946.319 27 946.595L28 946.595ZM27 951.575C27 951.851 27.2238 952.075 27.5 952.075C27.7761 952.075 28 951.851 28 951.575L27 951.575ZM28 956.555C28 956.278 27.7761 956.055 27.5 956.055C27.2238 956.055 27 956.278 27 956.555L28 956.555ZM27 961.534C27 961.81 27.2238 962.034 27.5 962.034C27.7761 962.034 28 961.81 28 961.534L27 961.534ZM28 966.514C28 966.238 27.7761 966.014 27.5 966.014C27.2238 966.014 27 966.238 27 966.514L28 966.514ZM27 971.493C27 971.769 27.2238 971.993 27.5 971.993C27.7761 971.993 28 971.769 28 971.493L27 971.493ZM28 976.473C28 976.197 27.7761 975.973 27.5 975.973C27.2238 975.973 27 976.197 27 976.473L28 976.473ZM27 981.453C27 981.729 27.2238 981.953 27.5 981.953C27.7761 981.953 28 981.729 28 981.453L27 981.453ZM28 986.432C28 986.156 27.7761 985.932 27.5 985.932C27.2238 985.932 27 986.156 27 986.432L28 986.432ZM27 991.412C27 991.688 27.2238 991.912 27.5 991.912C27.7761 991.912 28 991.688 28 991.412L27 991.412ZM28 996.391C28 996.115 27.7761 995.891 27.5 995.891C27.2238 995.891 27 996.115 27 996.391L28 996.391ZM27 1001.37C27 1001.65 27.2238 1001.87 27.5 1001.87C27.7761 1001.87 28 1001.65 28 1001.37L27 1001.37ZM28 1006.35C28 1006.07 27.7761 1005.85 27.5 1005.85C27.2238 1005.85 27 1006.07 27 1006.35L28 1006.35ZM27 1011.33C27 1011.61 27.2238 1011.83 27.5 1011.83C27.7761 1011.83 28 1011.61 28 1011.33L27 1011.33ZM28 1016.31C28 1016.03 27.7761 1015.81 27.5 1015.81C27.2238 1015.81 27 1016.03 27 1016.31L28 1016.31ZM27 1021.29C27 1021.57 27.2238 1021.79 27.5 1021.79C27.7761 1021.79 28 1021.57 28 1021.29L27 1021.29ZM28 1026.27C28 1025.99 27.7761 1025.77 27.5 1025.77C27.2238 1025.77 27 1025.99 27 1026.27L28 1026.27ZM27 1031.25C27 1031.52 27.2238 1031.75 27.5 1031.75C27.7761 1031.75 28 1031.52 28 1031.25L27 1031.25ZM28 1036.23C28 1035.95 27.7761 1035.73 27.5 1035.73C27.2238 1035.73 27 1035.95 27 1036.23L28 1036.23ZM27 1041.21C27 1041.48 27.2238 1041.71 27.5 1041.71C27.7761 1041.71 28 1041.48 28 1041.21L27 1041.21ZM28 1046.19C28 1045.91 27.7761 1045.69 27.5 1045.69C27.2238 1045.69 27 1045.91 27 1046.19L28 1046.19ZM27 1051.17C27 1051.44 27.2238 1051.67 27.5 1051.67C27.7761 1051.67 28 1051.44 28 1051.17L27 1051.17ZM28 1056.15C28 1055.87 27.7761 1055.65 27.5 1055.65C27.2238 1055.65 27 1055.87 27 1056.15L28 1056.15ZM27 1061.13C27 1061.4 27.2238 1061.63 27.5 1061.63C27.7761 1061.63 28 1061.4 28 1061.13L27 1061.13ZM28 1066.11C28 1065.83 27.7761 1065.61 27.5 1065.61C27.2238 1065.61 27 1065.83 27 1066.11L28 1066.11ZM27 1071.09C27 1071.36 27.2238 1071.59 27.5 1071.59C27.7761 1071.59 28 1071.36 28 1071.09L27 1071.09ZM28 1076.07C28 1075.79 27.7761 1075.57 27.5 1075.57C27.2238 1075.57 27 1075.79 27 1076.07L28 1076.07ZM27 2.95776L27 5.44758L28 5.44758L28 2.95776L27 2.95776ZM27 10.4272L27 15.4068L28 15.4068L28 10.4272L27 10.4272ZM27 20.3864L27 25.3661L28 25.3661L28 20.3864L27 20.3864ZM27 30.3457L27 35.3253L28 35.3253L28 30.3457L27 30.3457ZM27 40.3049L27 45.2846L28 45.2846L28 40.3049L27 40.3049ZM27 50.2642L27 55.2438L28 55.2438L28 50.2642L27 50.2642ZM27 60.2234L27 65.203L28 65.203L28 60.2234L27 60.2234ZM27 70.1827L27 75.1623L28 75.1623L28 70.1827L27 70.1827ZM27 80.1419L27 85.1215L28 85.1215L28 80.1419L27 80.1419ZM27 90.1012L27 95.0808L28 95.0808L28 90.1012L27 90.1012ZM27 100.06L27 105.04L28 105.04L28 100.06L27 100.06ZM27 110.02L27 114.999L28 114.999L28 110.02L27 110.02ZM27 119.979L27 124.959L28 124.959L28 119.979L27 119.979ZM27 129.938L27 134.918L28 134.918L28 129.938L27 129.938ZM27 139.897L27 144.877L28 144.877L28 139.897L27 139.897ZM27 149.857L27 154.836L28 154.836L28 149.857L27 149.857ZM27 159.816L27 164.796L28 164.796L28 159.816L27 159.816ZM27 169.775L27 174.755L28 174.755L28 169.775L27 169.775ZM27 179.734L27 184.714L28 184.714L28 179.734L27 179.734ZM27 189.694L27 194.673L28 194.673L28 189.694L27 189.694ZM27 199.653L27 204.633L28 204.633L28 199.653L27 199.653ZM27 209.612L27 214.592L28 214.592L28 209.612L27 209.612ZM27 219.571L27 224.551L28 224.551L28 219.571L27 219.571ZM27 229.531L27 234.51L28 234.51L28 229.531L27 229.531ZM27 239.49L27 244.47L28 244.47L28 239.49L27 239.49ZM27 249.449L27 254.429L28 254.429L28 249.449L27 249.449ZM27 259.408L27 264.388L28 264.388L28 259.408L27 259.408ZM27 269.368L27 274.347L28 274.347L28 269.368L27 269.368ZM27 279.327L27 284.307L28 284.307L28 279.327L27 279.327ZM27 289.286L27 294.266L28 294.266L28 289.286L27 289.286ZM27 299.245L27 304.225L28 304.225L28 299.245L27 299.245ZM27 309.205L27 314.184L28 314.184L28 309.205L27 309.205ZM27 319.164L27 324.143L28 324.143L28 319.164L27 319.164ZM27 329.123L27 334.103L28 334.103L28 329.123L27 329.123ZM27 339.082L27 344.062L28 344.062L28 339.082L27 339.082ZM27 349.042L27 354.021L28 354.021L28 349.042L27 349.042ZM27 359.001L27 363.98L28 363.98L28 359.001L27 359.001ZM27 368.96L27 373.94L28 373.94L28 368.96L27 368.96ZM27 378.919L27 383.899L28 383.899L28 378.919L27 378.919ZM27 388.878L27 393.858L28 393.858L28 388.878L27 388.878ZM27 398.838L27 403.817L28 403.817L28 398.838L27 398.838ZM27 408.797L27 413.777L28 413.777L28 408.797L27 408.797ZM27 418.756L27 423.736L28 423.736L28 418.756L27 418.756ZM27 428.715L27 433.695L28 433.695L28 428.715L27 428.715ZM27 438.675L27 443.654L28 443.654L28 438.675L27 438.675ZM27 448.634L27 453.613L28 453.613L28 448.634L27 448.634ZM27 458.593L27 463.573L28 463.573L28 458.593L27 458.593ZM27 468.552L27 473.532L28 473.532L28 468.552L27 468.552ZM27 478.512L27 483.491L28 483.491L28 478.512L27 478.512ZM27 488.471L27 493.45L28 493.45L28 488.471L27 488.471ZM27 498.43L27 503.41L28 503.41L28 498.43L27 498.43ZM27 508.389L27 513.369L28 513.369L28 508.389L27 508.389ZM27 518.348L27 523.328L28 523.328L28 518.348L27 518.348ZM27 528.308L27 533.287L28 533.287L28 528.308L27 528.308ZM27 538.267L27 543.247L28 543.247L28 538.267L27 538.267ZM27 548.226L27 553.206L28 553.206L28 548.226L27 548.226ZM27 558.185L27 563.165L28 563.165L28 558.185L27 558.185ZM27 568.145L27 573.124L28 573.124L28 568.145L27 568.145ZM27 578.104L27 583.083L28 583.083L28 578.104L27 578.104ZM27 588.063L27 593.043L28 593.043L28 588.063L27 588.063ZM27 598.022L27 603.002L28 603.002L28 598.022L27 598.022ZM27 607.981L27 612.961L28 612.961L28 607.981L27 607.981ZM27 617.941L27 622.92L28 622.92L28 617.941L27 617.941ZM27 627.9L27 632.88L28 632.88L28 627.9L27 627.9ZM27 637.859L27 642.839L28 642.839L28 637.859L27 637.859ZM27 647.818L27 652.798L28 652.798L28 647.818L27 647.818ZM27 657.778L27 662.757L28 662.757L28 657.778L27 657.778ZM27 667.737L27 672.716L28 672.716L28 667.737L27 667.737ZM27 677.696L27 682.676L28 682.676L28 677.696L27 677.696ZM27 687.655L27 692.635L28 692.635L28 687.655L27 687.655ZM27 697.615L27 702.594L28 702.594L28 697.615L27 697.615ZM27 707.574L27 712.553L28 712.553L28 707.574L27 707.574ZM27 717.533L27 722.513L28 722.513L28 717.533L27 717.533ZM27 727.492L27 732.472L28 732.472L28 727.492L27 727.492ZM27 737.451L27 742.431L28 742.431L28 737.451L27 737.451ZM27 747.411L27 752.39L28 752.39L28 747.411L27 747.411ZM27 757.37L27 762.35L28 762.35L28 757.37L27 757.37ZM27 767.329L27 772.309L28 772.309L28 767.329L27 767.329ZM27 777.288L27 782.268L28 782.268L28 777.288L27 777.288ZM27 787.248L27 792.227L28 792.227L28 787.248L27 787.248ZM27 797.207L27 802.186L28 802.186L28 797.207L27 797.207ZM27 807.166L27 812.146L28 812.146L28 807.166L27 807.166ZM27 817.125L27 822.105L28 822.105L28 817.125L27 817.125ZM27 827.085L27 832.064L28 832.064L28 827.085L27 827.085ZM27 837.044L27 842.023L28 842.023L28 837.044L27 837.044ZM27 847.003L27 851.983L28 851.983L28 847.003L27 847.003ZM27 856.962L27 861.942L28 861.942L28 856.962L27 856.962ZM27 866.921L27 871.901L28 871.901L28 866.921L27 866.921ZM27 876.881L27 881.86L28 881.86L28 876.881L27 876.881ZM27 886.84L27 891.82L28 891.82L28 886.84L27 886.84ZM27 896.799L27 901.779L28 901.779L28 896.799L27 896.799ZM27 906.758L27 911.738L28 911.738L28 906.758L27 906.758ZM27 916.718L27 921.697L28 921.697L28 916.718L27 916.718ZM27 926.677L27 931.656L28 931.656L28 926.677L27 926.677ZM27 936.636L27 941.616L28 941.616L28 936.636L27 936.636ZM27 946.595L27 951.575L28 951.575L28 946.595L27 946.595ZM27 956.555L27 961.534L28 961.534L28 956.555L27 956.555ZM27 966.514L27 971.493L28 971.493L28 966.514L27 966.514ZM27 976.473L27 981.453L28 981.453L28 976.473L27 976.473ZM27 986.432L27 991.412L28 991.412L28 986.432L27 986.432ZM27 996.391L27 1001.37L28 1001.37L28 996.391L27 996.391ZM27 1006.35L27 1011.33L28 1011.33L28 1006.35L27 1006.35ZM27 1016.31L27 1021.29L28 1021.29L28 1016.31L27 1016.31ZM27 1026.27L27 1031.25L28 1031.25L28 1026.27L27 1026.27ZM27 1036.23L27 1041.21L28 1041.21L28 1036.23L27 1036.23ZM27 1046.19L27 1051.17L28 1051.17L28 1046.19L27 1046.19ZM27 1056.15L27 1061.13L28 1061.13L28 1056.15L27 1056.15ZM27 1066.11L27 1071.09L28 1071.09L28 1066.11L27 1066.11Z" fill="white"/>
<path d="M27.0211 97.7247C26.9417 97.9892 27.0918 98.2679 27.3563 98.3473C27.6208 98.4266 27.8996 98.2766 27.9789 98.0121L27.0211 97.7247ZM54.1574 65.731C54.2644 65.4765 54.1448 65.1833 53.8902 65.0763L49.742 63.3322C49.4874 63.2251 49.1943 63.3447 49.0873 63.5993C48.9803 63.8538 49.0999 64.147 49.3544 64.254L53.0417 65.8044L51.4914 69.4917C51.3844 69.7462 51.504 70.0394 51.7585 70.1464C52.0131 70.2534 52.3062 70.1338 52.4132 69.8793L54.1574 65.731ZM28.417 96.5167C28.4935 96.2513 28.3403 95.9742 28.075 95.8978C27.8096 95.8213 27.5326 95.9744 27.4561 96.2398L28.417 96.5167ZM28.3234 93.2461C28.2447 93.5108 28.3954 93.7892 28.6601 93.8679C28.9248 93.9466 29.2032 93.7959 29.2819 93.5312L28.3234 93.2461ZM30.2121 90.5814C30.3005 90.3197 30.16 90.036 29.8984 89.9477C29.6368 89.8593 29.353 89.9998 29.2647 90.2614L30.2121 90.5814ZM30.3484 87.3148C30.2455 87.5711 30.3697 87.8622 30.626 87.9652C30.8822 88.0681 31.1734 87.9438 31.2763 87.6876L30.3484 87.3148ZM32.5212 84.8726C32.6421 84.6243 32.5387 84.325 32.2904 84.2042C32.0421 84.0833 31.7429 84.1867 31.6221 84.435L32.5212 84.8726ZM33.1117 81.661C32.9711 81.8987 33.0499 82.2054 33.2875 82.3459C33.5252 82.4865 33.8319 82.4078 33.9724 82.1701L33.1117 81.661ZM35.6478 79.5994C35.8087 79.3749 35.7571 79.0626 35.5327 78.9017C35.3082 78.7409 34.9958 78.7925 34.835 79.0169L35.6478 79.5994ZM36.7863 76.5372C36.6059 76.7463 36.6292 77.0621 36.8383 77.2424C37.0474 77.4228 37.3632 77.3995 37.5435 77.1903L36.7863 76.5372ZM39.6463 74.9612C39.8444 74.7689 39.8492 74.4523 39.6568 74.2542C39.4645 74.056 39.1479 74.0513 38.9498 74.2436L39.6463 74.9612ZM41.3032 72.1466C41.0896 72.3215 41.0582 72.6365 41.2331 72.8502C41.408 73.0638 41.7231 73.0952 41.9367 72.9203L41.3032 72.1466ZM44.3896 71.0701C44.6163 70.9125 44.6723 70.6009 44.5146 70.3741C44.357 70.1474 44.0454 70.0914 43.8187 70.2491L44.3896 71.0701ZM46.47 68.5453C46.2326 68.6863 46.1544 68.9931 46.2954 69.2305C46.4365 69.468 46.7432 69.5461 46.9807 69.4051L46.47 68.5453ZM49.6713 67.9241C49.9173 67.7986 50.015 67.4975 49.8896 67.2515C49.7641 67.0055 49.463 66.9078 49.217 67.0333L49.6713 67.9241ZM52.0557 65.6891C51.8028 65.8001 51.6879 66.0951 51.799 66.348C51.9101 66.6008 52.2051 66.7157 52.4579 66.6046L52.0557 65.6891ZM27.9789 98.0121C28.1248 97.5257 28.2701 97.0265 28.417 96.5167L27.4561 96.2398C27.3095 96.7483 27.1654 97.2435 27.0211 97.7247L27.9789 98.0121ZM29.2819 93.5312C29.5675 92.5711 29.873 91.5855 30.2121 90.5814L29.2647 90.2614C28.9205 91.2807 28.6112 92.2787 28.3234 93.2461L29.2819 93.5312ZM31.2763 87.6876C31.6505 86.756 32.0622 85.8158 32.5212 84.8726L31.6221 84.435C31.1516 85.4018 30.7304 86.3638 30.3484 87.3148L31.2763 87.6876ZM33.9724 82.1701C34.4813 81.3098 35.0373 80.4514 35.6478 79.5994L34.835 79.0169C34.2066 79.8938 33.6347 80.7768 33.1117 81.661L33.9724 82.1701ZM37.5435 77.1903C38.1925 76.4379 38.8916 75.6938 39.6463 74.9612L38.9498 74.2436C38.1736 74.9971 37.4543 75.7627 36.7863 76.5372L37.5435 77.1903ZM41.9367 72.9203C42.7048 72.2914 43.5211 71.6739 44.3896 71.0701L43.8187 70.2491C42.929 70.8676 42.0918 71.5009 41.3032 72.1466L41.9367 72.9203ZM46.9807 69.4051C47.8334 68.8987 48.7294 68.4044 49.6713 67.9241L49.217 67.0333C48.2565 67.5231 47.3417 68.0277 46.47 68.5453L46.9807 69.4051ZM52.4579 66.6046C52.9237 66.3999 53.3995 66.1984 53.8853 66.0002L53.5076 65.0743C53.0136 65.2758 52.5297 65.4808 52.0557 65.6891L52.4579 66.6046Z" fill="white"/>
<path d="M27.9789 97.7247C28.0583 97.9892 27.9082 98.2679 27.6437 98.3473C27.3792 98.4266 27.1004 98.2766 27.0211 98.0121L27.9789 97.7247ZM0.842628 65.731C0.7356 65.4765 0.855194 65.1833 1.10975 65.0763L5.258 63.3322C5.51255 63.2251 5.80568 63.3447 5.91271 63.5993C6.01974 63.8538 5.90014 64.147 5.64559 64.254L1.95826 65.8044L3.50861 69.4917C3.61564 69.7462 3.49604 70.0394 3.24149 70.1464C2.98693 70.2534 2.6938 70.1338 2.58677 69.8793L0.842628 65.731ZM26.583 96.5167C26.5065 96.2513 26.6597 95.9742 26.925 95.8978C27.1904 95.8213 27.4674 95.9744 27.5439 96.2398L26.583 96.5167ZM26.6766 93.2461C26.7553 93.5108 26.6046 93.7892 26.3399 93.8679C26.0752 93.9466 25.7968 93.7959 25.7181 93.5312L26.6766 93.2461ZM24.7879 90.5814C24.6995 90.3197 24.84 90.036 25.1016 89.9477C25.3632 89.8593 25.647 89.9998 25.7353 90.2614L24.7879 90.5814ZM24.6516 87.3148C24.7545 87.5711 24.6303 87.8622 24.374 87.9652C24.1178 88.0681 23.8266 87.9438 23.7237 87.6876L24.6516 87.3148ZM22.4788 84.8726C22.3579 84.6243 22.4613 84.325 22.7096 84.2042C22.9579 84.0833 23.2571 84.1867 23.3779 84.435L22.4788 84.8726ZM21.8883 81.661C22.0289 81.8987 21.9501 82.2054 21.7125 82.3459C21.4748 82.4865 21.1681 82.4078 21.0276 82.1701L21.8883 81.661ZM19.3522 79.5994C19.1913 79.3749 19.2429 79.0626 19.4673 78.9017C19.6918 78.7409 20.0042 78.7925 20.165 79.0169L19.3522 79.5994ZM18.2137 76.5372C18.3941 76.7463 18.3708 77.0621 18.1617 77.2424C17.9526 77.4228 17.6368 77.3995 17.4565 77.1903L18.2137 76.5372ZM15.3537 74.9612C15.1556 74.7689 15.1508 74.4523 15.3432 74.2542C15.5355 74.056 15.8521 74.0513 16.0502 74.2436L15.3537 74.9612ZM13.6968 72.1466C13.9104 72.3215 13.9418 72.6365 13.7669 72.8502C13.592 73.0638 13.2769 73.0952 13.0633 72.9203L13.6968 72.1466ZM10.6104 71.0701C10.3837 70.9125 10.3277 70.6009 10.4854 70.3741C10.643 70.1474 10.9546 70.0914 11.1813 70.2491L10.6104 71.0701ZM8.52996 68.5453C8.76739 68.6863 8.84556 68.9931 8.70455 69.2305C8.56355 69.468 8.25677 69.5461 8.01934 69.4051L8.52996 68.5453ZM5.32869 67.9241C5.08269 67.7986 4.98497 67.4975 5.11043 67.2515C5.23589 67.0055 5.53702 66.9078 5.78301 67.0333L5.32869 67.9241ZM2.94435 65.6891C3.19716 65.8001 3.31207 66.0951 3.201 66.348C3.08993 66.6008 2.79493 66.7157 2.54211 66.6046L2.94435 65.6891ZM27.0211 98.0121C26.8752 97.5257 26.7299 97.0265 26.583 96.5167L27.5439 96.2398C27.6905 96.7483 27.8346 97.2435 27.9789 97.7247L27.0211 98.0121ZM25.7181 93.5312C25.4325 92.5711 25.127 91.5855 24.7879 90.5814L25.7353 90.2614C26.0795 91.2807 26.3888 92.2787 26.6766 93.2461L25.7181 93.5312ZM23.7237 87.6876C23.3495 86.756 22.9378 85.8158 22.4788 84.8726L23.3779 84.435C23.8484 85.4018 24.2696 86.3638 24.6516 87.3148L23.7237 87.6876ZM21.0276 82.1701C20.5187 81.3098 19.9627 80.4514 19.3522 79.5994L20.165 79.0169C20.7934 79.8938 21.3653 80.7768 21.8883 81.661L21.0276 82.1701ZM17.4565 77.1903C16.8075 76.4379 16.1084 75.6938 15.3537 74.9612L16.0502 74.2436C16.8264 74.9971 17.5457 75.7627 18.2137 76.5372L17.4565 77.1903ZM13.0633 72.9203C12.2952 72.2914 11.4789 71.6739 10.6104 71.0701L11.1813 70.2491C12.071 70.8676 12.9082 71.5009 13.6968 72.1466L13.0633 72.9203ZM8.01934 69.4051C7.16655 68.8987 6.27056 68.4044 5.32869 67.9241L5.78301 67.0333C6.74354 67.5231 7.65833 68.0277 8.52996 68.5453L8.01934 69.4051ZM2.54211 66.6046C2.07627 66.3999 1.60053 66.1984 1.11466 66.0002L1.49243 65.0743C1.98639 65.2758 2.47028 65.4808 2.94435 65.6891L2.54211 66.6046Z" fill="white"/>
<path d="M27.0211 469.357C26.9417 469.621 27.0918 469.9 27.3563 469.979C27.6208 470.059 27.8996 469.909 27.9789 469.644L27.0211 469.357ZM54.1574 437.363C54.2644 437.108 54.1448 436.815 53.8902 436.708L49.742 434.964C49.4874 434.857 49.1943 434.977 49.0873 435.231C48.9803 435.486 49.0999 435.779 49.3544 435.886L53.0417 437.436L51.4914 441.124C51.3844 441.378 51.504 441.671 51.7585 441.778C52.0131 441.885 52.3062 441.766 52.4132 441.511L54.1574 437.363ZM28.417 468.149C28.4935 467.883 28.3403 467.606 28.075 467.53C27.8096 467.453 27.5326 467.606 27.4561 467.872L28.417 468.149ZM28.3234 464.878C28.2447 465.143 28.3954 465.421 28.6601 465.5C28.9248 465.579 29.2032 465.428 29.2819 465.163L28.3234 464.878ZM30.2121 462.213C30.3005 461.952 30.16 461.668 29.8984 461.58C29.6368 461.491 29.353 461.632 29.2647 461.893L30.2121 462.213ZM30.3484 458.947C30.2455 459.203 30.3697 459.494 30.626 459.597C30.8822 459.7 31.1734 459.576 31.2763 459.32L30.3484 458.947ZM32.5212 456.505C32.6421 456.256 32.5387 455.957 32.2904 455.836C32.0421 455.715 31.7429 455.819 31.6221 456.067L32.5212 456.505ZM33.1117 453.293C32.9711 453.531 33.0499 453.837 33.2875 453.978C33.5252 454.118 33.8319 454.04 33.9724 453.802L33.1117 453.293ZM35.6478 451.231C35.8087 451.007 35.7571 450.695 35.5327 450.534C35.3082 450.373 34.9958 450.424 34.835 450.649L35.6478 451.231ZM36.7863 448.169C36.6059 448.378 36.6292 448.694 36.8383 448.874C37.0474 449.055 37.3632 449.031 37.5435 448.822L36.7863 448.169ZM39.6463 446.593C39.8444 446.401 39.8492 446.084 39.6568 445.886C39.4645 445.688 39.1479 445.683 38.9498 445.876L39.6463 446.593ZM41.3032 443.779C41.0896 443.953 41.0582 444.268 41.2331 444.482C41.408 444.696 41.7231 444.727 41.9367 444.552L41.3032 443.779ZM44.3896 442.702C44.6163 442.544 44.6723 442.233 44.5146 442.006C44.357 441.779 44.0454 441.723 43.8187 441.881L44.3896 442.702ZM46.47 440.177C46.2326 440.318 46.1544 440.625 46.2954 440.862C46.4365 441.1 46.7432 441.178 46.9807 441.037L46.47 440.177ZM49.6713 439.556C49.9173 439.431 50.015 439.129 49.8896 438.883C49.7641 438.637 49.463 438.54 49.217 438.665L49.6713 439.556ZM52.0557 437.321C51.8028 437.432 51.6879 437.727 51.799 437.98C51.9101 438.233 52.2051 438.348 52.4579 438.237L52.0557 437.321ZM27.9789 469.644C28.1248 469.158 28.2701 468.658 28.417 468.149L27.4561 467.872C27.3095 468.38 27.1654 468.875 27.0211 469.357L27.9789 469.644ZM29.2819 465.163C29.5675 464.203 29.873 463.217 30.2121 462.213L29.2647 461.893C28.9205 462.913 28.6112 463.911 28.3234 464.878L29.2819 465.163ZM31.2763 459.32C31.6505 458.388 32.0622 457.448 32.5212 456.505L31.6221 456.067C31.1516 457.034 30.7304 457.996 30.3484 458.947L31.2763 459.32ZM33.9724 453.802C34.4813 452.942 35.0373 452.083 35.6478 451.231L34.835 450.649C34.2066 451.526 33.6347 452.409 33.1117 453.293L33.9724 453.802ZM37.5435 448.822C38.1925 448.07 38.8916 447.326 39.6463 446.593L38.9498 445.876C38.1736 446.629 37.4543 447.395 36.7863 448.169L37.5435 448.822ZM41.9367 444.552C42.7048 443.923 43.5211 443.306 44.3896 442.702L43.8187 441.881C42.929 442.5 42.0918 443.133 41.3032 443.779L41.9367 444.552ZM46.9807 441.037C47.8334 440.531 48.7294 440.036 49.6713 439.556L49.217 438.665C48.2565 439.155 47.3417 439.66 46.47 440.177L46.9807 441.037ZM52.4579 438.237C52.9237 438.032 53.3995 437.83 53.8853 437.632L53.5076 436.706C53.0136 436.908 52.5297 437.113 52.0557 437.321L52.4579 438.237Z" fill="white"/>
<path d="M27.9789 469.357C28.0583 469.621 27.9082 469.9 27.6437 469.979C27.3792 470.059 27.1004 469.909 27.0211 469.644L27.9789 469.357ZM0.842628 437.363C0.7356 437.108 0.855194 436.815 1.10975 436.708L5.258 434.964C5.51255 434.857 5.80568 434.977 5.91271 435.231C6.01974 435.486 5.90014 435.779 5.64559 435.886L1.95826 437.436L3.50861 441.124C3.61564 441.378 3.49604 441.671 3.24149 441.778C2.98693 441.885 2.6938 441.766 2.58677 441.511L0.842628 437.363ZM26.583 468.149C26.5065 467.883 26.6597 467.606 26.925 467.53C27.1904 467.453 27.4674 467.606 27.5439 467.872L26.583 468.149ZM26.6766 464.878C26.7553 465.143 26.6046 465.421 26.3399 465.5C26.0752 465.579 25.7968 465.428 25.7181 465.163L26.6766 464.878ZM24.7879 462.213C24.6995 461.952 24.84 461.668 25.1016 461.58C25.3632 461.491 25.647 461.632 25.7353 461.893L24.7879 462.213ZM24.6516 458.947C24.7545 459.203 24.6303 459.494 24.374 459.597C24.1178 459.7 23.8266 459.576 23.7237 459.32L24.6516 458.947ZM22.4788 456.505C22.3579 456.256 22.4613 455.957 22.7096 455.836C22.9579 455.715 23.2571 455.819 23.3779 456.067L22.4788 456.505ZM21.8883 453.293C22.0289 453.531 21.9501 453.837 21.7125 453.978C21.4748 454.118 21.1681 454.04 21.0276 453.802L21.8883 453.293ZM19.3522 451.231C19.1913 451.007 19.2429 450.695 19.4673 450.534C19.6918 450.373 20.0042 450.424 20.165 450.649L19.3522 451.231ZM18.2137 448.169C18.3941 448.378 18.3708 448.694 18.1617 448.874C17.9526 449.055 17.6368 449.031 17.4565 448.822L18.2137 448.169ZM15.3537 446.593C15.1556 446.401 15.1508 446.084 15.3432 445.886C15.5355 445.688 15.8521 445.683 16.0502 445.876L15.3537 446.593ZM13.6968 443.779C13.9104 443.953 13.9418 444.268 13.7669 444.482C13.592 444.696 13.2769 444.727 13.0633 444.552L13.6968 443.779ZM10.6104 442.702C10.3837 442.544 10.3277 442.233 10.4854 442.006C10.643 441.779 10.9546 441.723 11.1813 441.881L10.6104 442.702ZM8.52996 440.177C8.76739 440.318 8.84556 440.625 8.70455 440.862C8.56355 441.1 8.25677 441.178 8.01934 441.037L8.52996 440.177ZM5.32869 439.556C5.08269 439.431 4.98497 439.129 5.11043 438.883C5.23589 438.637 5.53702 438.54 5.78301 438.665L5.32869 439.556ZM2.94435 437.321C3.19716 437.432 3.31207 437.727 3.201 437.98C3.08993 438.233 2.79493 438.348 2.54211 438.237L2.94435 437.321ZM27.0211 469.644C26.8752 469.158 26.7299 468.658 26.583 468.149L27.5439 467.872C27.6905 468.38 27.8346 468.875 27.9789 469.357L27.0211 469.644ZM25.7181 465.163C25.4325 464.203 25.127 463.217 24.7879 462.213L25.7353 461.893C26.0795 462.913 26.3888 463.911 26.6766 464.878L25.7181 465.163ZM23.7237 459.32C23.3495 458.388 22.9378 457.448 22.4788 456.505L23.3779 456.067C23.8484 457.034 24.2696 457.996 24.6516 458.947L23.7237 459.32ZM21.0276 453.802C20.5187 452.942 19.9627 452.083 19.3522 451.231L20.165 450.649C20.7934 451.526 21.3653 452.409 21.8883 453.293L21.0276 453.802ZM17.4565 448.822C16.8075 448.07 16.1084 447.326 15.3537 446.593L16.0502 445.876C16.8264 446.629 17.5457 447.395 18.2137 448.169L17.4565 448.822ZM13.0633 444.552C12.2952 443.923 11.4789 443.306 10.6104 442.702L11.1813 441.881C12.071 442.5 12.9082 443.133 13.6968 443.779L13.0633 444.552ZM8.01934 441.037C7.16655 440.531 6.27056 440.036 5.32869 439.556L5.78301 438.665C6.74354 439.155 7.65833 439.66 8.52996 440.177L8.01934 441.037ZM2.54211 438.237C2.07627 438.032 1.60053 437.83 1.11466 437.632L1.49243 436.706C1.98639 436.908 2.47028 437.113 2.94435 437.321L2.54211 438.237Z" fill="white"/>
<path d="M27.0211 841.786C26.9417 842.051 27.0918 842.329 27.3563 842.409C27.6208 842.488 27.8996 842.338 27.9789 842.073L27.0211 841.786ZM54.1574 809.792C54.2644 809.538 54.1448 809.245 53.8902 809.138L49.742 807.394C49.4874 807.287 49.1943 807.406 49.0873 807.661C48.9803 807.915 49.0999 808.208 49.3544 808.315L53.0417 809.866L51.4914 813.553C51.3844 813.808 51.504 814.101 51.7585 814.208C52.0131 814.315 52.3062 814.195 52.4132 813.941L54.1574 809.792ZM28.417 840.578C28.4935 840.313 28.3403 840.036 28.075 839.959C27.8096 839.883 27.5326 840.036 27.4561 840.301L28.417 840.578ZM28.3234 837.308C28.2447 837.572 28.3954 837.851 28.6601 837.929C28.9248 838.008 29.2032 837.857 29.2819 837.593L28.3234 837.308ZM30.2121 834.643C30.3005 834.381 30.16 834.097 29.8984 834.009C29.6368 833.921 29.353 834.061 29.2647 834.323L30.2121 834.643ZM30.3484 831.376C30.2455 831.632 30.3697 831.924 30.626 832.027C30.8822 832.13 31.1734 832.005 31.2763 831.749L30.3484 831.376ZM32.5212 828.934C32.6421 828.686 32.5387 828.386 32.2904 828.266C32.0421 828.145 31.7429 828.248 31.6221 828.496L32.5212 828.934ZM33.1117 825.722C32.9711 825.96 33.0499 826.267 33.2875 826.407C33.5252 826.548 33.8319 826.469 33.9724 826.232L33.1117 825.722ZM35.6478 823.661C35.8087 823.436 35.7571 823.124 35.5327 822.963C35.3082 822.802 34.9958 822.854 34.835 823.078L35.6478 823.661ZM36.7863 820.599C36.6059 820.808 36.6292 821.123 36.8383 821.304C37.0474 821.484 37.3632 821.461 37.5435 821.252L36.7863 820.599ZM39.6463 819.023C39.8444 818.83 39.8492 818.514 39.6568 818.316C39.4645 818.117 39.1479 818.113 38.9498 818.305L39.6463 819.023ZM41.3032 816.208C41.0896 816.383 41.0582 816.698 41.2331 816.912C41.408 817.125 41.7231 817.157 41.9367 816.982L41.3032 816.208ZM44.3896 815.132C44.6163 814.974 44.6723 814.662 44.5146 814.436C44.357 814.209 44.0454 814.153 43.8187 814.31L44.3896 815.132ZM46.47 812.607C46.2326 812.748 46.1544 813.055 46.2954 813.292C46.4365 813.529 46.7432 813.608 46.9807 813.467L46.47 812.607ZM49.6713 811.985C49.9173 811.86 50.015 811.559 49.8896 811.313C49.7641 811.067 49.463 810.969 49.217 811.095L49.6713 811.985ZM52.0557 809.75C51.8028 809.862 51.6879 810.157 51.799 810.409C51.9101 810.662 52.2051 810.777 52.4579 810.666L52.0557 809.75ZM27.9789 842.073C28.1248 841.587 28.2701 841.088 28.417 840.578L27.4561 840.301C27.3095 840.81 27.1654 841.305 27.0211 841.786L27.9789 842.073ZM29.2819 837.593C29.5675 836.633 29.873 835.647 30.2121 834.643L29.2647 834.323C28.9205 835.342 28.6112 836.34 28.3234 837.308L29.2819 837.593ZM31.2763 831.749C31.6505 830.817 32.0622 829.877 32.5212 828.934L31.6221 828.496C31.1516 829.463 30.7304 830.425 30.3484 831.376L31.2763 831.749ZM33.9724 826.232C34.4813 825.371 35.0373 824.513 35.6478 823.661L34.835 823.078C34.2066 823.955 33.6347 824.838 33.1117 825.722L33.9724 826.232ZM37.5435 821.252C38.1925 820.499 38.8916 819.755 39.6463 819.023L38.9498 818.305C38.1736 819.058 37.4543 819.824 36.7863 820.599L37.5435 821.252ZM41.9367 816.982C42.7048 816.353 43.5211 815.735 44.3896 815.132L43.8187 814.31C42.929 814.929 42.0918 815.562 41.3032 816.208L41.9367 816.982ZM46.9807 813.467C47.8334 812.96 48.7294 812.466 49.6713 811.985L49.217 811.095C48.2565 811.585 47.3417 812.089 46.47 812.607L46.9807 813.467ZM52.4579 810.666C52.9237 810.461 53.3995 810.26 53.8853 810.062L53.5076 809.136C53.0136 809.337 52.5297 809.542 52.0557 809.75L52.4579 810.666Z" fill="white"/>
<path d="M27.9789 841.786C28.0583 842.051 27.9082 842.329 27.6437 842.409C27.3792 842.488 27.1004 842.338 27.0211 842.073L27.9789 841.786ZM0.842628 809.792C0.7356 809.538 0.855194 809.245 1.10975 809.138L5.258 807.394C5.51255 807.287 5.80568 807.406 5.91271 807.661C6.01974 807.915 5.90014 808.208 5.64559 808.315L1.95826 809.866L3.50861 813.553C3.61564 813.808 3.49604 814.101 3.24149 814.208C2.98693 814.315 2.6938 814.195 2.58677 813.941L0.842628 809.792ZM26.583 840.578C26.5065 840.313 26.6597 840.036 26.925 839.959C27.1904 839.883 27.4674 840.036 27.5439 840.301L26.583 840.578ZM26.6766 837.308C26.7553 837.572 26.6046 837.851 26.3399 837.929C26.0752 838.008 25.7968 837.857 25.7181 837.593L26.6766 837.308ZM24.7879 834.643C24.6995 834.381 24.84 834.097 25.1016 834.009C25.3632 833.921 25.647 834.061 25.7353 834.323L24.7879 834.643ZM24.6516 831.376C24.7545 831.632 24.6303 831.924 24.374 832.027C24.1178 832.13 23.8266 832.005 23.7237 831.749L24.6516 831.376ZM22.4788 828.934C22.3579 828.686 22.4613 828.386 22.7096 828.266C22.9579 828.145 23.2571 828.248 23.3779 828.496L22.4788 828.934ZM21.8883 825.722C22.0289 825.96 21.9501 826.267 21.7125 826.407C21.4748 826.548 21.1681 826.469 21.0276 826.232L21.8883 825.722ZM19.3522 823.661C19.1913 823.436 19.2429 823.124 19.4673 822.963C19.6918 822.802 20.0042 822.854 20.165 823.078L19.3522 823.661ZM18.2137 820.599C18.3941 820.808 18.3708 821.123 18.1617 821.304C17.9526 821.484 17.6368 821.461 17.4565 821.252L18.2137 820.599ZM15.3537 819.023C15.1556 818.83 15.1508 818.514 15.3432 818.316C15.5355 818.117 15.8521 818.113 16.0502 818.305L15.3537 819.023ZM13.6968 816.208C13.9104 816.383 13.9418 816.698 13.7669 816.912C13.592 817.125 13.2769 817.157 13.0633 816.982L13.6968 816.208ZM10.6104 815.132C10.3837 814.974 10.3277 814.662 10.4854 814.436C10.643 814.209 10.9546 814.153 11.1813 814.31L10.6104 815.132ZM8.52996 812.607C8.76739 812.748 8.84556 813.055 8.70455 813.292C8.56355 813.529 8.25677 813.608 8.01934 813.467L8.52996 812.607ZM5.32869 811.985C5.08269 811.86 4.98497 811.559 5.11043 811.313C5.23589 811.067 5.53702 810.969 5.78301 811.095L5.32869 811.985ZM2.94435 809.75C3.19716 809.862 3.31207 810.157 3.201 810.409C3.08993 810.662 2.79493 810.777 2.54211 810.666L2.94435 809.75ZM27.0211 842.073C26.8752 841.587 26.7299 841.088 26.583 840.578L27.5439 840.301C27.6905 840.81 27.8346 841.305 27.9789 841.786L27.0211 842.073ZM25.7181 837.593C25.4325 836.633 25.127 835.647 24.7879 834.643L25.7353 834.323C26.0795 835.342 26.3888 836.34 26.6766 837.308L25.7181 837.593ZM23.7237 831.749C23.3495 830.817 22.9378 829.877 22.4788 828.934L23.3779 828.496C23.8484 829.463 24.2696 830.425 24.6516 831.376L23.7237 831.749ZM21.0276 826.232C20.5187 825.371 19.9627 824.513 19.3522 823.661L20.165 823.078C20.7934 823.955 21.3653 824.838 21.8883 825.722L21.0276 826.232ZM17.4565 821.252C16.8075 820.499 16.1084 819.755 15.3537 819.023L16.0502 818.305C16.8264 819.058 17.5457 819.824 18.2137 820.599L17.4565 821.252ZM13.0633 816.982C12.2952 816.353 11.4789 815.735 10.6104 815.132L11.1813 814.31C12.071 814.929 12.9082 815.562 13.6968 816.208L13.0633 816.982ZM8.01934 813.467C7.16655 812.96 6.27056 812.466 5.32869 811.985L5.78301 811.095C6.74354 811.585 7.65833 812.089 8.52996 812.607L8.01934 813.467ZM2.54211 810.666C2.07627 810.461 1.60053 810.26 1.11466 810.062L1.49243 809.136C1.98639 809.337 2.47028 809.542 2.94435 809.75L2.54211 810.666Z" fill="white"/>
</svg>
