<svg width="44" height="44" viewBox="0 0 44 44" fill="none" xmlns="http://www.w3.org/2000/svg">
<path opacity="0.6" fill-rule="evenodd" clip-rule="evenodd" d="M22.0005 0.759766C33.8026 0.759766 43.3828 10.34 43.3828 22.1421C43.3828 33.9442 33.8026 43.5244 22.0005 43.5244C10.1984 43.5244 0.618164 33.9442 0.618164 22.1421C0.618164 10.34 10.1984 0.759766 22.0005 0.759766ZM22.0005 3.81438C11.886 3.81438 3.67278 12.0276 3.67278 22.1421C3.67278 32.2565 11.886 40.4698 22.0005 40.4698C32.1149 40.4698 40.3282 32.2565 40.3282 22.1421C40.3282 12.0276 32.1149 3.81438 22.0005 3.81438Z" fill="white"/>
<g opacity="0.6">
<path d="M29.5645 14.2766L14.4377 29.4034" stroke="white" stroke-width="3" stroke-linecap="round"/>
<path d="M29.5645 29.4036L14.4377 14.2768" stroke="white" stroke-width="3" stroke-linecap="round"/>
</g>
</svg>
