<svg width="960" height="395" viewBox="0 0 960 395" fill="none" xmlns="http://www.w3.org/2000/svg">
<g opacity="0.05">
<path d="M959.5 466.642C959.5 723.824 744.834 932.336 480 932.336C215.166 932.336 0.5 723.824 0.5 466.642C0.5 209.459 215.166 0.946899 480 0.946899C744.834 0.946899 959.5 209.459 959.5 466.642Z" stroke="white"/>
<path d="M883.51 466.642C883.51 683.063 702.866 858.532 480 858.532C257.133 858.532 76.4893 683.063 76.4893 466.642C76.4893 250.22 257.133 74.7507 480 74.7507C702.866 74.7507 883.51 250.22 883.51 466.642Z" stroke="white"/>
<path d="M807.521 466.642C807.521 642.302 660.898 784.728 480 784.728C299.101 784.728 152.479 642.302 152.479 466.642C152.479 290.981 299.101 148.555 480 148.555C660.898 148.555 807.521 290.981 807.521 466.642Z" stroke="white"/>
<path d="M731.532 466.641C731.532 601.541 618.931 710.924 480 710.924C341.069 710.924 228.469 601.541 228.469 466.641C228.469 331.741 341.069 222.358 480 222.358C618.931 222.358 731.532 331.741 731.532 466.641Z" stroke="white"/>
<ellipse cx="480" cy="466.641" rx="182" ry="176.765" fill="#FE5723"/>
</g>
</svg>
