<svg width="14" height="14" viewBox="0 0 14 14" fill="none" xmlns="http://www.w3.org/2000/svg">
<path d="M3.04241 13.613H0.212969V4.51622H3.04241V13.613ZM1.61248 3.29926C0.730179 3.29926 0 2.53866 0 1.62593C0 0.378546 1.33866 -0.412481 2.43393 0.226425C2.95114 0.500242 3.25538 1.04788 3.25538 1.62593C3.25538 2.53866 2.5252 3.29926 1.61248 3.29926ZM13.5996 13.613H10.8006V9.20154C10.8006 8.13669 10.7701 6.79803 9.30978 6.79803C7.84942 6.79803 7.63645 7.92373 7.63645 9.11027V13.613H4.80701V4.51622H7.51475V5.76361H7.54518C7.94069 5.06386 8.85341 4.30326 10.2225 4.30326C13.0824 4.30326 13.63 6.18955 13.63 8.62348V13.613H13.5996Z" fill="white"/>
</svg>
