<svg width="50" height="50" viewBox="0 0 50 50" fill="none" xmlns="http://www.w3.org/2000/svg">
<path fill-rule="evenodd" clip-rule="evenodd" d="M25 0C38.8063 0 50 11.1937 50 25C50 38.8063 38.8063 50 25 50C11.1937 50 0 38.8063 0 25C0 11.1937 11.1937 0 25 0ZM29.7944 1.70274C33.1553 4.19783 35.2497 8.75402 36.4006 12.6469H37.9631C39.3409 12.3998 40.6252 12.1149 41.796 11.7989C42.684 11.5563 43.5031 11.2981 44.2399 11.0265C40.7587 6.23886 35.6063 2.89544 29.7926 1.70513L29.7944 1.70274ZM48.7716 24.3899C48.6581 19.8471 47.2692 15.6224 44.9499 12.0549C44.3489 12.2864 43.7057 12.5067 43.0202 12.7137C43.9572 12.9563 44.6183 13.8066 44.6183 14.7792V23.1239C44.6183 23.6381 44.4714 24.061 44.2332 24.3882H48.7739L48.7716 24.3899ZM44.2421 38.9757C42.1766 38.21 39.5257 37.5689 36.4717 37.106C35.3188 41.1102 33.202 45.7619 29.792 48.2975C35.6056 47.1089 40.7583 43.7636 44.2415 38.9761L44.2421 38.9757ZM44.9521 37.9451C47.2714 34.3794 48.6581 30.1525 48.7738 25.6101H38.09C38.0433 29.3027 37.5826 32.797 36.7924 35.9246C40.0064 36.4187 42.7932 37.1104 44.9521 37.9451ZM20.2034 48.2973C16.7846 45.7577 14.6701 41.0813 13.5259 37.1081C10.4721 37.5711 7.82336 38.2099 5.75783 38.9755C9.23897 43.7631 14.3915 47.107 20.2034 48.2973ZM1.22621 25.6101C1.33973 30.1529 2.7286 34.3799 5.04786 37.9451C5.64439 37.7136 6.28986 37.4955 6.97983 37.2863C6.61925 37.1795 6.28764 36.9792 6.02274 36.7121C5.18359 35.8729 5.11909 34.5998 6.00715 33.7095L14.1069 25.6098L1.22621 25.6101ZM5.75567 11.0243C7.8212 11.79 10.4721 12.4311 13.526 12.894C14.679 8.8898 16.7957 4.23812 20.2058 1.70251C14.3921 2.89105 9.23943 6.23641 5.75624 11.0239L5.75567 11.0243ZM5.04564 12.0549C2.72638 15.6206 1.33972 19.8475 1.22399 24.3899H11.9077C11.9545 20.6973 12.4152 17.203 13.2054 14.0754C9.99134 13.5813 7.20462 12.8896 5.04564 12.0549ZM9.01197 36.7364C10.3029 36.4247 11.7074 36.1532 13.2054 35.9217C12.9783 35.0225 12.778 34.0944 12.6088 33.1395L9.01197 36.7341V36.7364ZM14.4162 35.7481C17.4521 35.3408 20.8287 35.1026 24.3877 35.0781V28.9414L20.9444 32.3847C20.1164 33.2126 18.7565 33.2126 17.9262 32.3847L15.6448 30.1032L13.6638 32.0842C13.8641 33.3552 14.1157 34.5795 14.4162 35.7481ZM24.3877 36.2979C20.9422 36.3223 17.6794 36.5471 14.741 36.9344C16.0341 41.3482 19.1903 48.2079 24.3877 48.7487V36.2979ZM25.6074 35.0781C29.1687 35.1026 32.543 35.3408 35.5789 35.7481C36.3624 32.6877 36.8209 29.2512 36.8676 25.6074H34.6708L31.6259 28.6523C30.7979 29.4802 29.4379 29.4802 28.6077 28.6523L26.6423 26.6869L25.6096 27.7197V35.0758L25.6074 35.0781ZM35.2541 36.9344C32.3161 36.5471 29.053 36.3224 25.6074 36.2979V48.7469C30.7801 48.2104 33.9407 41.4198 35.2541 36.9326V36.9344ZM33.2421 14.7812C33.2421 15.3042 33.5648 15.696 34.1368 15.696H38.8021C39.3385 15.696 39.6189 16.3503 39.2338 16.7376L30.549 25.4225C30.3108 25.6607 29.9257 25.6607 29.6876 25.4225L27.2904 23.0254C26.9343 22.6693 26.3512 22.6693 25.9973 23.0254L19.8696 29.153C19.6315 29.3912 19.2464 29.3912 19.0083 29.153L16.295 26.4398C15.9389 26.0837 15.3558 26.0837 15.0019 26.4398L6.86912 34.5726C6.46848 34.9732 6.51522 35.4829 6.8847 35.8502C7.26086 36.2263 7.77057 36.2575 8.16231 35.8657L15.2159 28.8122C15.454 28.574 15.8391 28.574 16.0772 28.8122L18.7905 31.5254C19.1466 31.8815 19.7275 31.8815 20.0836 31.5254L26.2113 25.3978C26.4494 25.1596 26.8345 25.1596 27.0726 25.3978L29.4698 27.7949C29.8259 28.151 30.4068 28.151 30.7629 27.7949L40.5276 18.0302C40.906 17.6519 41.5693 17.9145 41.5693 18.462V23.1273C41.5693 23.6971 41.961 24.022 42.4841 24.022C43.0071 24.022 43.3989 23.6993 43.3989 23.1273V14.7826C43.3989 14.2795 42.9871 13.8677 42.4841 13.8677H34.1393C33.5718 13.8677 33.2446 14.2617 33.2446 14.7826L33.2421 14.7812ZM32.0268 14.6343C31.0452 14.7166 30.0391 14.7812 29.0153 14.8301C27.8846 14.8813 26.745 14.9125 25.6076 14.9214V21.8057C26.4356 21.3472 27.4772 21.4919 28.1494 22.1641L30.1148 24.1294L37.3284 16.9158H34.1366C32.8924 16.9158 32.0222 15.9898 32.0222 14.7812C32.0222 14.7323 32.0246 14.6832 32.0268 14.6343ZM28.9619 13.6148C30.1816 13.5592 31.368 13.4768 32.5142 13.3722C32.8681 12.9404 33.409 12.6489 34.1346 12.6489H35.1251C33.8164 8.38424 30.6914 1.78276 25.6055 1.25285V13.7019C26.7651 13.6952 27.8846 13.6638 28.9619 13.6148ZM24.3857 14.9214C20.8244 14.8969 17.4501 14.6587 14.4142 14.2514C13.6307 17.3119 13.1722 20.7483 13.1255 24.3922H22.9032L24.3856 22.9098L24.3857 14.9214ZM14.739 13.0651C17.677 13.4524 20.9401 13.6772 24.3857 13.7017L24.3902 1.25039C19.2174 1.7868 16.0568 8.57745 14.7434 13.0646L14.739 13.0651ZM21.6837 25.6098H17.1854L19.4357 27.8601L21.6859 25.6098H21.6837ZM35.8888 24.3901H40.7321C40.4917 24.0629 40.3448 23.64 40.3448 23.1258V19.934L35.8866 24.3923L35.8888 24.3901Z" fill="white"/>
</svg>
