<svg width="51" height="50" viewBox="0 0 51 50" fill="none" xmlns="http://www.w3.org/2000/svg">
<path d="M24.2158 11.193V15.1366C23.9835 15.0458 23.7722 14.9086 23.5949 14.7333C23.4138 14.5527 23.2687 14.3392 23.1674 14.1043C23.0797 13.9086 22.9179 13.7557 22.7175 13.6794C22.5171 13.603 22.2946 13.6094 22.0989 13.697C21.9032 13.7847 21.7503 13.9466 21.674 14.147C21.5976 14.3474 21.604 14.5699 21.6916 14.7656C21.8916 15.1819 22.1648 15.5588 22.4981 15.8785C22.9726 16.3488 23.5666 16.6806 24.2158 16.8382V17.2575C24.2158 17.4714 24.3008 17.6765 24.452 17.8277C24.6033 17.979 24.8084 18.0639 25.0223 18.0639C25.2361 18.0639 25.4413 17.979 25.5925 17.8277C25.7437 17.6765 25.8287 17.4714 25.8287 17.2575V16.8382C26.496 16.6862 27.1076 16.351 27.5948 15.8704C28.2749 15.1886 28.6568 14.2649 28.6568 13.3019C28.6568 12.3389 28.2749 11.4152 27.5948 10.7334C27.1069 10.2553 26.4953 9.92296 25.8287 9.77369V5.83823C26.2934 6.03734 26.6672 6.40251 26.8771 6.86242C26.9651 7.05677 27.1265 7.20833 27.3261 7.2839C27.5256 7.35948 27.7469 7.35291 27.9416 7.26564C28.0385 7.2228 28.1261 7.16128 28.1992 7.08458C28.2724 7.00788 28.3297 6.91751 28.3679 6.81864C28.4061 6.71978 28.4244 6.61435 28.4219 6.50839C28.4193 6.40244 28.3958 6.29803 28.3529 6.20113C28.1218 5.68431 27.7733 5.22855 27.3351 4.87014C26.8969 4.51173 26.3811 4.26056 25.8287 4.13663V3.70922C25.8287 3.49533 25.7437 3.29021 25.5925 3.13897C25.4413 2.98773 25.2361 2.90277 25.0223 2.90277C24.8084 2.90277 24.6033 2.98773 24.452 3.13897C24.3008 3.29021 24.2158 3.49533 24.2158 3.70922V4.12857C23.5485 4.28052 22.9369 4.61567 22.4497 5.0963C21.7696 5.77812 21.3877 6.70182 21.3877 7.66483C21.3877 8.62784 21.7696 9.55155 22.4497 10.2334C22.9376 10.7114 23.5493 11.0438 24.2158 11.193ZM26.4497 11.8785C26.8269 12.2578 27.0387 12.771 27.0387 13.3059C27.0387 13.8409 26.8269 14.354 26.4497 14.7333C26.2723 14.9086 26.061 15.0458 25.8287 15.1366V11.4592C26.0606 11.5579 26.2715 11.7002 26.4497 11.8785ZM23.5949 6.23339C23.7758 6.05852 23.986 5.9166 24.2158 5.81404V9.50756C23.9839 9.40884 23.7731 9.26648 23.5949 9.08821C23.2176 8.70892 23.0059 8.19574 23.0059 7.6608C23.0059 7.12586 23.2176 6.61268 23.5949 6.23339Z" fill="white"/>
<path d="M25.0219 20.9676C27.0954 20.9676 29.1223 20.3527 30.8464 19.2008C32.5704 18.0488 33.9141 16.4114 34.7076 14.4958C35.5011 12.5801 35.7087 10.4722 35.3042 8.43851C34.8997 6.40485 33.9012 4.53682 32.435 3.07064C30.9689 1.60445 29.1008 0.605967 27.0672 0.201448C25.0335 -0.203072 22.9256 0.00454246 21.0099 0.798036C19.0942 1.59153 17.4569 2.93526 16.3049 4.65931C15.1529 6.38336 14.5381 8.4103 14.5381 10.4838C14.5381 13.2643 15.6426 15.9309 17.6087 17.897C19.5748 19.863 22.2414 20.9676 25.0219 20.9676ZM25.0219 1.6129C26.7764 1.6129 28.4915 2.13316 29.9503 3.10791C31.4091 4.08266 32.5461 5.4681 33.2175 7.08905C33.8889 8.70999 34.0646 10.4936 33.7223 12.2144C33.38 13.9352 32.5352 15.5159 31.2946 16.7565C30.0539 17.9971 28.4733 18.842 26.7525 19.1842C25.0317 19.5265 23.2481 19.3509 21.6271 18.6794C20.0062 18.008 18.6207 16.871 17.646 15.4122C16.6712 13.9534 16.151 12.2383 16.151 10.4838C16.151 8.13109 17.0856 5.87474 18.7492 4.21112C20.4128 2.54751 22.6692 1.6129 25.0219 1.6129Z" fill="white"/>
<path d="M28.2473 36.2898H21.7957C21.5818 36.2898 21.3767 36.3748 21.2255 36.526C21.0742 36.6772 20.9893 36.8824 20.9893 37.0962V49.1929C20.9893 49.4068 21.0742 49.6119 21.2255 49.7632C21.3767 49.9144 21.5818 49.9994 21.7957 49.9994H28.2473C28.4612 49.9994 28.6663 49.9144 28.8175 49.7632C28.9688 49.6119 29.0537 49.4068 29.0537 49.1929V37.0962C29.0537 36.8824 28.9688 36.6772 28.8175 36.526C28.6663 36.3748 28.4612 36.2898 28.2473 36.2898ZM27.4408 48.3865H22.6021V37.9027H27.4408V48.3865Z" fill="white"/>
<path d="M17.7639 32.2579H11.3123C11.0984 32.2579 10.8933 32.3429 10.7421 32.4941C10.5908 32.6454 10.5059 32.8505 10.5059 33.0644V49.1933C10.5059 49.4072 10.5908 49.6123 10.7421 49.7635C10.8933 49.9148 11.0984 49.9997 11.3123 49.9997H17.7639C17.9778 49.9997 18.1829 49.9148 18.3341 49.7635C18.4854 49.6123 18.5703 49.4072 18.5703 49.1933V33.0644C18.5703 32.8505 18.4854 32.6454 18.3341 32.4941C18.1829 32.3429 17.9778 32.2579 17.7639 32.2579ZM16.9574 48.3868H12.1188V33.8708H16.9574V48.3868Z" fill="white"/>
<path d="M38.7316 28.2256H32.2801C32.0662 28.2256 31.8611 28.3105 31.7098 28.4618C31.5586 28.613 31.4736 28.8181 31.4736 29.032V49.1932C31.4736 49.407 31.5586 49.6122 31.7098 49.7634C31.8611 49.9146 32.0662 49.9996 32.2801 49.9996H38.7316C38.9455 49.9996 39.1507 49.9146 39.3019 49.7634C39.4531 49.6122 39.5381 49.407 39.5381 49.1932V29.032C39.5381 28.8181 39.4531 28.613 39.3019 28.4618C39.1507 28.3105 38.9455 28.2256 38.7316 28.2256ZM37.9252 48.3867H33.0865V29.8385H37.9252V48.3867Z" fill="white"/>
<path d="M7.2795 40.3226H0.82793C0.614047 40.3226 0.408925 40.4076 0.257687 40.5588C0.106449 40.7101 0.0214844 40.9152 0.0214844 41.1291V49.1935C0.0214844 49.4074 0.106449 49.6125 0.257687 49.7638C0.408925 49.915 0.614047 50 0.82793 50H7.2795C7.49338 50 7.6985 49.915 7.84974 49.7638C8.00098 49.6125 8.08594 49.4074 8.08594 49.1935V41.1291C8.08594 40.9152 8.00098 40.7101 7.84974 40.5588C7.6985 40.4076 7.49338 40.3226 7.2795 40.3226ZM6.47305 48.3871H1.63438V41.9355H6.47305V48.3871Z" fill="white"/>
<path d="M49.215 20.1613H42.7635C42.5496 20.1613 42.3445 20.2463 42.1932 20.3975C42.042 20.5488 41.957 20.7539 41.957 20.9678V49.1934C41.957 49.4072 42.042 49.6124 42.1932 49.7636C42.3445 49.9148 42.5496 49.9998 42.7635 49.9998H49.215C49.4289 49.9998 49.634 49.9148 49.7853 49.7636C49.9365 49.6124 50.0215 49.4072 50.0215 49.1934V20.9678C50.0215 20.7539 49.9365 20.5488 49.7853 20.3975C49.634 20.2463 49.4289 20.1613 49.215 20.1613ZM48.4086 48.3869H43.5699V21.7742H48.4086V48.3869Z" fill="white"/>
<path d="M0.828523 35.4836C1.00671 35.4831 1.17969 35.4235 1.32045 35.3143L14.6671 25.1047L24.7316 28.9756C24.8646 29.0289 25.0095 29.0458 25.1512 29.0246C25.293 29.0033 25.4265 28.9447 25.538 28.8547L44.9572 13.3144L46.3604 15.0644C46.4355 15.1595 46.5311 15.2364 46.64 15.2894C46.7489 15.3425 46.8683 15.3703 46.9895 15.3709H47.1104C47.2507 15.3491 47.3828 15.2906 47.4932 15.2014C47.6037 15.1122 47.6886 14.9954 47.7395 14.8628L49.9653 9.16932C50.0186 9.03627 50.0355 8.89142 50.0142 8.74968C49.993 8.60793 49.9343 8.47442 49.8443 8.36287C49.7565 8.25163 49.641 8.16548 49.5093 8.11309C49.3776 8.06071 49.2345 8.04395 49.0943 8.06449L43.054 8.98383C42.9131 9.00463 42.7803 9.06235 42.6689 9.15114C42.5576 9.23993 42.4718 9.35662 42.4202 9.48934C42.3685 9.62207 42.353 9.76609 42.3751 9.90677C42.3972 10.0474 42.4561 10.1798 42.546 10.2903L43.9492 12.0403L24.8767 27.3063L14.8284 23.4434C14.6961 23.389 14.5516 23.3708 14.4099 23.3906C14.2682 23.4104 14.1343 23.4676 14.022 23.5563L0.312398 34.0401C0.177993 34.1443 0.0799607 34.2883 0.0323093 34.4515C-0.0153422 34.6148 -0.0101731 34.7889 0.047078 34.949C0.104329 35.1091 0.210731 35.2471 0.351079 35.3431C0.491426 35.4391 0.658535 35.4883 0.828523 35.4836ZM47.9572 9.87899L46.7475 12.9677L44.675 10.379L47.9572 9.87899Z" fill="white"/>
</svg>
