<svg width="43" height="44" viewBox="0 0 43 44" fill="none" xmlns="http://www.w3.org/2000/svg">
<path fill-rule="evenodd" clip-rule="evenodd" d="M21.3823 0.457764C33.1844 0.457764 42.7646 10.038 42.7646 21.8401C42.7646 33.6422 33.1844 43.2224 21.3823 43.2224C9.58026 43.2224 0 33.6422 0 21.8401C0 10.038 9.58026 0.457764 21.3823 0.457764ZM21.3823 3.51238C11.2679 3.51238 3.05462 11.7256 3.05462 21.8401C3.05462 31.9545 11.2679 40.1678 21.3823 40.1678C31.4968 40.1678 39.71 31.9545 39.71 21.8401C39.71 11.7256 31.4968 3.51238 21.3823 3.51238ZM11.0255 22.7946C10.4986 22.1359 10.6054 21.1737 11.2641 20.6468C11.9228 20.1199 12.885 20.2268 13.4119 20.8855L18.4537 27.1892L30.9928 14.6501C31.5885 14.0545 32.5583 14.0545 33.1539 14.6501C33.7496 15.2458 33.7496 16.2156 33.1539 16.8113L19.4081 30.5571C19.1008 30.8625 18.677 31.0248 18.2436 31C17.8102 30.9771 17.4074 30.7709 17.1344 30.4311L11.0255 22.7946Z" fill="#FE5723"/>
</svg>
