<svg width="79" height="80" viewBox="0 0 79 80" fill="none" xmlns="http://www.w3.org/2000/svg">
<g clip-path="url(#clip0_15_133)">
<path d="M47.3067 31.3956C50.8711 28.0622 53.1822 23.4933 53.1822 18.4622C53.1822 13.4311 51.12 8.74667 47.7778 5.40444C44.4356 2.06222 39.8133 0 34.7111 0C29.6089 0 25.0756 2.03556 21.7333 5.34222L21.6533 5.41333C18.3111 8.75556 16.2489 13.3689 16.2489 18.4711C16.2489 23.5733 18.2845 28.1067 21.5822 31.4489L21.6533 31.5289C23.1733 33.0489 24.9689 34.3111 26.9511 35.2267C26.8978 35.2356 26.8445 35.2533 26.7911 35.2711H41.44C43.6089 34.32 45.6 33.0133 47.2978 31.4133L47.3067 31.3956ZM23.4845 29.6889L23.4222 29.6267C20.5867 26.7556 18.8356 22.8178 18.8356 18.4622C18.8356 14.1067 20.6133 10.1067 23.4845 7.23556L23.5467 7.17333C26.4089 4.33778 30.3556 2.58667 34.7111 2.58667C39.0667 2.58667 43.0667 4.36444 45.9378 7.23556C48.8089 10.1067 50.5867 14.08 50.5867 18.4711C50.5867 22.8622 48.6045 26.6667 45.5467 29.5289C42.56 32.3289 38.5422 34.1333 34.3378 34.3467C30.1067 34.2489 26.2756 32.4889 23.4756 29.6889H23.4845Z" fill="#FE5723"/>
<path d="M74.88 61.3867L74.8089 61.3068C72.96 59.4579 70.4445 58.2667 67.6622 58.1156C65.3956 51.3512 60.8356 45.5112 54.9778 41.3156C50.9778 38.4534 46.3644 36.3556 41.4489 35.2534H26.8C20.3911 36.7468 14.6667 40.009 10.1778 44.5068C3.88444 50.7912 0 59.4668 0 69.049C0 69.7601 0.577778 70.3379 1.28889 70.3379H56.0089C56.0711 70.3379 56.1333 70.3379 56.1956 70.3201C56.4889 72.8356 57.6356 75.0845 59.3244 76.7823C61.3067 78.7645 64.0444 79.9912 67.0667 79.9912C70.0889 79.9912 72.8267 78.7645 74.8089 76.7823C76.7911 74.8001 78.0178 72.0623 78.0178 69.049C78.0178 66.0356 76.8178 63.3601 74.88 61.3867ZM56.0089 67.7601H2.60444C2.93333 59.4045 6.46222 51.8579 11.9911 46.329C17.5467 40.7734 25.1378 37.2356 33.5467 36.9423H33.8578C41.0133 37.0134 47.8844 39.4134 53.4844 43.4134C58.7289 47.1645 62.8444 52.3201 64.9956 58.2934C62.8 58.7112 60.8444 59.7868 59.3244 61.3068C57.6267 63.0045 56.48 65.2623 56.1956 67.769C56.1333 67.769 56.0711 67.7512 56.0089 67.7512V67.7601ZM72.9867 74.969C71.4756 76.4801 69.3778 77.4223 67.0667 77.4223C64.7556 77.4223 62.6667 76.489 61.1467 74.969C59.6356 73.4579 58.6933 71.3601 58.6933 69.049C58.6933 66.7379 59.6267 64.649 61.1467 63.129C62.6578 61.6179 64.7556 60.6756 67.0667 60.6756C69.3778 60.6756 71.4667 61.609 72.9867 63.129L73.0489 63.1912C74.5244 64.7023 75.4311 66.7645 75.4311 69.049C75.4311 71.3334 74.4978 73.4579 72.9778 74.969H72.9867Z" fill="white"/>
<path d="M70.3822 65.6L66.2134 69.7689L63.76 67.3155C63.2534 66.8089 62.4356 66.8089 61.9378 67.3155C61.4311 67.8222 61.4311 68.64 61.9378 69.1377L65.2978 72.4977C65.8045 73.0044 66.6222 73.0044 67.12 72.4977L72.1956 67.4222C72.7022 66.9244 72.7022 66.1066 72.1956 65.6C71.6978 65.0933 70.88 65.0933 70.3734 65.6H70.3822Z" fill="#FE5723"/>
</g>
<defs>
<clipPath id="clip0_15_133">
<rect width="78.0178" height="80" fill="white"/>
</clipPath>
</defs>
</svg>
